{
.appVersion = "3151";
DisplayStrings = (
"Hooks/space and/space tails:\012/Dtopbar/Bhook/Bhook.loclXPE/Bhook.loclXPE/Nlongrightleg/Beta-latin/space \012/Eng/Enhook-cy/Tretroflexhook/Rtail/Fhook/EnLeftHook-cy/Heng/Mhook/Nhookleft/Tretroflexhook/Qhooktail/space \012OH/Hhook/Bhook/Dhook/Phook/Thook/space/space/space \012/Ghook/Chook \012U/Vhook/vhook/space \012W/Whook H/Whook ijHYH/Yhook H/Bhook.loclXPE/Vhook.loclTOD0 \012\012/bhook c/chook/Chook/dhook/dhookandtail/dtail g/ghook/Ghook hH/heng/hhook/iota-latin j/jdotless/khook m/mhook n/nhookleft/phook/qhooktail/Qhooktail/rfishhook/rtail/thook/tretroflexhook/Uhornhookabove v/vhook w/whook/Whook/yhook/Yhook",
"Middle:\012/euro/Ldoublebar/Lmiddletilde",
"/Eopen/EreversedOpen/Ezh/Ezhreversed/space/Ze-cy/Ereversed-cy/Dzeabkhasian-cy/space 3/summation/space \012/Esh j/esh/space/Chi-latin/chi-latin no/chi-latin \012c/cacute/cbar/ccaron ç/ccedillaacute/ccircumflex/cdotaccent/chook/creversed/cstroke/oopen/cacute.loclPLK/es-cy \012\012/Eopen/EreversedOpen/Ezh/Ezhreversed 3/summation \012/Esh j/esh/space/Chi-latin/chi-latin no/chi-latin \012c/cacute/cbar/ccaron ç/ccedillaacute/ccircumflex/cdotaccent/chook/creversed/cstroke/oopen",

glyphs = (
{
glyphname = A;
layers = (
{
anchors = (
{
name = bottom;
position = "{344, 0}";
},
{
name = ogonek;
position = "{679, 0}";
},
{
name = top;
position = "{344, 700}";
},
{
name = topleft;
position = "{106, 700}";
}
);
layerId = UUID0;
paths = (
{
closed = 1;
nodes = (
"32 0 LINE",
"349 684 LINE",
"339 684 LINE",
"656 0 LINE",
"679 0 LINE",
"354 700 LINE",
"334 700 LINE",
"9 0 LINE"
);
},
{
closed = 1;
nodes = (
"571 211 LINE",
"561 230 LINE",
"126 230 LINE",
"116 211 LINE"
);
}
);
width = 688;
},
{
anchors = (
{
name = bottom;
position = "{403, 0}";
},
{
name = ogonek;
position = "{825, 0}";
},
{
name = top;
position = "{403, 700}";
},
{
name = topleft;
position = "{121, 701}";
}
);
guideLines = (
{
angle = 245.556;
position = "{234, 56}";
}
);
layerId = "5DA6E103-6A94-47F2-987D-4952DB8EA68E";
paths = (
{
closed = 1;
nodes = (
"221 0 LINE",
"447 588 LINE",
"355 588 LINE",
"581 0 LINE",
"825 0 LINE",
"519 700 LINE",
"287 700 LINE",
"-19 0 LINE"
);
},
{
closed = 1;
nodes = (
"605 122 LINE",
"545 292 LINE",
"223 292 LINE",
"163 122 LINE"
);
}
);
width = 806;
},
{
anchors = (
{
name = bottom;
position = "{370, 0}";
},
{
name = ogonek;
position = "{743, 0}";
},
{
name = top;
position = "{370, 700}";
},
{
name = topleft;
position = "{113, 700}";
}
);
layerId = "708134FE-A11E-43C9-84F0-594DA15B6BD1";
paths = (
{
closed = 1;
nodes = (
"115 0 LINE",
"392 637 LINE",
"346 637 LINE",
"623 0 LINE",
"743 0 LINE",
"426 700 LINE",
"313 700 LINE",
"-3 0 LINE"
);
},
{
closed = 1;
nodes = (
"586 168 LINE",
"554 260 LINE",
"168 260 LINE",
"137 168 LINE"
);
}
);
width = 740;
}
);
leftKerningGroup = A;
rightKerningGroup = A;
rightMetricsKey = "=|";
unicode = 0041;
},
{
color = 3;
glyphname = "Alpha-latin";
layers = (
{
anchors = (
{
name = bottom;
position = "{454, 0}";
},
{
name = ogonek;
position = "{796, 0}";
},
{
name = top;
position = "{454, 702}";
}
);
background = {
components = (
{
name = O;
transform = "{1, 0, 0, 1, 20, 0}";
}
);
};
layerId = UUID0;
paths = (
{
closed = 1;
nodes = (
"644 -4 OFFCURVE",
"798 146 OFFCURVE",
"798 352 CURVE SMOOTH",
"798 555 OFFCURVE",
"644 703 OFFCURVE",
"439 703 CURVE SMOOTH",
"236 703 OFFCURVE",
"79 556 OFFCURVE",
"79 352 CURVE SMOOTH",
"79 145 OFFCURVE",
"235 -4 OFFCURVE",
"439 -4 CURVE SMOOTH"
);
},
{
closed = 1;
nodes = (
"244 16 OFFCURVE",
"99 155 OFFCURVE",
"99 352 CURVE SMOOTH",
"99 546 OFFCURVE",
"245 683 OFFCURVE",
"438 683 CURVE SMOOTH",
"631 683 OFFCURVE",
"776 546 OFFCURVE",
"776 352 CURVE SMOOTH",
"776 155 OFFCURVE",
"631 16 OFFCURVE",
"438 16 CURVE SMOOTH"
);
},
{
closed = 1;
nodes = (
"796 0 LINE",
"796 700 LINE",
"776 700 LINE",
"776 443 LINE",
"791 353 LINE",
"776 263 LINE",
"776 0 LINE"
);
}
);
userData = {
RMXScaler = {
height = 136;
width = 144;
};
};
width = 945;
},
{
anchors = (
{
name = bottom;
position = "{453, 0}";
},
{
name = ogonek;
position = "{802, 0}";
},
{
name = top;
position = "{453, 702}";
}
);
background = {
components = (
{
name = O;
transform = "{1, 0, 0, 1, 11, 0}";
}
);
};
layerId = "708134FE-A11E-43C9-84F0-594DA15B6BD1";
paths = (
{
closed = 1;
nodes = (
"611 -7 OFFCURVE",
"755 117 OFFCURVE",
"755 351 CURVE SMOOTH",
"755 586 OFFCURVE",
"609 709 OFFCURVE",
"418 709 CURVE SMOOTH",
"212 709 OFFCURVE",
"56 565 OFFCURVE",
"56 351 CURVE SMOOTH",
"56 137 OFFCURVE",
"213 -7 OFFCURVE",
"419 -7 CURVE SMOOTH"
);
},
{
closed = 1;
nodes = (
"283 94 OFFCURVE",
"172 197 OFFCURVE",
"172 351 CURVE SMOOTH",
"172 506 OFFCURVE",
"284 608 OFFCURVE",
"431 608 CURVE SMOOTH",
"578 608 OFFCURVE",
"689 506 OFFCURVE",
"689 351 CURVE SMOOTH",
"689 197 OFFCURVE",
"578 94 OFFCURVE",
"431 94 CURVE SMOOTH"
);
},
{
closed = 1;
nodes = (
"802 0 LINE",
"802 700 LINE",
"687 700 LINE",
"687 508 LINE",
"701 353 LINE",
"692 198 LINE",
"692 0 LINE"
);
}
);
userData = {
RMXScaler = {
height = 133;
weight = 5;
width = 138;
};
};
width = 913;
},
{
anchors = (
{
name = bottom;
position = "{455, 0}";
},
{
name = ogonek;
position = "{814, 0}";
},
{
name = top;
position = "{455, 698}";
}
);
background = {
components = (
{
name = O;
}
);
};
layerId = "5DA6E103-6A94-47F2-987D-4952DB8EA68E";
paths = (
{
closed = 1;
nodes = (
"564 -11 OFFCURVE",
"666 102 OFFCURVE",
"666 348 CURVE SMOOTH",
"666 599 OFFCURVE",
"559 714 OFFCURVE",
"380 714 CURVE SMOOTH",
"183 714 OFFCURVE",
"28 575 OFFCURVE",
"28 351 CURVE SMOOTH",
"28 129 OFFCURVE",
"181 -11 OFFCURVE",
"383 -11 CURVE SMOOTH"
);
},
{
closed = 1;
nodes = (
"335 177 OFFCURVE",
"266 241 OFFCURVE",
"266 350 CURVE SMOOTH",
"266 460 OFFCURVE",
"335 524 OFFCURVE",
"425 524 CURVE SMOOTH",
"514 524 OFFCURVE",
"583 461 OFFCURVE",
"583 350 CURVE SMOOTH",
"583 240 OFFCURVE",
"514 177 OFFCURVE",
"425 177 CURVE SMOOTH"
);
},
{
closed = 1;
nodes = (
"814 0 LINE",
"814 700 LINE",
"579 700 LINE",
"579 577 LINE",
"592 350 LINE",
"590 125 LINE",
"590 0 LINE"
);
}
);
userData = {
RMXScaler = {
height = 129;
weight = 9;
width = 131;
};
};
width = 880;
}
);
leftKerningGroup = O;
leftMetricsKey = O;
rightKerningGroup = H;
rightMetricsKey = H;
unicode = 2C6D;
userData = {
RMXScaler = {
source = a.ss01;
};
};
},
{
color = 4;
glyphname = Astroke;
layers = (
{
anchors = (
{
name = _center;
position = "{409, 350}";
},
{
name = bottom;
position = "{344, 0}";
},
{
name = ogonek;
position = "{679, 0}";
},
{
name = top;
position = "{344, 700}";
},
{
name = topleft;
position = "{106, 700}";
}
);
layerId = UUID0;
paths = (
{
closed = 1;
nodes = (
"32 0 LINE",
"349 684 LINE",
"339 684 LINE",
"656 0 LINE",
"679 0 LINE",
"354 700 LINE",
"334 700 LINE",
"9 0 LINE"
);
},
{
closed = 1;
nodes = (
"571 211 LINE",
"561 230 LINE",
"126 230 LINE",
"116 211 LINE"
);
},
{
closed = 1;
nodes = (
"171 -70 LINE",
"561 770 LINE",
"539 770 LINE",
"149 -70 LINE"
);
}
);
width = 688;
},
{
anchors = (
{
name = _center;
position = "{435, 350}";
},
{
name = bottom;
position = "{370, 0}";
},
{
name = ogonek;
position = "{743, 0}";
},
{
name = top;
position = "{370, 700}";
},
{
name = topleft;
position = "{113, 700}";
}
);
background = {
paths = (
{
closed = 1;
nodes = (
"115 0 LINE",
"392 642 LINE",
"346 642 LINE",
"623 0 LINE",
"743 0 LINE",
"426 700 LINE",
"313 700 LINE",
"-3 0 LINE"
);
},
{
closed = 1;
nodes = (
"586 172 LINE",
"554 257 LINE",
"168 257 LINE",
"137 172 LINE"
);
},
{
closed = 1;
nodes = (
"226 -70 LINE",
"587 770 LINE",
"517 770 LINE",
"155 -70 LINE"
);
}
);
};
layerId = "708134FE-A11E-43C9-84F0-594DA15B6BD1";
paths = (
{
closed = 1;
nodes = (
"115 0 LINE",
"392 642 LINE",
"346 642 LINE",
"623 0 LINE",
"743 0 LINE",
"426 700 LINE",
"313 700 LINE",
"-3 0 LINE"
);
},
{
closed = 1;
nodes = (
"586 172 LINE",
"554 257 LINE",
"168 257 LINE",
"137 172 LINE"
);
},
{
closed = 1;
nodes = (
"226 -70 LINE",
"587 770 LINE",
"517 770 LINE",
"155 -70 LINE"
);
}
);
width = 740;
},
{
anchors = (
{
name = _center;
position = "{453, 350}";
},
{
name = bottom;
position = "{388, 0}";
},
{
name = ogonek;
position = "{795, 0}";
},
{
name = top;
position = "{388, 700}";
},
{
name = topleft;
position = "{114, 701}";
}
);
background = {
paths = (
{
closed = 1;
nodes = (
"184 0 LINE",
"426 604 LINE",
"347 604 LINE",
"589 0 LINE",
"795 0 LINE",
"486 700 LINE",
"290 700 LINE",
"-19 0 LINE"
);
},
{
closed = 1;
nodes = (
"594 137 LINE",
"543 281 LINE",
"202 281 LINE",
"150 137 LINE"
);
},
{
closed = 1;
nodes = (
"292 -71 LINE",
"627 769 LINE",
"517 769 LINE",
"182 -71 LINE"
);
}
);
};
layerId = "5DA6E103-6A94-47F2-987D-4952DB8EA68E";
paths = (
{
closed = 1;
nodes = (
"184 0 LINE",
"426 604 LINE",
"347 604 LINE",
"589 0 LINE",
"795 0 LINE",
"486 700 LINE",
"290 700 LINE",
"-19 0 LINE"
);
},
{
closed = 1;
nodes = (
"594 137 LINE",
"543 281 LINE",
"202 281 LINE",
"150 137 LINE"
);
},
{
closed = 1;
nodes = (
"291 -71 LINE",
"627 769 LINE",
"517 769 LINE",
"181 -71 LINE"
);
}
);
width = 776;
}
);
unicode = 023A;
},
{
glyphname = AE;
layers = (
{
anchors = (
{
name = bottom;
position = "{480, 0}";
},
{
name = top;
position = "{480, 700}";
}
);
layerId = UUID0;
paths = (
{
closed = 1;
nodes = (
"32 0 LINE",
"467 685 LINE",
"453 681 LINE",
"475 681 LINE",
"475 700 LINE",
"454 700 LINE",
"9 0 LINE"
);
},
{
closed = 1;
nodes = (
"475 211 LINE",
"475 230 LINE",
"163 230 LINE",
"153 211 LINE"
);
},
{
closed = 1;
nodes = (
"936 0 LINE",
"936 19 LINE",
"490 19 LINE",
"490 681 LINE",
"921 681 LINE",
"921 700 LINE",
"470 700 LINE",
"470 0 LINE"
);
},
{
closed = 1;
nodes = (
"876 346 LINE",
"876 365 LINE",
"485 365 LINE",
"485 346 LINE"
);
}
);
width = 1005;
},
{
anchors = (
{
name = bottom;
position = "{619, 0}";
},
{
name = top;
position = "{619, 700}";
}
);
layerId = "5DA6E103-6A94-47F2-987D-4952DB8EA68E";
paths = (
{
closed = 1;
nodes = (
"221 0 LINE",
"527 616 LINE",
"385 522 LINE",
"584 522 LINE",
"584 700 LINE",
"350 700 LINE",
"-19 0 LINE"
);
},
{
closed = 1;
nodes = (
"584 122 LINE",
"584 292 LINE",
"219 292 LINE",
"219 122 LINE"
);
},
{
closed = 1;
nodes = (
"1085 0 LINE",
"1085 178 LINE",
"735 178 LINE",
"735 522 LINE",
"1072 522 LINE",
"1072 700 LINE",
"503 700 LINE",
"503 0 LINE"
);
},
{
closed = 1;
nodes = (
"1031 270 LINE",
"1031 440 LINE",
"719 440 LINE",
"719 270 LINE"
);
}
);
width = 1119;
},
{
anchors = (
{
name = bottom;
position = "{541, 0}";
},
{
name = top;
position = "{541, 700}";
}
);
layerId = "708134FE-A11E-43C9-84F0-594DA15B6BD1";
paths = (
{
closed = 1;
nodes = (
"115 0 LINE",
"493 652 LINE",
"423 601 LINE",
"523 601 LINE",
"523 700 LINE",
"409 700 LINE",
"-3 0 LINE"
);
},
{
closed = 1;
nodes = (
"523 168 LINE",
"523 260 LINE",
"187 260 LINE",
"182 168 LINE"
);
},
{
closed = 1;
nodes = (
"1001 0 LINE",
"1001 99 LINE",
"599 99 LINE",
"599 601 LINE",
"987 601 LINE",
"987 700 LINE",
"485 700 LINE",
"485 0 LINE"
);
},
{
closed = 1;
nodes = (
"944 307 LINE",
"944 404 LINE",
"590 404 LINE",
"589 307 LINE"
);
}
);
width = 1055;
}
);
leftKerningGroup = A;
leftMetricsKey = A;
rightKerningGroup = E;
rightMetricsKey = E;
unicode = 00C6;
},
{
glyphname = B;
layers = (
{
anchors = (
{
name = bottom;
position = "{391, 0}";
},
{
name = hook.af;
position = "{147, 700}";
},
{
name = top;
position = "{391, 700}";
}
);
layerId = UUID0;
paths = (
{
closed = 1;
nodes = (
"444 0 LINE SMOOTH",
"614 0 OFFCURVE",
"697 65 OFFCURVE",
"697 183 CURVE SMOOTH",
"697 301 OFFCURVE",
"616 363 OFFCURVE",
"455 363 CURVE",
"438 350 LINE",
"568 350 OFFCURVE",
"659 406 OFFCURVE",
"659 523 CURVE SMOOTH",
"659 640 OFFCURVE",
"568 700 OFFCURVE",
"424 700 CURVE SMOOTH",
"147 700 LINE",
"147 0 LINE"
);
},
{
closed = 1;
nodes = (
"167 681 LINE",
"428 681 LINE SMOOTH",
"561 681 OFFCURVE",
"639 627 OFFCURVE",
"639 523 CURVE SMOOTH",
"639 419 OFFCURVE",
"561 365 OFFCURVE",
"428 365 CURVE SMOOTH",
"162 365 LINE",
"162 346 LINE",
"448 346 LINE SMOOTH",
"597 346 OFFCURVE",
"677 296 OFFCURVE",
"677 183 CURVE SMOOTH",
"677 70 OFFCURVE",
"597 19 OFFCURVE",
"448 19 CURVE SMOOTH",
"167 19 LINE"
);
}
);
width = 762;
},
{
anchors = (
{
name = bottom;
position = "{391, 0}";
},
{
name = hook.af;
position = "{66, 700}";
},
{
name = top;
position = "{391, 700}";
}
);
layerId = "5DA6E103-6A94-47F2-987D-4952DB8EA68E";
paths = (
{
closed = 1;
nodes = (
"460 0 LINE SMOOTH",
"653 0 OFFCURVE",
"756 71 OFFCURVE",
"756 193 CURVE SMOOTH",
"756 315 OFFCURVE",
"653 387 OFFCURVE",
"490 387 CURVE",
"470 333 LINE",
"633 333 OFFCURVE",
"723 411 OFFCURVE",
"723 517 CURVE SMOOTH",
"723 623 OFFCURVE",
"633 700 OFFCURVE",
"440 700 CURVE SMOOTH",
"66 700 LINE",
"66 0 LINE"
);
},
{
closed = 1;
nodes = (
"298 535 LINE",
"408 535 LINE SMOOTH",
"461 535 OFFCURVE",
"485 517 OFFCURVE",
"485 483 CURVE SMOOTH",
"485 449 OFFCURVE",
"461 431 OFFCURVE",
"408 431 CURVE SMOOTH",
"282 431 LINE",
"282 275 LINE",
"440 275 LINE SMOOTH",
"492 275 OFFCURVE",
"518 256 OFFCURVE",
"518 220 CURVE SMOOTH",
"518 184 OFFCURVE",
"492 165 OFFCURVE",
"440 165 CURVE SMOOTH",
"298 165 LINE"
);
}
);
width = 782;
},
{
anchors = (
{
name = bottom;
position = "{390, 0}";
},
{
name = hook.af;
position = "{111, 700}";
},
{
name = top;
position = "{390, 700}";
}
);
layerId = "708134FE-A11E-43C9-84F0-594DA15B6BD1";
paths = (
{
closed = 1;
nodes = (
"452 0 LINE SMOOTH",
"630 0 OFFCURVE",
"722 70 OFFCURVE",
"722 190 CURVE SMOOTH",
"722 310 OFFCURVE",
"634 374 OFFCURVE",
"523 374 CURVE",
"505 341 LINE",
"599 341 OFFCURVE",
"686 406 OFFCURVE",
"686 518 CURVE SMOOTH",
"686 630 OFFCURVE",
"596 700 OFFCURVE",
"432 700 CURVE SMOOTH",
"111 700 LINE",
"111 0 LINE"
);
},
{
closed = 1;
nodes = (
"225 607 LINE",
"420 607 LINE SMOOTH",
"516 607 OFFCURVE",
"571 573 OFFCURVE",
"571 504 CURVE SMOOTH",
"571 435 OFFCURVE",
"516 401 OFFCURVE",
"420 401 CURVE SMOOTH",
"216 401 LINE",
"216 308 LINE",
"446 308 LINE SMOOTH",
"550 308 OFFCURVE",
"607 275 OFFCURVE",
"607 200 CURVE SMOOTH",
"607 125 OFFCURVE",
"550 93 OFFCURVE",
"446 93 CURVE SMOOTH",
"225 93 LINE"
);
}
);
width = 770;
}
);
leftKerningGroup = H;
leftMetricsKey = H;
rightKerningGroup = B;
unicode = 0042;
},
{
color = 3;
glyphname = "Beta-latin";
layers = (
{
anchors = (
{
name = bottom;
position = "{391, 0}";
},
{
name = hook.af;
position = "{147, 700}";
},
{
name = top;
position = "{391, 700}";
}
);
layerId = UUID0;
paths = (
{
closed = 1;
nodes = (
"167 -194 LINE",
"167 681 LINE",
"428 681 LINE SMOOTH",
"561 681 OFFCURVE",
"639 627 OFFCURVE",
"639 523 CURVE SMOOTH",
"639 419 OFFCURVE",
"561 365 OFFCURVE",
"428 365 CURVE SMOOTH",
"162 365 LINE",
"162 346 LINE",
"448 346 LINE SMOOTH",
"597 346 OFFCURVE",
"677 296 OFFCURVE",
"677 183 CURVE SMOOTH",
"677 70 OFFCURVE",
"597 19 OFFCURVE",
"448 19 CURVE SMOOTH",
"164 19 LINE",
"164 0 LINE",
"444 0 LINE SMOOTH",
"614 0 OFFCURVE",
"697 65 OFFCURVE",
"697 183 CURVE SMOOTH",
"697 301 OFFCURVE",
"616 363 OFFCURVE",
"455 363 CURVE",
"438 350 LINE",
"568 350 OFFCURVE",
"659 406 OFFCURVE",
"659 523 CURVE SMOOTH",
"659 640 OFFCURVE",
"568 700 OFFCURVE",
"424 700 CURVE SMOOTH",
"147 700 LINE",
"147 -194 LINE"
);
}
);
width = 787;
},
{
anchors = (
{
name = bottom;
position = "{391, 0}";
},
{
name = hook.af;
position = "{112, 700}";
},
{
name = top;
position = "{391, 700}";
}
);
layerId = "708134FE-A11E-43C9-84F0-594DA15B6BD1";
paths = (
{
closed = 1;
nodes = (
"226 -194 LINE",
"226 607 LINE",
"421 607 LINE SMOOTH",
"517 607 OFFCURVE",
"572 573 OFFCURVE",
"572 504 CURVE SMOOTH",
"572 435 OFFCURVE",
"517 401 OFFCURVE",
"421 401 CURVE SMOOTH",
"217 401 LINE",
"217 308 LINE",
"447 308 LINE SMOOTH",
"551 308 OFFCURVE",
"608 275 OFFCURVE",
"608 200 CURVE SMOOTH",
"608 125 OFFCURVE",
"551 93 OFFCURVE",
"447 93 CURVE SMOOTH",
"217 93 LINE",
"217 0 LINE",
"453 0 LINE SMOOTH",
"631 0 OFFCURVE",
"723 70 OFFCURVE",
"723 190 CURVE SMOOTH",
"723 310 OFFCURVE",
"635 374 OFFCURVE",
"524 374 CURVE",
"506 341 LINE",
"600 341 OFFCURVE",
"687 406 OFFCURVE",
"687 518 CURVE SMOOTH",
"687 630 OFFCURVE",
"597 700 OFFCURVE",
"433 700 CURVE SMOOTH",
"112 700 LINE",
"112 -194 LINE"
);
}
);
width = 784;
},
{
anchors = (
{
name = bottom;
position = "{391, 0}";
},
{
name = hook.af;
position = "{66, 700}";
},
{
name = top;
position = "{391, 700}";
}
);
layerId = "5DA6E103-6A94-47F2-987D-4952DB8EA68E";
paths = (
{
closed = 1;
nodes = (
"298 -194 LINE",
"298 535 LINE",
"408 535 LINE SMOOTH",
"461 535 OFFCURVE",
"485 517 OFFCURVE",
"485 483 CURVE SMOOTH",
"485 449 OFFCURVE",
"461 431 OFFCURVE",
"408 431 CURVE SMOOTH",
"285 431 LINE",
"285 275 LINE",
"440 275 LINE SMOOTH",
"492 275 OFFCURVE",
"518 256 OFFCURVE",
"518 220 CURVE SMOOTH",
"518 184 OFFCURVE",
"492 165 OFFCURVE",
"440 165 CURVE SMOOTH",
"285 165 LINE",
"285 0 LINE",
"460 0 LINE",
"653 0 OFFCURVE",
"756 71 OFFCURVE",
"756 193 CURVE SMOOTH",
"756 315 OFFCURVE",
"653 387 OFFCURVE",
"490 387 CURVE",
"470 333 LINE",
"633 333 OFFCURVE",
"723 411 OFFCURVE",
"723 517 CURVE SMOOTH",
"723 623 OFFCURVE",
"633 700 OFFCURVE",
"440 700 CURVE SMOOTH",
"66 700 LINE",
"66 -194 LINE"
);
}
);
width = 781;
}
);
unicode = A7B4;
},
{
color = 3;
glyphname = Bhook;
layers = (
{
components = (
{
alignment = -1;
name = B;
transform = "{1, 0, 0, 1, 70, 0}";
},
{
name = hookcomb.left;
transform = "{1, 0, 0, 1, -33, 0}";
}
);
layerId = UUID0;
width = 832;
},
{
components = (
{
alignment = -1;
name = B;
transform = "{1, 0, 0, 1, 92, 0}";
},
{
name = hookcomb.left;
transform = "{1, 0, 0, 1, -47, 0}";
}
);
layerId = "708134FE-A11E-43C9-84F0-594DA15B6BD1";
width = 851;
},
{
background = {
components = (
{
name = B;
transform = "{1, 0, 0, 1, 188, 0}";
}
);
paths = (
{
closed = 1;
nodes = (
"29 416 OFFCURVE",
"47 355 OFFCURVE",
"73 317 CURVE",
"197 401 LINE",
"183 420 OFFCURVE",
"176 441 OFFCURVE",
"176 458 CURVE SMOOTH",
"176 491 OFFCURVE",
"199 517 OFFCURVE",
"247 517 CURVE SMOOTH",
"465 517 LINE",
"465 701 LINE",
"260 701 LINE SMOOTH",
"85 701 OFFCURVE",
"29 589 OFFCURVE",
"29 478 CURVE SMOOTH"
);
}
);
};
components = (
{
alignment = -1;
name = B;
transform = "{1, 0, 0, 1, 188, 0}";
},
{
name = hookcomb.left;
transform = "{1, 0, 0, 1, 4, 0}";
}
);
guideLines = (
{
position = "{994, 535}";
}
);
layerId = "5DA6E103-6A94-47F2-987D-4952DB8EA68E";
width = 970;
}
);
leftMetricsKey = Hhook;
rightMetricsKey = B;
unicode = 0181;
},
{
color = 4;
glyphname = Bstroke;
layers = (
{
anchors = (
{
name = bottom;
position = "{377, 0}";
},
{
name = hook.af;
position = "{133, 700}";
},
{
name = top;
position = "{377, 700}";
}
);
layerId = UUID0;
paths = (
{
closed = 1;
nodes = (
"430 0 LINE SMOOTH",
"600 0 OFFCURVE",
"683 65 OFFCURVE",
"683 183 CURVE SMOOTH",
"683 301 OFFCURVE",
"602 363 OFFCURVE",
"441 363 CURVE",
"424 350 LINE",
"554 350 OFFCURVE",
"645 406 OFFCURVE",
"645 523 CURVE SMOOTH",
"645 640 OFFCURVE",
"554 700 OFFCURVE",
"410 700 CURVE SMOOTH",
"133 700 LINE",
"133 0 LINE"
);
},
{
closed = 1;
nodes = (
"140 176 LINE",
"149 176 LINE",
"365 176 LINE",
"365 195 LINE",
"149 195 LINE",
"140 195 LINE",
"16 195 LINE",
"16 176 LINE"
);
},
{
closed = 1;
nodes = (
"153 681 LINE",
"414 681 LINE SMOOTH",
"547 681 OFFCURVE",
"625 627 OFFCURVE",
"625 523 CURVE SMOOTH",
"625 419 OFFCURVE",
"547 365 OFFCURVE",
"414 365 CURVE SMOOTH",
"148 365 LINE",
"148 346 LINE",
"434 346 LINE SMOOTH",
"583 346 OFFCURVE",
"663 296 OFFCURVE",
"663 183 CURVE SMOOTH",
"663 70 OFFCURVE",
"583 19 OFFCURVE",
"434 19 CURVE SMOOTH",
"153 19 LINE"
);
}
);
width = 748;
},
{
anchors = (
{
name = bottom;
position = "{379, 0}";
},
{
name = hook.af;
position = "{100, 700}";
},
{
name = top;
position = "{379, 700}";
}
);
background = {
paths = (
{
closed = 1;
nodes = (
"439 0 LINE SMOOTH",
"619 0 OFFCURVE",
"711 68 OFFCURVE",
"711 187 CURVE SMOOTH",
"711 307 OFFCURVE",
"620 373 OFFCURVE",
"458 375 CURVE",
"440 346 LINE",
"585 343 OFFCURVE",
"675 408 OFFCURVE",
"675 520 CURVE SMOOTH",
"675 633 OFFCURVE",
"585 700 OFFCURVE",
"419 700 CURVE SMOOTH",
"100 700 LINE",
"100 0 LINE"
);
},
{
closed = 1;
nodes = (
"212 617 LINE",
"407 617 LINE SMOOTH",
"505 617 OFFCURVE",
"560 579 OFFCURVE",
"560 506 CURVE SMOOTH",
"560 432 OFFCURVE",
"505 394 OFFCURVE",
"407 394 CURVE SMOOTH",
"203 394 LINE",
"203 321 LINE",
"433 321 LINE SMOOTH",
"539 321 OFFCURVE",
"596 283 OFFCURVE",
"596 202 CURVE SMOOTH",
"596 122 OFFCURVE",
"539 83 OFFCURVE",
"433 83 CURVE SMOOTH",
"212 83 LINE"
);
},
{
closed = 1;
nodes = (
"168 178 LINE",
"374 178 LINE",
"374 229 LINE",
"168 229 LINE",
"144 230 LINE",
"5 230 LINE",
"5 176 LINE",
"144 176 LINE"
);
}
);
};
layerId = "708134FE-A11E-43C9-84F0-594DA15B6BD1";
paths = (
{
closed = 1;
nodes = (
"441 0 LINE SMOOTH",
"619 0 OFFCURVE",
"711 73 OFFCURVE",
"711 193 CURVE SMOOTH",
"711 313 OFFCURVE",
"623 377 OFFCURVE",
"512 377 CURVE",
"494 344 LINE",
"588 344 OFFCURVE",
"675 406 OFFCURVE",
"675 518 CURVE SMOOTH",
"675 630 OFFCURVE",
"585 700 OFFCURVE",
"421 700 CURVE SMOOTH",
"100 700 LINE",
"100 0 LINE"
);
},
{
closed = 1;
nodes = (
"139 158 LINE",
"163 158 LINE",
"361 158 LINE",
"361 246 LINE",
"163 246 LINE",
"139 246 LINE",
"0 246 LINE",
"0 158 LINE"
);
},
{
closed = 1;
nodes = (
"214 607 LINE",
"409 607 LINE SMOOTH",
"505 607 OFFCURVE",
"560 573 OFFCURVE",
"560 504 CURVE SMOOTH",
"560 435 OFFCURVE",
"505 404 OFFCURVE",
"409 404 CURVE SMOOTH",
"205 404 LINE",
"205 311 LINE",
"435 311 LINE SMOOTH",
"539 311 OFFCURVE",
"596 275 OFFCURVE",
"596 200 CURVE SMOOTH",
"596 125 OFFCURVE",
"539 93 OFFCURVE",
"435 93 CURVE SMOOTH",
"214 93 LINE"
);
}
);
width = 759;
},
{
anchors = (
{
name = bottom;
position = "{382, 0}";
},
{
name = hook.af;
position = "{57, 700}";
},
{
name = top;
position = "{382, 700}";
}
);
background = {
paths = (
{
closed = 1;
nodes = (
"451 0 LINE SMOOTH",
"644 0 OFFCURVE",
"747 71 OFFCURVE",
"747 193 CURVE SMOOTH",
"747 315 OFFCURVE",
"644 387 OFFCURVE",
"481 387 CURVE",
"461 333 LINE",
"624 333 OFFCURVE",
"714 411 OFFCURVE",
"714 517 CURVE SMOOTH",
"714 623 OFFCURVE",
"624 700 OFFCURVE",
"431 700 CURVE SMOOTH",
"57 700 LINE",
"57 0 LINE"
);
},
{
closed = 1;
nodes = (
"289 535 LINE",
"399 535 LINE SMOOTH",
"452 535 OFFCURVE",
"476 517 OFFCURVE",
"476 483 CURVE SMOOTH",
"476 449 OFFCURVE",
"452 431 OFFCURVE",
"399 431 CURVE SMOOTH",
"273 431 LINE",
"273 275 LINE",
"431 275 LINE SMOOTH",
"483 275 OFFCURVE",
"509 256 OFFCURVE",
"509 220 CURVE SMOOTH",
"509 184 OFFCURVE",
"483 165 OFFCURVE",
"431 165 CURVE SMOOTH",
"289 165 LINE"
);
},
{
closed = 1;
nodes = (
"385 171 LINE",
"385 271 LINE",
"-9 271 LINE",
"-9 171 LINE"
);
}
);
};
layerId = "5DA6E103-6A94-47F2-987D-4952DB8EA68E";
paths = (
{
closed = 1;
nodes = (
"451 0 LINE SMOOTH",
"644 0 OFFCURVE",
"747 71 OFFCURVE",
"747 193 CURVE SMOOTH",
"747 315 OFFCURVE",
"644 387 OFFCURVE",
"481 390 CURVE",
"461 340 LINE",
"624 333 OFFCURVE",
"714 411 OFFCURVE",
"714 517 CURVE SMOOTH",
"714 623 OFFCURVE",
"624 700 OFFCURVE",
"431 700 CURVE SMOOTH",
"57 700 LINE",
"57 0 LINE"
);
},
{
closed = 1;
nodes = (
"149 167 LINE",
"192 178 LINE",
"385 178 LINE",
"385 276 LINE",
"192 276 LINE",
"149 287 LINE",
"-9 287 LINE",
"-9 167 LINE"
);
},
{
closed = 1;
nodes = (
"289 535 LINE",
"399 535 LINE SMOOTH",
"452 535 OFFCURVE",
"476 517 OFFCURVE",
"476 483 CURVE SMOOTH",
"476 449 OFFCURVE",
"452 431 OFFCURVE",
"399 431 CURVE SMOOTH",
"273 431 LINE",
"273 294 LINE",
"431 294 LINE SMOOTH",
"483 294 OFFCURVE",
"509 269 OFFCURVE",
"509 226 CURVE SMOOTH",
"509 187 OFFCURVE",
"483 160 OFFCURVE",
"431 160 CURVE SMOOTH",
"289 160 LINE"
);
}
);
width = 773;
}
);
unicode = 0243;
},
{
glyphname = C;
layers = (
{
anchors = (
{
name = bottom;
position = "{428, 0}";
},
{
name = top;
position = "{438, 703}";
}
);
layerId = UUID0;
paths = (
{
closed = 1;
nodes = (
"530 -3 OFFCURVE",
"616 27 OFFCURVE",
"676 87 CURVE",
"664 101 LINE",
"600 40 OFFCURVE",
"523 16 OFFCURVE",
"438 16 CURVE SMOOTH",
"245 16 OFFCURVE",
"99 161 OFFCURVE",
"99 350 CURVE SMOOTH",
"99 539 OFFCURVE",
"245 684 OFFCURVE",
"438 684 CURVE SMOOTH",
"523 684 OFFCURVE",
"600 661 OFFCURVE",
"664 600 CURVE",
"676 614 LINE",
"616 674 OFFCURVE",
"530 703 OFFCURVE",
"438 703 CURVE SMOOTH",
"233 703 OFFCURVE",
"79 552 OFFCURVE",
"79 350 CURVE SMOOTH",
"79 148 OFFCURVE",
"233 -3 OFFCURVE",
"438 -3 CURVE SMOOTH"
);
}
);
width = 731;
},
{
anchors = (
{
name = bottom;
position = "{391, 0}";
},
{
name = top;
position = "{417, 701}";
}
);
layerId = "5DA6E103-6A94-47F2-987D-4952DB8EA68E";
paths = (
{
closed = 1;
nodes = (
"555 -16 OFFCURVE",
"663 34 OFFCURVE",
"732 124 CURVE",
"583 257 LINE",
"542 205 OFFCURVE",
"493 175 OFFCURVE",
"430 175 CURVE SMOOTH",
"332 175 OFFCURVE",
"266 243 OFFCURVE",
"266 350 CURVE SMOOTH",
"266 457 OFFCURVE",
"332 525 OFFCURVE",
"430 525 CURVE SMOOTH",
"493 525 OFFCURVE",
"542 495 OFFCURVE",
"583 443 CURVE",
"732 576 LINE",
"663 666 OFFCURVE",
"555 716 OFFCURVE",
"418 716 CURVE SMOOTH",
"193 716 OFFCURVE",
"28 565 OFFCURVE",
"28 350 CURVE SMOOTH",
"28 135 OFFCURVE",
"193 -16 OFFCURVE",
"418 -16 CURVE SMOOTH"
);
}
);
width = 743;
},
{
anchors = (
{
name = bottom;
position = "{411, 0}";
},
{
name = top;
position = "{422, 700}";
}
);
layerId = "708134FE-A11E-43C9-84F0-594DA15B6BD1";
paths = (
{
closed = 1;
nodes = (
"540 -9 OFFCURVE",
"636 30 OFFCURVE",
"700 105 CURVE",
"626 177 LINE",
"574 120 OFFCURVE",
"509 93 OFFCURVE",
"434 93 CURVE SMOOTH",
"282 93 OFFCURVE",
"171 201 OFFCURVE",
"171 350 CURVE SMOOTH",
"171 499 OFFCURVE",
"282 607 OFFCURVE",
"434 607 CURVE SMOOTH",
"509 607 OFFCURVE",
"574 580 OFFCURVE",
"626 524 CURVE",
"700 596 LINE",
"636 670 OFFCURVE",
"540 709 OFFCURVE",
"429 709 CURVE SMOOTH",
"215 709 OFFCURVE",
"56 558 OFFCURVE",
"56 350 CURVE SMOOTH",
"56 142 OFFCURVE",
"215 -9 OFFCURVE",
"428 -9 CURVE SMOOTH"
);
}
);
width = 735;
}
);
leftKerningGroup = O;
leftMetricsKey = O;
rightKerningGroup = C;
unicode = 0043;
},
{
color = 3;
glyphname = "Chi-latin";
layers = (
{
background = {
paths = (
{
closed = 1;
nodes = (
"93 -194 LINE",
"338 258 LINE",
"344 266 LINE",
"583 702 LINE",
"559 702 LINE",
"333 282 LINE",
"329 278 LINE",
"69 -194 LINE"
);
},
{
closed = 1;
nodes = (
"114 698 OFFCURVE",
"51 722 OFFCURVE",
"-20 684 CURVE SMOOTH",
"-34 677 OFFCURVE",
"-47 667 OFFCURVE",
"-59 655 CURVE",
"-54 668 LINE",
"-35 646 LINE",
"-46 642 LINE",
"-37 651 OFFCURVE",
"-24 660 OFFCURVE",
"-12 667 CURVE SMOOTH",
"50 700 OFFCURVE",
"100 681 OFFCURVE",
"135 617 CURVE SMOOTH",
"540 -125 LINE SMOOTH",
"576 -192 OFFCURVE",
"639 -216 OFFCURVE",
"710 -178 CURVE SMOOTH",
"724 -171 OFFCURVE",
"738 -161 OFFCURVE",
"750 -149 CURVE",
"742 -160 LINE",
"725 -140 LINE",
"735 -136 LINE",
"726 -146 OFFCURVE",
"714 -154 OFFCURVE",
"702 -161 CURVE SMOOTH",
"640 -194 OFFCURVE",
"590 -176 OFFCURVE",
"555 -111 CURVE SMOOTH",
"150 631 LINE SMOOTH"
);
}
);
};
layerId = UUID0;
paths = (
{
closed = 1;
nodes = (
"702 -140 LINE",
"667 -183 OFFCURVE",
"607 -207 OFFCURVE",
"559 -119 CURVE SMOOTH",
"343 278 LINE",
"340 283 LINE",
"146 639 LINE SMOOTH",
"100 724 OFFCURVE",
"23 716 OFFCURVE",
"-26 659 CURVE",
"-12 646 LINE",
"23 689 OFFCURVE",
"83 713 OFFCURVE",
"131 625 CURVE SMOOTH",
"327 266 LINE",
"331 259 LINE",
"544 -133 LINE SMOOTH",
"590 -218 OFFCURVE",
"667 -210 OFFCURVE",
"716 -153 CURVE"
);
},
{
closed = 1;
nodes = (
"77 -194 LINE",
"339 258 LINE",
"344 266 LINE",
"599 702 LINE",
"575 702 LINE",
"333 282 LINE",
"329 278 LINE",
"53 -194 LINE"
);
}
);
userData = {
RMXScaler = {
height = 128;
verticalShift = -194;
width = 93;
};
};
width = 690;
},
{
background = {
paths = (
{
closed = 1;
nodes = (
"201 -194 LINE",
"423 228 LINE",
"436 237 LINE",
"704 700 LINE",
"580 700 LINE",
"374 321 LINE",
"361 318 LINE",
"80 -194 LINE"
);
},
{
closed = 1;
nodes = (
"443 303 LINE",
"413 350 LINE",
"284 610 LINE SMOOTH",
"206 768 OFFCURVE",
"35 711 OFFCURVE",
"-10 615 CURVE",
"62 562 LINE",
"105 629 OFFCURVE",
"164 621 OFFCURVE",
"194 562 CURVE SMOOTH",
"347 260 LINE",
"381 209 LINE",
"531 -104 LINE SMOOTH",
"607 -263 OFFCURVE",
"783 -205 OFFCURVE",
"828 -109 CURVE",
"756 -56 LINE",
"713 -123 OFFCURVE",
"651 -115 OFFCURVE",
"622 -56 CURVE SMOOTH"
);
}
);
};
layerId = "708134FE-A11E-43C9-84F0-594DA15B6BD1";
paths = (
{
closed = 1;
nodes = (
"750 -65 LINE",
"707 -122 OFFCURVE",
"652 -112 OFFCURVE",
"624 -56 CURVE SMOOTH",
"445 303 LINE",
"415 350 LINE",
"286 610 LINE SMOOTH",
"212 759 OFFCURVE",
"54 716 OFFCURVE",
"-2 630 CURVE",
"68 571 LINE",
"111 628 OFFCURVE",
"162 618 OFFCURVE",
"191 562 CURVE SMOOTH",
"344 260 LINE",
"378 209 LINE",
"528 -104 LINE SMOOTH",
"600 -254 OFFCURVE",
"764 -211 OFFCURVE",
"820 -124 CURVE"
);
},
{
closed = 1;
nodes = (
"200 -194 LINE",
"424 228 LINE",
"436 237 LINE",
"704 700 LINE",
"582 700 LINE",
"372 321 LINE",
"361 318 LINE",
"80 -194 LINE"
);
}
);
userData = {
RMXScaler = {
height = 128;
verticalShift = -194;
width = 92;
};
};
width = 818;
},
{
background = {
paths = (
{
closed = 1;
nodes = (
"300 -194 LINE",
"464 177 LINE",
"493 186 LINE",
"788 702 LINE",
"524 702 LINE",
"360 349 LINE",
"325 346 LINE",
"31 -194 LINE"
);
},
{
closed = 1;
nodes = (
"515 298 LINE",
"426 446 LINE",
"359 586 LINE SMOOTH",
"262 789 OFFCURVE",
"41 726 OFFCURVE",
"-45 588 CURVE",
"72 471 LINE",
"105 518 OFFCURVE",
"142 515 OFFCURVE",
"166 474 CURVE SMOOTH",
"316 213 LINE",
"398 84 LINE",
"471 -78 LINE SMOOTH",
"564 -285 OFFCURVE",
"789 -219 OFFCURVE",
"875 -81 CURVE",
"758 36 LINE",
"725 -11 OFFCURVE",
"688 -9 OFFCURVE",
"664 33 CURVE SMOOTH"
);
}
);
};
layerId = "5DA6E103-6A94-47F2-987D-4952DB8EA68E";
paths = (
{
closed = 1;
nodes = (
"754 26 LINE",
"716 -16 OFFCURVE",
"687 -9 OFFCURVE",
"663 33 CURVE SMOOTH",
"514 298 LINE",
"444 403 LINE",
"356 585 LINE SMOOTH",
"276 750 OFFCURVE",
"93 756 OFFCURVE",
"-37 625 CURVE",
"75 481 LINE",
"113 523 OFFCURVE",
"142 516 OFFCURVE",
"166 474 CURVE SMOOTH",
"315 209 LINE",
"391 104 LINE",
"473 -78 LINE SMOOTH",
"548 -244 OFFCURVE",
"736 -249 OFFCURVE",
"866 -118 CURVE"
);
},
{
closed = 1;
nodes = (
"299 -194 LINE",
"463 197 LINE",
"492 186 LINE",
"787 702 LINE",
"523 702 LINE",
"359 329 LINE",
"324 346 LINE",
"30 -194 LINE"
);
}
);
userData = {
RMXScaler = {
height = 128;
verticalShift = -194;
width = 97;
};
};
width = 829;
}
);
rightMetricsKey = "=|";
unicode = A7B3;
userData = {
RMXScaler = {
source = X;
};
};
},
{
color = 3;
glyphname = Chook;
layers = (
{
background = {
components = (
{
name = _hookcomb;
transform = "{1, 0, 0, 1, 606, 65}";
}
);
};
components = (
{
name = C;
transform = "{1, 0, 0, 1, 20, 0}";
}
);
layerId = UUID0;
paths = (
{
closed = 1;
nodes = (
"676 684 LINE SMOOTH",
"676 774 OFFCURVE",
"737 817 OFFCURVE",
"813 778 CURVE",
"802 772 LINE",
"816 802 LINE",
"819 796 LINE",
"736 837 OFFCURVE",
"656 794 OFFCURVE",
"656 684 CURVE SMOOTH",
"656 614 LINE",
"676 614 LINE"
);
}
);
width = 741;
},
{
background = {
components = (
{
name = _hookcomb;
transform = "{1, 0, 0, 1, 550, 88}";
}
);
};
components = (
{
name = C;
transform = "{1, 0, 0, 1, 10, 0}";
}
);
layerId = "708134FE-A11E-43C9-84F0-594DA15B6BD1";
paths = (
{
closed = 1;
nodes = (
"700 673 LINE SMOOTH",
"700 752 OFFCURVE",
"794 771 OFFCURVE",
"845 714 CURVE",
"798 700 LINE",
"837 855 LINE",
"882 796 LINE",
"772 876 OFFCURVE",
"596 845 OFFCURVE",
"596 673 CURVE SMOOTH",
"596 598 LINE",
"700 596 LINE"
);
}
);
width = 822;
},
{
background = {
components = (
{
name = _hookcomb;
transform = "{1, 0, 0, 1, 497, 102}";
}
);
};
components = (
{
name = C;
transform = "{1, 0, 0, 1, -1, 0}";
}
);
layerId = "5DA6E103-6A94-47F2-987D-4952DB8EA68E";
paths = (
{
closed = 1;
nodes = (
"732 652 LINE SMOOTH",
"732 703 OFFCURVE",
"788 709 OFFCURVE",
"826 679 CURVE",
"793 653 LINE",
"861 889 LINE",
"914 800 LINE",
"773 908 OFFCURVE",
"542 881 OFFCURVE",
"542 669 CURVE SMOOTH",
"542 576 LINE",
"732 576 LINE"
);
}
);
width = 831;
}
);
unicode = 0187;
},
{
color = 4;
glyphname = Cstroke;
layers = (
{
components = (
{
name = C;
}
);
layerId = UUID0;
paths = (
{
closed = 1;
nodes = (
"211 -70 LINE",
"601 770 LINE",
"579 770 LINE",
"189 -70 LINE"
);
}
);
width = 711;
},
{
components = (
{
alignment = -1;
name = C;
}
);
layerId = "708134FE-A11E-43C9-84F0-594DA15B6BD1";
paths = (
{
closed = 1;
nodes = (
"258 -70 LINE",
"619 770 LINE",
"549 770 LINE",
"187 -70 LINE"
);
}
);
width = 725;
},
{
components = (
{
name = C;
}
);
guideLines = (
{
position = "{329, 769}";
}
);
layerId = "5DA6E103-6A94-47F2-987D-4952DB8EA68E";
paths = (
{
closed = 1;
nodes = (
"310 -71 LINE",
"646 769 LINE",
"536 769 LINE",
"200 -71 LINE"
);
}
);
width = 744;
}
);
unicode = 023B;
},
{
glyphname = D;
layers = (
{
anchors = (
{
name = bottom;
position = "{410, 0}";
},
{
name = center;
position = "{214, 356}";
},
{
name = hook.af;
position = "{147, 700}";
},
{
name = top;
position = "{405, 699}";
}
);
layerId = UUID0;
paths = (
{
closed = 1;
nodes = (
"412 0 LINE SMOOTH",
"633 0 OFFCURVE",
"781 148 OFFCURVE",
"781 350 CURVE SMOOTH",
"781 552 OFFCURVE",
"633 700 OFFCURVE",
"412 700 CURVE SMOOTH",
"147 700 LINE",
"147 0 LINE"
);
},
{
closed = 1;
nodes = (
"167 681 LINE",
"410 681 LINE SMOOTH",
"624 681 OFFCURVE",
"761 541 OFFCURVE",
"761 350 CURVE SMOOTH",
"761 159 OFFCURVE",
"624 19 OFFCURVE",
"410 19 CURVE SMOOTH",
"167 19 LINE"
);
}
);
width = 860;
},
{
anchors = (
{
name = bottom;
position = "{370, 0}";
},
{
name = center;
position = "{215, 355}";
},
{
name = hook.af;
position = "{66, 700}";
},
{
name = top;
position = "{368, 700}";
}
);
layerId = "5DA6E103-6A94-47F2-987D-4952DB8EA68E";
paths = (
{
closed = 1;
nodes = (
"411 0 LINE SMOOTH",
"645 0 OFFCURVE",
"806 133 OFFCURVE",
"806 350 CURVE SMOOTH",
"806 567 OFFCURVE",
"645 700 OFFCURVE",
"411 700 CURVE SMOOTH",
"66 700 LINE",
"66 0 LINE"
);
},
{
closed = 1;
nodes = (
"302 516 LINE",
"401 516 LINE SMOOTH",
"500 516 OFFCURVE",
"568 457 OFFCURVE",
"568 350 CURVE SMOOTH",
"568 243 OFFCURVE",
"500 184 OFFCURVE",
"401 184 CURVE SMOOTH",
"302 184 LINE"
);
}
);
width = 834;
},
{
anchors = (
{
name = bottom;
position = "{392, 0}";
},
{
name = center;
position = "{214, 356}";
},
{
name = hook.af;
position = "{111, 700}";
},
{
name = top;
position = "{388, 699}";
}
);
layerId = "708134FE-A11E-43C9-84F0-594DA15B6BD1";
paths = (
{
closed = 1;
nodes = (
"411 0 LINE SMOOTH",
"637 0 OFFCURVE",
"791 141 OFFCURVE",
"791 350 CURVE SMOOTH",
"791 559 OFFCURVE",
"637 700 OFFCURVE",
"411 700 CURVE SMOOTH",
"111 700 LINE",
"111 0 LINE"
);
},
{
closed = 1;
nodes = (
"225 601 LINE",
"405 601 LINE SMOOTH",
"570 601 OFFCURVE",
"676 501 OFFCURVE",
"676 350 CURVE SMOOTH",
"676 199 OFFCURVE",
"570 99 OFFCURVE",
"405 99 CURVE SMOOTH",
"225 99 LINE"
);
}
);
width = 847;
}
);
leftKerningGroup = H;
leftMetricsKey = H;
rightKerningGroup = O;
rightMetricsKey = O;
unicode = 0044;
},
{
color = 3;
glyphname = Dtopbar;
layers = (
{
background = {
components = (
{
name = B;
transform = "{-1, 0, 0, 1, 747, 0}";
}
);
};
layerId = UUID0;
paths = (
{
closed = 1;
nodes = (
"613 0 LINE",
"613 700 LINE",
"133 700 LINE",
"133 681 LINE",
"593 681 LINE",
"593 386 LINE",
"307 386 LINE SMOOTH",
"144 386 OFFCURVE",
"65 312 OFFCURVE",
"65 196 CURVE SMOOTH",
"65 76 OFFCURVE",
"148 0 OFFCURVE",
"318 0 CURVE SMOOTH"
);
},
{
closed = 1;
nodes = (
"158 19 OFFCURVE",
"85 87 OFFCURVE",
"85 195 CURVE SMOOTH",
"85 302 OFFCURVE",
"156 367 OFFCURVE",
"314 367 CURVE SMOOTH",
"593 367 LINE",
"593 19 LINE",
"314 19 LINE SMOOTH"
);
}
);
width = 760;
},
{
background = {
components = (
{
name = B;
transform = "{-1, 0, 0, 1, 761, 0}";
}
);
};
layerId = "708134FE-A11E-43C9-84F0-594DA15B6BD1";
paths = (
{
closed = 1;
nodes = (
"659 0 LINE",
"659 700 LINE",
"126 700 LINE",
"126 601 LINE",
"546 601 LINE",
"546 421 LINE",
"315 421 LINE SMOOTH",
"139 421 OFFCURVE",
"46 348 OFFCURVE",
"46 218 CURVE SMOOTH",
"46 81 OFFCURVE",
"148 0 OFFCURVE",
"315 0 CURVE SMOOTH"
);
},
{
closed = 1;
nodes = (
"218 93 OFFCURVE",
"161 143 OFFCURVE",
"161 216 CURVE SMOOTH",
"161 286 OFFCURVE",
"217 328 OFFCURVE",
"326 328 CURVE SMOOTH",
"546 328 LINE",
"546 93 LINE",
"326 93 LINE SMOOTH"
);
}
);
width = 770;
},
{
background = {
components = (
{
name = B;
transform = "{-1, 0, 0, 1, 767, 0}";
}
);
};
layerId = "5DA6E103-6A94-47F2-987D-4952DB8EA68E";
paths = (
{
closed = 1;
nodes = (
"711 0 LINE",
"711 700 LINE",
"103 700 LINE",
"103 535 LINE",
"479 535 LINE",
"479 435 LINE",
"284 435 LINE SMOOTH",
"113 435 OFFCURVE",
"21 351 OFFCURVE",
"21 218 CURVE SMOOTH",
"21 76 OFFCURVE",
"129 0 OFFCURVE",
"314 0 CURVE SMOOTH"
);
},
{
closed = 1;
nodes = (
"285 165 OFFCURVE",
"260 189 OFFCURVE",
"260 223 CURVE SMOOTH",
"260 256 OFFCURVE",
"285 280 OFFCURVE",
"334 280 CURVE SMOOTH",
"479 280 LINE",
"479 165 LINE",
"334 165 LINE SMOOTH"
);
}
);
width = 777;
}
);
rightMetricsKey = H;
unicode = 018B;
},
{
glyphname = E;
layers = (
{
anchors = (
{
name = bottom;
position = "{390, 0}";
},
{
name = ogonek;
position = "{613, 0}";
},
{
name = top;
position = "{373, 700}";
},
{
name = topleft;
position = "{55, 700}";
}
);
layerId = UUID0;
paths = (
{
closed = 1;
nodes = (
"613 0 LINE",
"613 19 LINE",
"167 19 LINE",
"167 681 LINE",
"598 681 LINE",
"598 700 LINE",
"147 700 LINE",
"147 0 LINE"
);
},
{
closed = 1;
nodes = (
"553 346 LINE",
"553 365 LINE",
"162 365 LINE",
"162 346 LINE"
);
}
);
width = 682;
},
{
anchors = (
{
name = bottom;
position = "{351, 0}";
},
{
name = ogonek;
position = "{648, 0}";
},
{
name = top;
position = "{351, 700}";
},
{
name = topleft;
position = "{0, 700}";
}
);
layerId = "5DA6E103-6A94-47F2-987D-4952DB8EA68E";
paths = (
{
closed = 1;
nodes = (
"648 0 LINE",
"648 178 LINE",
"298 178 LINE",
"298 522 LINE",
"635 522 LINE",
"635 700 LINE",
"66 700 LINE",
"66 0 LINE"
);
},
{
closed = 1;
nodes = (
"594 270 LINE",
"594 440 LINE",
"282 440 LINE",
"282 270 LINE"
);
}
);
width = 682;
},
{
anchors = (
{
name = bottom;
position = "{372, 0}";
},
{
name = ogonek;
position = "{627, 0}";
},
{
name = top;
position = "{363, 700}";
},
{
name = topleft;
position = "{30, 700}";
}
);
layerId = "708134FE-A11E-43C9-84F0-594DA15B6BD1";
paths = (
{
closed = 1;
nodes = (
"627 0 LINE",
"627 99 LINE",
"225 99 LINE",
"225 601 LINE",
"613 601 LINE",
"613 700 LINE",
"111 700 LINE",
"111 0 LINE"
);
},
{
closed = 1;
nodes = (
"570 307 LINE",
"570 404 LINE",
"216 404 LINE",
"216 307 LINE"
);
}
);
width = 681;
}
);
leftKerningGroup = H;
leftMetricsKey = H;
rightKerningGroup = E;
unicode = 0045;
},
{
color = 3;
glyphname = Esh;
layers = (
{
background = {
components = (
{
name = jdotless;
transform = "{1, 0, 0, 1, 86, 194}";
}
);
paths = (
{
closed = 1;
nodes = (
"161 170 LINE SMOOTH",
"161 114 OFFCURVE",
"124 90 OFFCURVE",
"83 90 CURVE SMOOTH",
"49 90 OFFCURVE",
"12 106 OFFCURVE",
"-9 134 CURVE",
"20 125 LINE",
"-41 -26 LINE",
"-40 40 LINE",
"-18 11 OFFCURVE",
"35 -8 OFFCURVE",
"90 -8 CURVE SMOOTH",
"178 -8 OFFCURVE",
"275 39 OFFCURVE",
"275 169 CURVE SMOOTH",
"275 530 LINE SMOOTH",
"275 586 OFFCURVE",
"312 610 OFFCURVE",
"353 610 CURVE SMOOTH",
"387 610 OFFCURVE",
"424 594 OFFCURVE",
"445 566 CURVE",
"416 575 LINE",
"476 726 LINE",
"476 660 LINE",
"455 690 OFFCURVE",
"404 709 OFFCURVE",
"349 709 CURVE SMOOTH",
"260 709 OFFCURVE",
"161 660 OFFCURVE",
"161 531 CURVE SMOOTH"
);
}
);
};
layerId = UUID0;
paths = (
{
closed = 1;
nodes = (
"166 -3 OFFCURVE",
"226 33 OFFCURVE",
"226 124 CURVE SMOOTH",
"226 576 LINE SMOOTH",
"226 654 OFFCURVE",
"275 684 OFFCURVE",
"327 684 CURVE SMOOTH",
"362 684 OFFCURVE",
"399 670 OFFCURVE",
"422 648 CURVE",
"401 656 LINE",
"415 686 LINE",
"436 662 LINE",
"410 688 OFFCURVE",
"369 703 OFFCURVE",
"328 703 CURVE SMOOTH",
"266 703 OFFCURVE",
"206 667 OFFCURVE",
"206 576 CURVE SMOOTH",
"206 124 LINE SMOOTH",
"206 46 OFFCURVE",
"157 16 OFFCURVE",
"105 16 CURVE SMOOTH",
"70 16 OFFCURVE",
"33 30 OFFCURVE",
"10 52 CURVE",
"31 44 LINE",
"17 14 LINE",
"-4 38 LINE",
"22 12 OFFCURVE",
"63 -3 OFFCURVE",
"104 -3 CURVE SMOOTH"
);
}
);
width = 432;
},
{
background = {
components = (
{
name = jdotless;
transform = "{-1, 0, 0, -1, 365, 505}";
}
);
paths = (
{
closed = 1;
nodes = (
"163 -37 LINE SMOOTH",
"163 -96 OFFCURVE",
"135 -126 OFFCURVE",
"83 -126 CURVE SMOOTH",
"44 -126 OFFCURVE",
"10 -107 OFFCURVE",
"-9 -82 CURVE",
"50 -82 LINE",
"-8 -233 LINE",
"-40 -167 LINE",
"-16 -201 OFFCURVE",
"35 -216 OFFCURVE",
"89 -216 CURVE SMOOTH",
"208 -216 OFFCURVE",
"273 -146 OFFCURVE",
"273 -38 CURVE SMOOTH",
"273 569 LINE SMOOTH",
"273 628 OFFCURVE",
"301 658 OFFCURVE",
"353 658 CURVE SMOOTH",
"392 658 OFFCURVE",
"426 639 OFFCURVE",
"445 614 CURVE",
"386 614 LINE",
"444 765 LINE",
"476 699 LINE",
"452 733 OFFCURVE",
"401 748 OFFCURVE",
"347 748 CURVE SMOOTH",
"228 748 OFFCURVE",
"163 678 OFFCURVE",
"163 570 CURVE SMOOTH"
);
}
);
};
layerId = "708134FE-A11E-43C9-84F0-594DA15B6BD1";
paths = (
{
closed = 1;
nodes = (
"178 -8 OFFCURVE",
"275 39 OFFCURVE",
"275 169 CURVE SMOOTH",
"275 530 LINE SMOOTH",
"275 586 OFFCURVE",
"312 610 OFFCURVE",
"353 610 CURVE SMOOTH",
"387 610 OFFCURVE",
"424 594 OFFCURVE",
"445 566 CURVE",
"416 575 LINE",
"476 726 LINE",
"476 660 LINE",
"455 690 OFFCURVE",
"404 709 OFFCURVE",
"349 709 CURVE SMOOTH",
"260 709 OFFCURVE",
"161 660 OFFCURVE",
"161 531 CURVE SMOOTH",
"161 170 LINE SMOOTH",
"161 114 OFFCURVE",
"124 90 OFFCURVE",
"83 90 CURVE SMOOTH",
"49 90 OFFCURVE",
"12 106 OFFCURVE",
"-9 134 CURVE",
"20 125 LINE",
"-41 -26 LINE",
"-40 40 LINE",
"-18 11 OFFCURVE",
"35 -8 OFFCURVE",
"90 -8 CURVE SMOOTH"
);
}
);
width = 436;
},
{
background = {
paths = (
{
closed = 1;
nodes = (
"277 -12 OFFCURVE",
"365 79 OFFCURVE",
"365 220 CURVE SMOOTH",
"365 478 LINE SMOOTH",
"365 522 OFFCURVE",
"380 541 OFFCURVE",
"412 541 CURVE SMOOTH",
"454 541 OFFCURVE",
"496 508 OFFCURVE",
"500 507 CURVE",
"452 497 LINE",
"536 740 LINE",
"549 650 LINE",
"540 691 OFFCURVE",
"456 712 OFFCURVE",
"383 712 CURVE SMOOTH",
"227 712 OFFCURVE",
"139 621 OFFCURVE",
"139 480 CURVE SMOOTH",
"139 222 LINE SMOOTH",
"139 178 OFFCURVE",
"124 159 OFFCURVE",
"92 159 CURVE SMOOTH",
"50 159 OFFCURVE",
"8 192 OFFCURVE",
"4 193 CURVE",
"55 211 LINE",
"-24 -15 LINE",
"-29 26 LINE",
"1 1 OFFCURVE",
"64 -12 OFFCURVE",
"121 -12 CURVE SMOOTH"
);
}
);
};
layerId = "5DA6E103-6A94-47F2-987D-4952DB8EA68E";
paths = (
{
closed = 1;
nodes = (
"245 -16 OFFCURVE",
"372 44 OFFCURVE",
"371 231 CURVE SMOOTH",
"370 473 LINE SMOOTH",
"368 507 OFFCURVE",
"384 529 OFFCURVE",
"416 529 CURVE SMOOTH",
"438 529 OFFCURVE",
"469 519 OFFCURVE",
"503 494 CURVE",
"463 479 LINE",
"542 735 LINE",
"558 641 LINE",
"540 683 OFFCURVE",
"462 716 OFFCURVE",
"375 716 CURVE SMOOTH",
"259 716 OFFCURVE",
"132 656 OFFCURVE",
"133 469 CURVE SMOOTH",
"134 227 LINE SMOOTH",
"136 193 OFFCURVE",
"120 171 OFFCURVE",
"88 171 CURVE SMOOTH",
"66 171 OFFCURVE",
"35 181 OFFCURVE",
"1 206 CURVE",
"41 221 LINE",
"-38 -35 LINE",
"-54 59 LINE",
"-36 17 OFFCURVE",
"42 -16 OFFCURVE",
"129 -16 CURVE SMOOTH"
);
}
);
width = 504;
}
);
unicode = 01A9;
},
{
color = 4;
glyphname = Estroke;
layers = (
{
components = (
{
name = E;
}
);
layerId = UUID0;
paths = (
{
closed = 1;
nodes = (
"171 -70 LINE",
"561 770 LINE",
"539 770 LINE",
"149 -70 LINE"
);
}
);
width = 668;
},
{
components = (
{
alignment = -1;
name = E;
}
);
layerId = "708134FE-A11E-43C9-84F0-594DA15B6BD1";
paths = (
{
closed = 1;
nodes = (
"228 -70 LINE",
"589 770 LINE",
"519 770 LINE",
"157 -70 LINE"
);
}
);
width = 670;
},
{
components = (
{
name = E;
}
);
layerId = "5DA6E103-6A94-47F2-987D-4952DB8EA68E";
paths = (
{
closed = 1;
nodes = (
"301 -71 LINE",
"637 769 LINE",
"527 769 LINE",
"191 -71 LINE"
);
}
);
width = 673;
}
);
unicode = 0246;
},
{
glyphname = Schwa;
layers = (
{
anchors = (
{
name = bottom;
position = "{429, 0}";
},
{
name = top;
position = "{429, 700}";
}
);
layerId = UUID0;
paths = (
{
closed = 1;
nodes = (
"622 -3 OFFCURVE",
"777 157 OFFCURVE",
"777 351 CURVE SMOOTH",
"777 552 OFFCURVE",
"623 703 OFFCURVE",
"418 703 CURVE SMOOTH",
"324 703 OFFCURVE",
"239 675 OFFCURVE",
"176 618 CURVE",
"187 603 LINE",
"254 661 OFFCURVE",
"331 684 OFFCURVE",
"418 684 CURVE SMOOTH",
"610 684 OFFCURVE",
"757 539 OFFCURVE",
"757 351 CURVE SMOOTH",
"757 349 LINE SMOOTH",
"757 162 OFFCURVE",
"607 16 OFFCURVE",
"428 16 CURVE SMOOTH",
"239 16 OFFCURVE",
"99 161 OFFCURVE",
"99 350 CURVE",
"91 341 LINE",
"762 341 LINE",
"762 360 LINE",
"79 360 LINE",
"79 350 LINE SMOOTH",
"79 148 OFFCURVE",
"227 -3 OFFCURVE",
"428 -3 CURVE SMOOTH"
);
}
);
width = 856;
},
{
anchors = (
{
name = bottom;
position = "{408, 0}";
},
{
name = top;
position = "{408, 700}";
}
);
layerId = "5DA6E103-6A94-47F2-987D-4952DB8EA68E";
paths = (
{
closed = 1;
nodes = (
"627 -16 OFFCURVE",
"788 133 OFFCURVE",
"788 350 CURVE SMOOTH",
"788 565 OFFCURVE",
"623 716 OFFCURVE",
"388 716 CURVE SMOOTH",
"261 716 OFFCURVE",
"134 658 OFFCURVE",
"68 586 CURVE",
"207 443 LINE",
"250 495 OFFCURVE",
"331 525 OFFCURVE",
"386 525 CURVE SMOOTH",
"484 525 OFFCURVE",
"550 457 OFFCURVE",
"550 360 CURVE SMOOTH",
"550 310 LINE SMOOTH",
"550 215 OFFCURVE",
"502 157 OFFCURVE",
"408 157 CURVE SMOOTH",
"314 157 OFFCURVE",
"266 215 OFFCURVE",
"266 310 CURVE",
"190 268 LINE",
"575 268 LINE",
"575 398 LINE",
"28 398 LINE",
"28 360 LINE SMOOTH",
"28 133 OFFCURVE",
"183 -16 OFFCURVE",
"408 -16 CURVE SMOOTH"
);
}
);
width = 816;
},
{
anchors = (
{
name = bottom;
position = "{419, 0}";
},
{
name = top;
position = "{419, 700}";
}
);
layerId = "708134FE-A11E-43C9-84F0-594DA15B6BD1";
paths = (
{
closed = 1;
nodes = (
"627 -9 OFFCURVE",
"781 143 OFFCURVE",
"781 351 CURVE SMOOTH",
"781 557 OFFCURVE",
"627 709 OFFCURVE",
"414 709 CURVE SMOOTH",
"296 709 OFFCURVE",
"192 669 OFFCURVE",
"126 604 CURVE",
"195 525 LINE",
"251 580 OFFCURVE",
"330 607 OFFCURVE",
"413 607 CURVE SMOOTH",
"554 607 OFFCURVE",
"666 499 OFFCURVE",
"666 355 CURVE SMOOTH",
"666 344 LINE SMOOTH",
"666 192 OFFCURVE",
"568 90 OFFCURVE",
"419 90 CURVE SMOOTH",
"270 90 OFFCURVE",
"170 192 OFFCURVE",
"170 350 CURVE",
"133 289 LINE",
"679 289 LINE",
"679 386 LINE",
"56 386 LINE",
"56 355 LINE SMOOTH",
"56 144 OFFCURVE",
"210 -9 OFFCURVE",
"419 -9 CURVE SMOOTH"
);
}
);
width = 837;
}
);
leftKerningGroup = O;
leftMetricsKey = O;
rightKerningGroup = O;
rightMetricsKey = O;
unicode = 018F;
},
{
color = 3;
glyphname = Ezhreversed;
layers = (
{
anchors = (
{
name = bottom;
position = "{300, 0}";
},
{
name = top;
position = "{300, 700}";
}
);
layerId = UUID0;
paths = (
{
closed = 1;
nodes = (
"423 -3 OFFCURVE",
"521 38 OFFCURVE",
"565 96 CURVE",
"552 109 LINE",
"510 57 OFFCURVE",
"421 16 OFFCURVE",
"309 16 CURVE SMOOTH",
"164 16 OFFCURVE",
"86 85 OFFCURVE",
"86 192 CURVE SMOOTH",
"86 299 OFFCURVE",
"162 368 OFFCURVE",
"325 368 CURVE SMOOTH",
"365 368 LINE",
"365 383 LINE",
"116 688 LINE",
"114 681 LINE",
"542 681 LINE",
"542 700 LINE",
"94 700 LINE",
"94 685 LINE",
"343 380 LINE",
"342 387 LINE",
"326 387 LINE SMOOTH",
"151 387 OFFCURVE",
"66 308 OFFCURVE",
"66 192 CURVE SMOOTH",
"66 76 OFFCURVE",
"152 -3 OFFCURVE",
"310 -3 CURVE SMOOTH"
);
}
);
width = 599;
},
{
anchors = (
{
name = bottom;
position = "{314, 0}";
},
{
name = top;
position = "{314, 700}";
}
);
layerId = "708134FE-A11E-43C9-84F0-594DA15B6BD1";
paths = (
{
closed = 1;
nodes = (
"436 -9 OFFCURVE",
"539 22 OFFCURVE",
"597 72 CURVE",
"556 164 LINE",
"505 120 OFFCURVE",
"422 91 OFFCURVE",
"332 91 CURVE SMOOTH",
"222 91 OFFCURVE",
"159 135 OFFCURVE",
"159 208 CURVE SMOOTH",
"159 277 OFFCURVE",
"215 321 OFFCURVE",
"337 321 CURVE SMOOTH",
"404 321 LINE",
"404 409 LINE",
"177 655 LINE",
"167 603 LINE",
"570 603 LINE",
"570 700 LINE",
"80 700 LINE",
"80 622 LINE",
"306 376 LINE",
"352 410 LINE",
"316 410 LINE SMOOTH",
"137 410 OFFCURVE",
"47 327 OFFCURVE",
"47 208 CURVE SMOOTH",
"47 89 OFFCURVE",
"138 -9 OFFCURVE",
"329 -9 CURVE SMOOTH"
);
}
);
width = 628;
},
{
anchors = (
{
name = bottom;
position = "{327, 0}";
},
{
name = top;
position = "{327, 700}";
}
);
layerId = "5DA6E103-6A94-47F2-987D-4952DB8EA68E";
paths = (
{
closed = 1;
nodes = (
"452 -16 OFFCURVE",
"562 5 OFFCURVE",
"638 47 CURVE",
"562 221 LINE",
"499 186 OFFCURVE",
"424 170 OFFCURVE",
"362 170 CURVE SMOOTH",
"302 170 OFFCURVE",
"260 188 OFFCURVE",
"260 224 CURVE SMOOTH",
"260 254 OFFCURVE",
"288 272 OFFCURVE",
"353 272 CURVE SMOOTH",
"451 272 LINE",
"451 417 LINE",
"256 601 LINE",
"235 522 LINE",
"605 522 LINE",
"605 700 LINE",
"62 700 LINE",
"62 555 LINE",
"257 371 LINE",
"366 435 LINE",
"304 435 LINE SMOOTH",
"120 435 OFFCURVE",
"22 347 OFFCURVE",
"22 225 CURVE SMOOTH",
"22 103 OFFCURVE",
"121 -16 OFFCURVE",
"354 -16 CURVE SMOOTH"
);
}
);
width = 654;
}
);
unicode = 01B8;
},
{
glyphname = F;
layers = (
{
layerId = UUID0;
paths = (
{
closed = 1;
nodes = (
"167 0 LINE",
"167 681 LINE",
"598 681 LINE",
"598 700 LINE",
"147 700 LINE",
"147 0 LINE"
);
},
{
closed = 1;
nodes = (
"553 326 LINE",
"553 345 LINE",
"162 345 LINE",
"162 326 LINE"
);
}
);
width = 643;
},
{
layerId = "5DA6E103-6A94-47F2-987D-4952DB8EA68E";
paths = (
{
closed = 1;
nodes = (
"302 0 LINE",
"302 522 LINE",
"635 522 LINE",
"635 700 LINE",
"66 700 LINE",
"66 0 LINE"
);
},
{
closed = 1;
nodes = (
"594 224 LINE",
"594 402 LINE",
"286 402 LINE",
"286 224 LINE"
);
}
);
width = 653;
},
{
layerId = "708134FE-A11E-43C9-84F0-594DA15B6BD1";
paths = (
{
closed = 1;
nodes = (
"225 0 LINE",
"225 601 LINE",
"613 601 LINE",
"613 700 LINE",
"111 700 LINE",
"111 0 LINE"
);
},
{
closed = 1;
nodes = (
"570 275 LINE",
"570 374 LINE",
"215 374 LINE",
"215 275 LINE"
);
}
);
width = 647;
}
);
leftKerningGroup = H;
leftMetricsKey = H;
rightKerningGroup = F;
unicode = 0046;
},
{
color = 3;
glyphname = Fhook;
layers = (
{
layerId = UUID0;
paths = (
{
closed = 1;
nodes = (
"34 -228 OFFCURVE",
"179 -201 OFFCURVE",
"179 -79 CURVE SMOOTH",
"179 681 LINE",
"610 681 LINE",
"610 700 LINE",
"159 700 LINE",
"159 -74 LINE SMOOTH",
"159 -182 OFFCURVE",
"43 -204 OFFCURVE",
"-33 -145 CURVE",
"-45 -160 LINE"
);
},
{
closed = 1;
nodes = (
"565 326 LINE",
"565 345 LINE",
"174 345 LINE",
"174 326 LINE"
);
}
);
width = 646;
},
{
layerId = "708134FE-A11E-43C9-84F0-594DA15B6BD1";
paths = (
{
closed = 1;
nodes = (
"66 -239 OFFCURVE",
"242 -198 OFFCURVE",
"242 -31 CURVE SMOOTH",
"242 601 LINE",
"630 601 LINE",
"630 700 LINE",
"128 700 LINE",
"128 -27 LINE SMOOTH",
"128 -108 OFFCURVE",
"44 -127 OFFCURVE",
"-22 -85 CURVE",
"-54 -168 LINE"
);
},
{
closed = 1;
nodes = (
"587 275 LINE",
"587 374 LINE",
"232 374 LINE",
"232 275 LINE"
);
}
);
width = 669;
},
{
layerId = "5DA6E103-6A94-47F2-987D-4952DB8EA68E";
paths = (
{
closed = 1;
nodes = (
"176 -249 OFFCURVE",
"392 -194 OFFCURVE",
"392 20 CURVE SMOOTH",
"392 522 LINE",
"725 522 LINE",
"725 700 LINE",
"156 700 LINE",
"156 23 LINE SMOOTH",
"156 -30 OFFCURVE",
"110 -45 OFFCURVE",
"57 -20 CURVE",
"3 -177 LINE"
);
},
{
closed = 1;
nodes = (
"684 224 LINE",
"684 402 LINE",
"376 402 LINE",
"376 224 LINE"
);
}
);
width = 752;
}
);
leftMetricsKey = Nhookleft;
unicode = 0191;
},
{
glyphname = G;
layers = (
{
anchors = (
{
name = bottom;
position = "{422, 0}";
},
{
name = top;
position = "{422, 699}";
}
);
guideLines = (
{
angle = 90;
position = "{441, 328}";
}
);
layerId = UUID0;
paths = (
{
closed = 1;
nodes = (
"536 -3 OFFCURVE",
"622 27 OFFCURVE",
"682 87 CURVE",
"670 102 LINE",
"609 40 OFFCURVE",
"529 16 OFFCURVE",
"441 16 CURVE SMOOTH",
"245 16 OFFCURVE",
"99 161 OFFCURVE",
"99 350 CURVE SMOOTH",
"99 539 OFFCURVE",
"245 684 OFFCURVE",
"441 684 CURVE SMOOTH",
"529 684 OFFCURVE",
"606 661 OFFCURVE",
"670 600 CURVE",
"682 614 LINE",
"622 674 OFFCURVE",
"536 703 OFFCURVE",
"441 703 CURVE SMOOTH",
"233 703 OFFCURVE",
"79 552 OFFCURVE",
"79 350 CURVE SMOOTH",
"79 148 OFFCURVE",
"233 -3 OFFCURVE",
"441 -3 CURVE SMOOTH"
);
},
{
closed = 1;
nodes = (
"682 343 LINE",
"663 343 LINE",
"663 89 LINE",
"682 87 LINE"
);
}
);
width = 794;
},
{
anchors = (
{
name = bottom;
position = "{409, 0}";
},
{
name = top;
position = "{423, 701}";
}
);
guideLines = (
{
angle = 90;
position = "{424, 328}";
}
);
layerId = "5DA6E103-6A94-47F2-987D-4952DB8EA68E";
paths = (
{
closed = 1;
nodes = (
"522 -16 OFFCURVE",
"639 15 OFFCURVE",
"724 73 CURVE",
"592 235 LINE",
"535 191 OFFCURVE",
"486 175 OFFCURVE",
"433 175 CURVE SMOOTH",
"332 175 OFFCURVE",
"266 245 OFFCURVE",
"266 350 CURVE SMOOTH",
"266 458 OFFCURVE",
"332 525 OFFCURVE",
"436 525 CURVE SMOOTH",
"498 525 OFFCURVE",
"549 499 OFFCURVE",
"593 448 CURVE",
"744 581 LINE",
"673 668 OFFCURVE",
"562 716 OFFCURVE",
"424 716 CURVE SMOOTH",
"193 716 OFFCURVE",
"28 565 OFFCURVE",
"28 350 CURVE SMOOTH",
"28 135 OFFCURVE",
"193 -16 OFFCURVE",
"419 -16 CURVE SMOOTH"
);
},
{
closed = 1;
nodes = (
"724 369 LINE",
"519 369 LINE",
"519 103 LINE",
"724 73 LINE"
);
}
);
width = 768;
},
{
anchors = (
{
name = bottom;
position = "{415, 0}";
},
{
name = top;
position = "{422, 700}";
}
);
guideLines = (
{
angle = 90;
position = "{435, 328}";
}
);
layerId = "708134FE-A11E-43C9-84F0-594DA15B6BD1";
paths = (
{
closed = 1;
nodes = (
"529 -9 OFFCURVE",
"629 21 OFFCURVE",
"700 80 CURVE",
"635 167 LINE",
"576 113 OFFCURVE",
"509 93 OFFCURVE",
"437 93 CURVE SMOOTH",
"282 93 OFFCURVE",
"171 202 OFFCURVE",
"171 350 CURVE SMOOTH",
"171 500 OFFCURVE",
"282 607 OFFCURVE",
"438 607 CURVE SMOOTH",
"515 607 OFFCURVE",
"580 582 OFFCURVE",
"636 526 CURVE",
"708 598 LINE",
"643 671 OFFCURVE",
"547 709 OFFCURVE",
"433 709 CURVE SMOOTH",
"215 709 OFFCURVE",
"56 558 OFFCURVE",
"56 350 CURVE SMOOTH",
"56 142 OFFCURVE",
"215 -9 OFFCURVE",
"431 -9 CURVE SMOOTH"
);
},
{
closed = 1;
nodes = (
"700 356 LINE",
"590 356 LINE",
"590 95 LINE",
"700 80 LINE"
);
}
);
width = 782;
}
);
leftKerningGroup = O;
leftMetricsKey = O;
rightKerningGroup = G;
unicode = 0047;
},
{
color = 3;
glyphname = Ghook;
layers = (
{
background = {
components = (
{
name = G;
transform = "{1, 0, 0, 1, 20, 0}";
}
);
paths = (
{
closed = 1;
nodes = (
"682 614 LINE",
"682 708 LINE SMOOTH",
"682 805 OFFCURVE",
"764 833 OFFCURVE",
"841 776 CURVE",
"830 774 LINE",
"852 803 LINE",
"855 790 LINE",
"774 857 OFFCURVE",
"663 831 OFFCURVE",
"663 707 CURVE SMOOTH",
"663 614 LINE"
);
}
);
};
components = (
{
name = G;
transform = "{1, 0, 0, 1, 20, 0}";
}
);
layerId = UUID0;
paths = (
{
closed = 1;
nodes = (
"682 614 LINE",
"682 684 LINE SMOOTH",
"682 774 OFFCURVE",
"743 817 OFFCURVE",
"819 778 CURVE",
"808 772 LINE",
"822 802 LINE",
"825 796 LINE",
"742 837 OFFCURVE",
"662 794 OFFCURVE",
"662 684 CURVE SMOOTH",
"662 614 LINE"
);
}
);
width = 797;
},
{
components = (
{
name = G;
transform = "{1, 0, 0, 1, 10, 0}";
}
);
guideLines = (
{
position = "{735, 862}";
}
);
layerId = "708134FE-A11E-43C9-84F0-594DA15B6BD1";
paths = (
{
closed = 1;
nodes = (
"708 598 LINE",
"708 673 LINE SMOOTH",
"708 752 OFFCURVE",
"802 771 OFFCURVE",
"853 714 CURVE",
"806 700 LINE",
"845 855 LINE",
"890 796 LINE",
"780 876 OFFCURVE",
"604 845 OFFCURVE",
"604 673 CURVE SMOOTH",
"604 598 LINE"
);
}
);
width = 830;
},
{
components = (
{
name = G;
transform = "{1, 0, 0, 1, -1, 0}";
}
);
guideLines = (
{
position = "{724, 862}";
}
);
layerId = "5DA6E103-6A94-47F2-987D-4952DB8EA68E";
paths = (
{
closed = 1;
nodes = (
"744 581 LINE",
"744 652 LINE SMOOTH",
"744 703 OFFCURVE",
"800 709 OFFCURVE",
"838 679 CURVE",
"805 653 LINE",
"873 889 LINE",
"926 800 LINE",
"785 908 OFFCURVE",
"554 881 OFFCURVE",
"554 669 CURVE SMOOTH",
"554 576 LINE"
);
}
);
width = 843;
}
);
unicode = 0193;
},
{
color = 3;
glyphname = Glottalstop;
layers = (
{
anchors = (
{
name = bottom;
position = "{231, 0}";
},
{
name = top;
position = "{231, 700}";
}
);
background = {
paths = (
{
closed = 1;
nodes = (
"221 0 LINE",
"241 0 LINE",
"241 188 LINE SMOOTH",
"241 343 OFFCURVE",
"488 333 OFFCURVE",
"488 510 CURVE SMOOTH",
"488 628 OFFCURVE",
"405 703 OFFCURVE",
"228 703 CURVE SMOOTH",
"92 703 OFFCURVE",
"17 642 OFFCURVE",
"-35 584 CURVE",
"-21 570 LINE",
"30 627 OFFCURVE",
"98 684 OFFCURVE",
"228 684 CURVE SMOOTH",
"403 684 OFFCURVE",
"468 611 OFFCURVE",
"468 511 CURVE SMOOTH",
"468 342 OFFCURVE",
"221 358 OFFCURVE",
"221 188 CURVE SMOOTH"
);
}
);
};
layerId = UUID0;
paths = (
{
closed = 1;
nodes = (
"241 0 LINE",
"241 143 LINE SMOOTH",
"241 338 OFFCURVE",
"488 316 OFFCURVE",
"488 512 CURVE SMOOTH",
"488 649 OFFCURVE",
"366 703 OFFCURVE",
"239 703 CURVE SMOOTH",
"131 703 OFFCURVE",
"21 665 OFFCURVE",
"-35 583 CURVE",
"-20 570 LINE",
"32 648 OFFCURVE",
"137 684 OFFCURVE",
"239 684 CURVE SMOOTH",
"355 684 OFFCURVE",
"468 637 OFFCURVE",
"468 512 CURVE SMOOTH",
"468 326 OFFCURVE",
"221 354 OFFCURVE",
"221 143 CURVE SMOOTH",
"221 0 LINE"
);
}
);
width = 518;
},
{
anchors = (
{
name = bottom;
position = "{245, 0}";
},
{
name = top;
position = "{245, 700}";
}
);
background = {
paths = (
{
closed = 1;
nodes = (
"187 0 LINE",
"302 0 LINE",
"302 180 LINE SMOOTH",
"302 336 OFFCURVE",
"525 348 OFFCURVE",
"525 509 CURVE SMOOTH",
"525 644 OFFCURVE",
"396 710 OFFCURVE",
"255 710 CURVE SMOOTH",
"137 710 OFFCURVE",
"11 664 OFFCURVE",
"-60 571 CURVE",
"24 512 LINE",
"79 584 OFFCURVE",
"158 611 OFFCURVE",
"231 611 CURVE SMOOTH",
"336 611 OFFCURVE",
"410 581 OFFCURVE",
"410 509 CURVE SMOOTH",
"410 399 OFFCURVE",
"187 385 OFFCURVE",
"187 180 CURVE SMOOTH"
);
}
);
};
layerId = "708134FE-A11E-43C9-84F0-594DA15B6BD1";
paths = (
{
closed = 1;
nodes = (
"301 0 LINE",
"301 154 LINE SMOOTH",
"301 299 OFFCURVE",
"555 289 OFFCURVE",
"555 487 CURVE SMOOTH",
"555 635 OFFCURVE",
"412 709 OFFCURVE",
"261 709 CURVE SMOOTH",
"142 709 OFFCURVE",
"30 663 OFFCURVE",
"-38 571 CURVE",
"53 506 LINE",
"98 578 OFFCURVE",
"182 610 OFFCURVE",
"262 610 CURVE SMOOTH",
"351 610 OFFCURVE",
"440 571 OFFCURVE",
"440 486 CURVE SMOOTH",
"440 342 OFFCURVE",
"187 364 OFFCURVE",
"187 160 CURVE SMOOTH",
"187 0 LINE"
);
}
);
width = 565;
},
{
anchors = (
{
name = bottom;
position = "{328, 0}";
},
{
name = top;
position = "{338, 700}";
}
);
background = {
paths = (
{
closed = 1;
nodes = (
"235 0 LINE",
"441 0 LINE",
"441 211 LINE SMOOTH",
"441 335 OFFCURVE",
"641 356 OFFCURVE",
"641 509 CURVE SMOOTH",
"641 650 OFFCURVE",
"489 715 OFFCURVE",
"328 715 CURVE SMOOTH",
"155 715 OFFCURVE",
"26 661 OFFCURVE",
"-25 553 CURVE",
"153 464 LINE",
"168 508 OFFCURVE",
"211 532 OFFCURVE",
"297 532 CURVE SMOOTH",
"355 532 OFFCURVE",
"404 514 OFFCURVE",
"404 480 CURVE SMOOTH",
"404 408 OFFCURVE",
"235 404 OFFCURVE",
"235 211 CURVE SMOOTH"
);
}
);
};
layerId = "5DA6E103-6A94-47F2-987D-4952DB8EA68E";
paths = (
{
closed = 1;
nodes = (
"446 0 LINE",
"446 159 LINE SMOOTH",
"446 284 OFFCURVE",
"641 284 OFFCURVE",
"641 472 CURVE SMOOTH",
"641 643 OFFCURVE",
"478 716 OFFCURVE",
"314 716 CURVE SMOOTH",
"170 716 OFFCURVE",
"25 659 OFFCURVE",
"-25 553 CURVE",
"153 464 LINE",
"188 512 OFFCURVE",
"244 534 OFFCURVE",
"295 534 CURVE SMOOTH",
"353 534 OFFCURVE",
"404 505 OFFCURVE",
"404 457 CURVE SMOOTH",
"404 363 OFFCURVE",
"210 373 OFFCURVE",
"210 181 CURVE SMOOTH",
"210 0 LINE"
);
}
);
width = 641;
}
);
unicode = 0241;
},
{
color = 4;
glyphname = Gstroke;
layers = (
{
anchors = (
{
name = bottom;
position = "{422, 0}";
},
{
name = top;
position = "{422, 699}";
}
);
guideLines = (
{
angle = 90;
position = "{451, 328}";
}
);
layerId = UUID0;
paths = (
{
closed = 1;
nodes = (
"536 -3 OFFCURVE",
"622 27 OFFCURVE",
"682 87 CURVE",
"670 102 LINE",
"609 40 OFFCURVE",
"529 16 OFFCURVE",
"441 16 CURVE SMOOTH",
"245 16 OFFCURVE",
"99 161 OFFCURVE",
"99 350 CURVE SMOOTH",
"99 539 OFFCURVE",
"245 684 OFFCURVE",
"441 684 CURVE SMOOTH",
"529 684 OFFCURVE",
"606 661 OFFCURVE",
"670 600 CURVE",
"682 614 LINE",
"622 674 OFFCURVE",
"536 703 OFFCURVE",
"441 703 CURVE SMOOTH",
"233 703 OFFCURVE",
"79 552 OFFCURVE",
"79 350 CURVE SMOOTH",
"79 148 OFFCURVE",
"233 -3 OFFCURVE",
"441 -3 CURVE SMOOTH"
);
},
{
closed = 1;
nodes = (
"784 224 LINE",
"784 243 LINE",
"424 243 LINE",
"424 224 LINE"
);
},
{
closed = 1;
nodes = (
"682 87 LINE",
"682 343 LINE",
"663 343 LINE",
"663 87 LINE"
);
}
);
width = 824;
},
{
anchors = (
{
name = bottom;
position = "{409, 0}";
},
{
name = top;
position = "{423, 701}";
}
);
guideLines = (
{
angle = 90;
position = "{399, 328}";
}
);
layerId = "5DA6E103-6A94-47F2-987D-4952DB8EA68E";
paths = (
{
closed = 1;
nodes = (
"522 -16 OFFCURVE",
"639 15 OFFCURVE",
"724 73 CURVE",
"592 235 LINE",
"535 191 OFFCURVE",
"486 175 OFFCURVE",
"433 175 CURVE SMOOTH",
"332 175 OFFCURVE",
"266 245 OFFCURVE",
"266 350 CURVE SMOOTH",
"266 458 OFFCURVE",
"332 525 OFFCURVE",
"436 525 CURVE SMOOTH",
"498 525 OFFCURVE",
"549 499 OFFCURVE",
"593 448 CURVE",
"744 581 LINE",
"673 668 OFFCURVE",
"562 716 OFFCURVE",
"424 716 CURVE SMOOTH",
"193 716 OFFCURVE",
"28 565 OFFCURVE",
"28 350 CURVE SMOOTH",
"28 135 OFFCURVE",
"193 -16 OFFCURVE",
"419 -16 CURVE SMOOTH"
);
},
{
closed = 1;
nodes = (
"724 379 LINE",
"519 379 LINE",
"519 103 LINE",
"724 73 LINE"
);
},
{
closed = 1;
nodes = (
"797 217 LINE",
"797 342 LINE",
"394 342 LINE",
"394 217 LINE"
);
}
);
width = 815;
},
{
anchors = (
{
name = bottom;
position = "{415, 0}";
},
{
name = top;
position = "{422, 700}";
}
);
guideLines = (
{
angle = 90;
position = "{408, 326}";
}
);
layerId = "708134FE-A11E-43C9-84F0-594DA15B6BD1";
paths = (
{
closed = 1;
nodes = (
"529 -9 OFFCURVE",
"629 21 OFFCURVE",
"700 80 CURVE",
"635 167 LINE",
"576 113 OFFCURVE",
"509 93 OFFCURVE",
"437 93 CURVE SMOOTH",
"282 93 OFFCURVE",
"171 202 OFFCURVE",
"171 350 CURVE SMOOTH",
"171 500 OFFCURVE",
"282 607 OFFCURVE",
"438 607 CURVE SMOOTH",
"515 607 OFFCURVE",
"580 582 OFFCURVE",
"636 526 CURVE",
"708 598 LINE",
"643 671 OFFCURVE",
"547 709 OFFCURVE",
"433 709 CURVE SMOOTH",
"215 709 OFFCURVE",
"56 558 OFFCURVE",
"56 350 CURVE SMOOTH",
"56 142 OFFCURVE",
"215 -9 OFFCURVE",
"431 -9 CURVE SMOOTH"
);
},
{
closed = 1;
nodes = (
"791 208 LINE",
"791 296 LINE",
"408 296 LINE",
"408 208 LINE"
);
},
{
closed = 1;
nodes = (
"700 356 LINE",
"590 356 LINE",
"590 95 LINE",
"700 80 LINE"
);
}
);
width = 819;
}
);
leftKerningGroup = O;
leftMetricsKey = "=O";
rightKerningGroup = G;
unicode = 01E4;
},
{
color = 3;
glyphname = Yogh;
layers = (
{
background = {
paths = (
{
closed = 1;
nodes = (
"35 -194 LINE",
"250 -194 OFFCURVE",
"556 -121 OFFCURVE",
"556 115 CURVE SMOOTH",
"556 259 OFFCURVE",
"439 333 OFFCURVE",
"295 303 CURVE",
"294 290 LINE",
"456 326 OFFCURVE",
"522 433 OFFCURVE",
"522 528 CURVE SMOOTH",
"522 643 OFFCURVE",
"425 702 OFFCURVE",
"309 702 CURVE SMOOTH",
"215 702 OFFCURVE",
"107 663 OFFCURVE",
"25 582 CURVE",
"38 567 LINE",
"122 647 OFFCURVE",
"209 683 OFFCURVE",
"305 683 CURVE SMOOTH",
"443 683 OFFCURVE",
"502 611 OFFCURVE",
"502 527 CURVE SMOOTH",
"502 437 OFFCURVE",
"434 338 OFFCURVE",
"290 306 CURVE SMOOTH",
"137 272 LINE",
"140 252 LINE",
"289 286 LINE SMOOTH",
"416 315 OFFCURVE",
"536 254 OFFCURVE",
"536 114 CURVE SMOOTH",
"536 -104 OFFCURVE",
"245 -175 OFFCURVE",
"35 -175 CURVE"
);
}
);
};
layerId = UUID0;
paths = (
{
closed = 1;
nodes = (
"250 -194 OFFCURVE",
"556 -121 OFFCURVE",
"556 115 CURVE SMOOTH",
"556 259 OFFCURVE",
"439 333 OFFCURVE",
"295 303 CURVE",
"294 290 LINE",
"456 326 OFFCURVE",
"522 433 OFFCURVE",
"522 528 CURVE SMOOTH",
"522 643 OFFCURVE",
"425 702 OFFCURVE",
"309 702 CURVE SMOOTH",
"215 702 OFFCURVE",
"107 663 OFFCURVE",
"25 582 CURVE",
"38 567 LINE",
"122 647 OFFCURVE",
"209 683 OFFCURVE",
"305 683 CURVE SMOOTH",
"443 683 OFFCURVE",
"502 611 OFFCURVE",
"502 527 CURVE SMOOTH",
"502 437 OFFCURVE",
"434 338 OFFCURVE",
"290 306 CURVE SMOOTH",
"137 272 LINE",
"140 252 LINE",
"289 286 LINE SMOOTH",
"416 315 OFFCURVE",
"536 254 OFFCURVE",
"536 114 CURVE SMOOTH",
"536 -104 OFFCURVE",
"245 -175 OFFCURVE",
"35 -175 CURVE",
"35 -194 LINE"
);
}
);
width = 616;
},
{
background = {
paths = (
{
closed = 1;
nodes = (
"15 -194 LINE",
"305 -194 OFFCURVE",
"584 -84 OFFCURVE",
"584 127 CURVE SMOOTH",
"584 284 OFFCURVE",
"429 345 OFFCURVE",
"324 318 CURVE",
"320 285 LINE",
"473 302 OFFCURVE",
"553 407 OFFCURVE",
"553 513 CURVE SMOOTH",
"553 639 OFFCURVE",
"439 706 OFFCURVE",
"303 706 CURVE SMOOTH",
"195 706 OFFCURVE",
"71 664 OFFCURVE",
"-20 582 CURVE",
"33 501 LINE",
"101 561 OFFCURVE",
"203 602 OFFCURVE",
"291 602 CURVE SMOOTH",
"375 602 OFFCURVE",
"436 565 OFFCURVE",
"436 495 CURVE SMOOTH",
"436 429 OFFCURVE",
"382 367 OFFCURVE",
"266 340 CURVE SMOOTH",
"109 303 LINE",
"123 210 LINE",
"230 232 LINE SMOOTH",
"376 262 OFFCURVE",
"465 212 OFFCURVE",
"465 122 CURVE SMOOTH",
"465 -39 OFFCURVE",
"184 -93 OFFCURVE",
"15 -93 CURVE"
);
}
);
};
layerId = "708134FE-A11E-43C9-84F0-594DA15B6BD1";
paths = (
{
closed = 1;
nodes = (
"305 -194 OFFCURVE",
"584 -84 OFFCURVE",
"584 127 CURVE SMOOTH",
"584 284 OFFCURVE",
"429 345 OFFCURVE",
"324 318 CURVE",
"320 285 LINE",
"473 302 OFFCURVE",
"553 407 OFFCURVE",
"553 513 CURVE SMOOTH",
"553 639 OFFCURVE",
"439 706 OFFCURVE",
"303 706 CURVE SMOOTH",
"195 706 OFFCURVE",
"71 664 OFFCURVE",
"-20 582 CURVE",
"33 501 LINE",
"108 568 OFFCURVE",
"211 604 OFFCURVE",
"295 604 CURVE SMOOTH",
"385 604 OFFCURVE",
"442 564 OFFCURVE",
"442 499 CURVE SMOOTH",
"442 435 OFFCURVE",
"386 368 OFFCURVE",
"266 340 CURVE SMOOTH",
"109 303 LINE",
"123 208 LINE",
"254 237 LINE SMOOTH",
"395 268 OFFCURVE",
"469 213 OFFCURVE",
"469 126 CURVE SMOOTH",
"469 -42 OFFCURVE",
"185 -89 OFFCURVE",
"21 -89 CURVE",
"15 -194 LINE"
);
}
);
width = 624;
},
{
background = {
paths = (
{
closed = 1;
nodes = (
"23 -194 LINE",
"444 -194 OFFCURVE",
"646 -13 OFFCURVE",
"646 163 CURVE SMOOTH",
"646 308 OFFCURVE",
"510 361 OFFCURVE",
"385 333 CURVE",
"380 282 LINE",
"528 319 OFFCURVE",
"614 407 OFFCURVE",
"614 516 CURVE SMOOTH",
"614 642 OFFCURVE",
"498 713 OFFCURVE",
"351 713 CURVE SMOOTH",
"224 713 OFFCURVE",
"64 660 OFFCURVE",
"-30 592 CURVE",
"45 436 LINE",
"114 479 OFFCURVE",
"219 517 OFFCURVE",
"292 517 CURVE SMOOTH",
"355 517 OFFCURVE",
"392 488 OFFCURVE",
"392 453 CURVE SMOOTH",
"392 417 OFFCURVE",
"354 387 OFFCURVE",
"282 371 CURVE SMOOTH",
"101 331 LINE",
"127 162 LINE",
"276 194 LINE SMOOTH",
"355 211 OFFCURVE",
"416 185 OFFCURVE",
"416 136 CURVE SMOOTH",
"416 39 OFFCURVE",
"184 -9 OFFCURVE",
"23 -14 CURVE"
);
}
);
};
layerId = "5DA6E103-6A94-47F2-987D-4952DB8EA68E";
paths = (
{
closed = 1;
nodes = (
"444 -194 OFFCURVE",
"646 -13 OFFCURVE",
"646 163 CURVE SMOOTH",
"646 308 OFFCURVE",
"510 361 OFFCURVE",
"385 333 CURVE",
"380 282 LINE",
"528 319 OFFCURVE",
"614 407 OFFCURVE",
"614 516 CURVE SMOOTH",
"614 642 OFFCURVE",
"498 713 OFFCURVE",
"351 713 CURVE SMOOTH",
"224 713 OFFCURVE",
"64 660 OFFCURVE",
"-30 592 CURVE",
"45 436 LINE",
"114 479 OFFCURVE",
"219 517 OFFCURVE",
"292 517 CURVE SMOOTH",
"355 517 OFFCURVE",
"392 488 OFFCURVE",
"392 453 CURVE SMOOTH",
"392 417 OFFCURVE",
"354 387 OFFCURVE",
"282 371 CURVE SMOOTH",
"101 331 LINE",
"127 162 LINE",
"276 194 LINE SMOOTH",
"355 211 OFFCURVE",
"416 185 OFFCURVE",
"416 136 CURVE SMOOTH",
"416 39 OFFCURVE",
"184 -9 OFFCURVE",
"23 -14 CURVE",
"23 -194 LINE"
);
}
);
width = 656;
}
);
unicode = 021C;
},
{
glyphname = H;
layers = (
{
anchors = (
{
name = bottom;
position = "{422, 0}";
},
{
name = center;
position = "{422, 538}";
},
{
name = hook.af;
position = "{147, 700}";
},
{
name = top;
position = "{422, 700}";
}
);
layerId = UUID0;
paths = (
{
closed = 1;
nodes = (
"697 0 LINE",
"697 700 LINE",
"677 700 LINE",
"677 0 LINE"
);
},
{
closed = 1;
nodes = (
"167 0 LINE",
"167 700 LINE",
"147 700 LINE",
"147 0 LINE"
);
},
{
closed = 1;
nodes = (
"682 346 LINE",
"682 365 LINE",
"162 365 LINE",
"162 346 LINE"
);
}
);
width = 844;
},
{
anchors = (
{
name = bottom;
position = "{411, 0}";
},
{
name = center;
position = "{411, 576}";
},
{
name = hook.af;
position = "{66, 700}";
},
{
name = top;
position = "{411, 700}";
}
);
layerId = "5DA6E103-6A94-47F2-987D-4952DB8EA68E";
paths = (
{
closed = 1;
nodes = (
"756 0 LINE",
"756 700 LINE",
"520 700 LINE",
"520 0 LINE"
);
},
{
closed = 1;
nodes = (
"302 0 LINE",
"302 700 LINE",
"66 700 LINE",
"66 0 LINE"
);
},
{
closed = 1;
nodes = (
"536 258 LINE",
"536 452 LINE",
"286 452 LINE",
"286 258 LINE"
);
}
);
width = 822;
},
{
anchors = (
{
name = bottom;
position = "{416, 0}";
},
{
name = center;
position = "{416, 556}";
},
{
name = hook.af;
position = "{111, 700}";
},
{
name = top;
position = "{416, 700}";
}
);
layerId = "708134FE-A11E-43C9-84F0-594DA15B6BD1";
paths = (
{
closed = 1;
nodes = (
"722 0 LINE",
"722 700 LINE",
"608 700 LINE",
"608 0 LINE"
);
},
{
closed = 1;
nodes = (
"225 0 LINE",
"225 700 LINE",
"111 700 LINE",
"111 0 LINE"
);
},
{
closed = 1;
nodes = (
"617 306 LINE",
"617 405 LINE",
"215 405 LINE",
"215 306 LINE"
);
}
);
width = 833;
}
);
leftKerningGroup = H;
rightKerningGroup = H;
rightMetricsKey = "=|";
unicode = 0048;
},
{
color = 3;
glyphname = Hcedilla;
layers = (
{
anchors = (
{
name = bottom;
position = "{408, 0}";
},
{
name = center;
position = "{408, 538}";
},
{
name = hook.af;
position = "{133, 700}";
},
{
name = top;
position = "{408, 700}";
}
);
layerId = UUID0;
paths = (
{
closed = 1;
nodes = (
"683 0 LINE",
"683 700 LINE",
"663 700 LINE",
"663 0 LINE"
);
},
{
closed = 1;
nodes = (
"186 -213 OFFCURVE",
"225 -182 OFFCURVE",
"225 -134 CURVE SMOOTH",
"225 -89 OFFCURVE",
"191 -59 OFFCURVE",
"141 -56 CURVE",
"153 0 LINE",
"133 0 LINE",
"118 -74 LINE",
"134 -74 LINE SMOOTH",
"179 -74 OFFCURVE",
"205 -99 OFFCURVE",
"205 -134 CURVE SMOOTH",
"205 -173 OFFCURVE",
"174 -194 OFFCURVE",
"133 -194 CURVE SMOOTH",
"110 -194 OFFCURVE",
"87 -186 OFFCURVE",
"71 -171 CURVE",
"60 -186 LINE",
"82 -205 OFFCURVE",
"106 -213 OFFCURVE",
"134 -213 CURVE SMOOTH"
);
},
{
closed = 1;
nodes = (
"153 0 LINE",
"153 700 LINE",
"133 700 LINE",
"133 0 LINE"
);
},
{
closed = 1;
nodes = (
"668 346 LINE",
"668 365 LINE",
"148 365 LINE",
"148 346 LINE"
);
}
);
width = 816;
},
{
anchors = (
{
name = bottom;
position = "{405, 0}";
},
{
name = center;
position = "{405, 556}";
},
{
name = hook.af;
position = "{100, 700}";
},
{
name = top;
position = "{405, 700}";
}
);
layerId = "708134FE-A11E-43C9-84F0-594DA15B6BD1";
paths = (
{
closed = 1;
nodes = (
"711 0 LINE",
"711 700 LINE",
"597 700 LINE",
"597 0 LINE"
);
},
{
closed = 1;
nodes = (
"232 -226 OFFCURVE",
"284 -190 OFFCURVE",
"284 -133 CURVE SMOOTH",
"284 -89 OFFCURVE",
"255 -55 OFFCURVE",
"182 -49 CURVE",
"196 7 LINE",
"135 7 LINE",
"109 -94 LINE",
"152 -94 LINE SMOOTH",
"191 -94 OFFCURVE",
"207 -108 OFFCURVE",
"207 -129 CURVE SMOOTH",
"207 -152 OFFCURVE",
"191 -166 OFFCURVE",
"153 -166 CURVE SMOOTH",
"128 -166 OFFCURVE",
"106 -161 OFFCURVE",
"84 -150 CURVE",
"62 -205 LINE",
"87 -219 OFFCURVE",
"117 -226 OFFCURVE",
"153 -226 CURVE SMOOTH"
);
},
{
closed = 1;
nodes = (
"214 0 LINE",
"214 700 LINE",
"100 700 LINE",
"100 0 LINE"
);
},
{
closed = 1;
nodes = (
"606 306 LINE",
"606 405 LINE",
"204 405 LINE",
"204 306 LINE"
);
}
);
width = 811;
},
{
anchors = (
{
name = bottom;
position = "{402, 0}";
},
{
name = center;
position = "{402, 576}";
},
{
name = hook.af;
position = "{57, 700}";
},
{
name = top;
position = "{402, 700}";
}
);
layerId = "5DA6E103-6A94-47F2-987D-4952DB8EA68E";
paths = (
{
closed = 1;
nodes = (
"747 0 LINE",
"747 700 LINE",
"511 700 LINE",
"511 0 LINE"
);
},
{
closed = 1;
nodes = (
"242 -240 OFFCURVE",
"310 -199 OFFCURVE",
"310 -132 CURVE SMOOTH",
"310 -97 OFFCURVE",
"288 -60 OFFCURVE",
"225 -52 CURVE",
"239 10 LINE",
"123 10 LINE",
"96 -104 LINE",
"137 -104 LINE SMOOTH",
"166 -104 OFFCURVE",
"178 -112 OFFCURVE",
"178 -124 CURVE SMOOTH",
"178 -138 OFFCURVE",
"164 -148 OFFCURVE",
"130 -148 CURVE SMOOTH",
"106 -148 OFFCURVE",
"85 -142 OFFCURVE",
"70 -136 CURVE",
"42 -219 LINE",
"64 -231 OFFCURVE",
"106 -240 OFFCURVE",
"140 -240 CURVE SMOOTH"
);
},
{
closed = 1;
nodes = (
"293 0 LINE",
"293 700 LINE",
"57 700 LINE",
"57 0 LINE"
);
},
{
closed = 1;
nodes = (
"527 258 LINE",
"527 452 LINE",
"277 452 LINE",
"277 258 LINE"
);
}
);
width = 804;
}
);
unicode = 1E28;
},
{
glyphname = I;
layers = (
{
anchors = (
{
name = bottom;
position = "{157, 0}";
},
{
name = ogonek;
position = "{167, 0}";
},
{
name = top;
position = "{157, 700}";
},
{
name = topleft;
position = "{55, 699}";
}
);
layerId = UUID0;
paths = (
{
closed = 1;
nodes = (
"167 0 LINE",
"167 700 LINE",
"147 700 LINE",
"147 0 LINE"
);
}
);
width = 314;
},
{
anchors = (
{
name = bottom;
position = "{184, 0}";
},
{
name = ogonek;
position = "{302, 0}";
},
{
name = top;
position = "{184, 700}";
},
{
name = topleft;
position = "{0, 700}";
}
);
layerId = "5DA6E103-6A94-47F2-987D-4952DB8EA68E";
paths = (
{
closed = 1;
nodes = (
"302 0 LINE",
"302 700 LINE",
"66 700 LINE",
"66 0 LINE"
);
}
);
width = 368;
},
{
anchors = (
{
name = bottom;
position = "{168, 0}";
},
{
name = ogonek;
position = "{225, 0}";
},
{
name = top;
position = "{168, 700}";
},
{
name = topleft;
position = "{30, 699}";
}
);
layerId = "708134FE-A11E-43C9-84F0-594DA15B6BD1";
paths = (
{
closed = 1;
nodes = (
"225 0 LINE",
"225 700 LINE",
"111 700 LINE",
"111 0 LINE"
);
}
);
width = 336;
}
);
leftKerningGroup = H;
leftMetricsKey = H;
rightKerningGroup = H;
rightMetricsKey = H;
unicode = 0049;
},
{
glyphname = IJ;
layers = (
{
anchors = (
{
name = top;
position = "{167, 700}";
}
);
guideLines = (
{
angle = 90;
position = "{117, 186}";
}
);
layerId = UUID0;
paths = (
{
closed = 1;
nodes = (
"484 -3 OFFCURVE",
"587 95 OFFCURVE",
"587 293 CURVE SMOOTH",
"587 700 LINE",
"567 700 LINE",
"567 294 LINE SMOOTH",
"567 107 OFFCURVE",
"476 16 OFFCURVE",
"328 16 CURVE SMOOTH",
"253 16 OFFCURVE",
"185 39 OFFCURVE",
"132 78 CURVE",
"120 62 LINE",
"174 24 OFFCURVE",
"247 -3 OFFCURVE",
"327 -3 CURVE SMOOTH"
);
},
{
closed = 1;
nodes = (
"147 290 LINE",
"147 700 LINE",
"127 700 LINE",
"127 290 LINE"
);
}
);
width = 714;
},
{
anchors = (
{
name = top;
position = "{169, 700}";
}
);
layerId = "5DA6E103-6A94-47F2-987D-4952DB8EA68E";
paths = (
{
closed = 1;
nodes = (
"538 -16 OFFCURVE",
"678 105 OFFCURVE",
"678 325 CURVE SMOOTH",
"678 700 LINE",
"442 700 LINE",
"442 312 LINE SMOOTH",
"442 215 OFFCURVE",
"404 172 OFFCURVE",
"317 172 CURVE SMOOTH",
"258 172 OFFCURVE",
"183 194 OFFCURVE",
"117 236 CURVE",
"31 69 LINE",
"104 17 OFFCURVE",
"208 -16 OFFCURVE",
"328 -16 CURVE SMOOTH"
);
},
{
closed = 1;
nodes = (
"287 336 LINE",
"287 700 LINE",
"51 700 LINE",
"51 336 LINE"
);
}
);
width = 729;
},
{
anchors = (
{
name = top;
position = "{151, 700}";
}
);
layerId = "708134FE-A11E-43C9-84F0-594DA15B6BD1";
paths = (
{
closed = 1;
nodes = (
"508 -9 OFFCURVE",
"627 100 OFFCURVE",
"627 309 CURVE SMOOTH",
"627 700 LINE",
"513 700 LINE",
"513 303 LINE SMOOTH",
"513 160 OFFCURVE",
"447 93 OFFCURVE",
"329 93 CURVE SMOOTH",
"255 93 OFFCURVE",
"184 115 OFFCURVE",
"125 155 CURVE",
"81 63 LINE",
"143 20 OFFCURVE",
"230 -9 OFFCURVE",
"327 -9 CURVE SMOOTH"
);
},
{
closed = 1;
nodes = (
"208 312 LINE",
"208 700 LINE",
"94 700 LINE",
"94 312 LINE"
);
}
);
width = 721;
}
);
leftKerningGroup = H;
rightKerningGroup = U;
rightMetricsKey = U;
unicode = 0132;
},
{
color = 3;
glyphname = "Iota-latin";
layers = (
{
background = {
paths = (
{
closed = 1;
nodes = (
"225 -31 OFFCURVE",
"305 20 CURVE",
"304 9 LINE",
"287 41 LINE",
"295 36 LINE",
"243 1 OFFCURVE",
"140 5 OFFCURVE",
"140 129 CURVE SMOOTH",
"140 700 LINE",
"120 700 LINE",
"120 125 LINE SMOOTH",
"120 5 OFFCURVE"
);
}
);
};
guideLines = (
{
position = "{59, 376}";
}
);
layerId = UUID0;
paths = (
{
closed = 1;
nodes = (
"286 -3 OFFCURVE",
"327 11 OFFCURVE",
"357 39 CURVE",
"358 23 LINE",
"330 58 LINE",
"347 55 LINE",
"318 29 OFFCURVE",
"281 16 OFFCURVE",
"246 16 CURVE SMOOTH",
"190 16 OFFCURVE",
"140 51 OFFCURVE",
"140 127 CURVE SMOOTH",
"140 700 LINE",
"120 700 LINE",
"120 124 LINE SMOOTH",
"120 37 OFFCURVE",
"181 -3 OFFCURVE",
"247 -3 CURVE SMOOTH"
);
}
);
width = 320;
},
{
background = {
paths = (
{
closed = 1;
nodes = (
"208 170 LINE",
"208 700 LINE",
"94 700 LINE",
"94 170 LINE"
);
},
{
closed = 0;
nodes = (
"94 166 LINE SMOOTH",
"94 -25 OFFCURVE",
"310 -51 OFFCURVE",
"420 47 CURVE",
"417 -12 LINE",
"343 158 LINE",
"391 136 LINE",
"324 63 OFFCURVE",
"208 63 OFFCURVE",
"208 170 CURVE SMOOTH"
);
}
);
};
layerId = "708134FE-A11E-43C9-84F0-594DA15B6BD1";
paths = (
{
closed = 1;
nodes = (
"324 -9 OFFCURVE",
"379 11 OFFCURVE",
"420 47 CURVE",
"410 -12 LINE",
"343 151 LINE",
"395 144 LINE",
"368 109 OFFCURVE",
"322 90 OFFCURVE",
"285 90 CURVE SMOOTH",
"243 90 OFFCURVE",
"208 116 OFFCURVE",
"208 170 CURVE SMOOTH",
"208 700 LINE",
"94 700 LINE",
"94 170 LINE SMOOTH",
"94 47 OFFCURVE",
"179 -9 OFFCURVE",
"270 -9 CURVE SMOOTH"
);
}
);
width = 389;
},
{
background = {
paths = (
{
closed = 1;
nodes = (
"389 206 LINE",
"408 194 LINE",
"384 178 OFFCURVE",
"361 170 OFFCURVE",
"341 170 CURVE SMOOTH",
"309 170 OFFCURVE",
"286 191 OFFCURVE",
"286 236 CURVE SMOOTH",
"286 700 LINE",
"50 700 LINE",
"50 207 LINE SMOOTH",
"50 47 OFFCURVE",
"157 -15 OFFCURVE",
"280 -15 CURVE SMOOTH",
"344 -15 OFFCURVE",
"412 1 OFFCURVE",
"473 30 CURVE",
"438 -17 LINE"
);
}
);
};
layerId = "5DA6E103-6A94-47F2-987D-4952DB8EA68E";
paths = (
{
closed = 1;
nodes = (
"344 -15 OFFCURVE",
"412 0 OFFCURVE",
"473 29 CURVE",
"438 -17 LINE",
"389 206 LINE",
"408 194 LINE",
"384 178 OFFCURVE",
"361 170 OFFCURVE",
"341 170 CURVE SMOOTH",
"309 170 OFFCURVE",
"286 191 OFFCURVE",
"286 236 CURVE SMOOTH",
"286 700 LINE",
"50 700 LINE",
"50 207 LINE SMOOTH",
"50 47 OFFCURVE",
"157 -15 OFFCURVE",
"280 -15 CURVE SMOOTH"
);
}
);
width = 421;
}
);
unicode = 0196;
},
{
glyphname = J;
layers = (
{
anchors = (
{
name = top;
position = "{209, 700}";
}
);
layerId = UUID0;
paths = (
{
closed = 1;
nodes = (
"292 -3 OFFCURVE",
"350 63 OFFCURVE",
"350 194 CURVE SMOOTH",
"350 700 LINE",
"68 700 LINE",
"68 681 LINE",
"330 681 LINE",
"330 196 LINE SMOOTH",
"330 74 OFFCURVE",
"281 16 OFFCURVE",
"179 16 CURVE SMOOTH",
"113 16 OFFCURVE",
"56 49 OFFCURVE",
"18 108 CURVE",
"4 96 LINE",
"41 34 OFFCURVE",
"107 -3 OFFCURVE",
"178 -3 CURVE SMOOTH"
);
}
);
width = 477;
},
{
anchors = (
{
name = top;
position = "{288, 700}";
}
);
layerId = "5DA6E103-6A94-47F2-987D-4952DB8EA68E";
paths = (
{
closed = 1;
nodes = (
"422 -16 OFFCURVE",
"523 78 OFFCURVE",
"523 270 CURVE SMOOTH",
"523 700 LINE",
"52 700 LINE",
"52 522 LINE",
"290 522 LINE",
"290 256 LINE SMOOTH",
"290 199 OFFCURVE",
"263 169 OFFCURVE",
"214 169 CURVE SMOOTH",
"175 169 OFFCURVE",
"140 192 OFFCURVE",
"103 238 CURVE",
"-24 88 LINE",
"34 20 OFFCURVE",
"125 -16 OFFCURVE",
"234 -16 CURVE SMOOTH"
);
}
);
width = 574;
},
{
anchors = (
{
name = top;
position = "{244, 700}";
}
);
layerId = "708134FE-A11E-43C9-84F0-594DA15B6BD1";
paths = (
{
closed = 1;
nodes = (
"347 -9 OFFCURVE",
"426 70 OFFCURVE",
"426 231 CURVE SMOOTH",
"426 700 LINE",
"61.01 700 LINE",
"61 601 LINE",
"312 601 LINE",
"312 225 LINE SMOOTH",
"312 135 OFFCURVE",
"273 90 OFFCURVE",
"198 90 CURVE SMOOTH",
"140 90 OFFCURVE",
"93 118 OFFCURVE",
"55 171 CURVE",
"-11 92 LINE",
"35 27 OFFCURVE",
"113 -9 OFFCURVE",
"198 -9 CURVE SMOOTH"
);
}
);
width = 520;
}
);
leftKerningGroup = J;
rightKerningGroup = U;
rightMetricsKey = U;
unicode = 004A;
},
{
color = 3;
glyphname = Jcrossedtail;
layers = (
{
anchors = (
{
name = top;
position = "{209, 700}";
}
);
layerId = UUID0;
paths = (
{
closed = 1;
nodes = (
"292 -103 OFFCURVE",
"350 -37 OFFCURVE",
"350 94 CURVE SMOOTH",
"350 700 LINE",
"68 700 LINE",
"68 681 LINE",
"330 681 LINE",
"330 96 LINE SMOOTH",
"330 -26 OFFCURVE",
"281 -84 OFFCURVE",
"179 -84 CURVE SMOOTH",
"113 -84 OFFCURVE",
"56 -51 OFFCURVE",
"18 8 CURVE",
"4 -4 LINE",
"41 -66 OFFCURVE",
"107 -103 OFFCURVE",
"178 -103 CURVE SMOOTH"
);
}
);
width = 477;
},
{
anchors = (
{
name = top;
position = "{241, 700}";
}
);
layerId = "708134FE-A11E-43C9-84F0-594DA15B6BD1";
paths = (
{
closed = 1;
nodes = (
"344 -109 OFFCURVE",
"423 -30 OFFCURVE",
"423 131 CURVE SMOOTH",
"423 700 LINE",
"58 700 LINE",
"58 601 LINE",
"309 601 LINE",
"309 125 LINE SMOOTH",
"309 35 OFFCURVE",
"270 -10 OFFCURVE",
"193 -10 CURVE SMOOTH",
"137 -10 OFFCURVE",
"90 18 OFFCURVE",
"52 71 CURVE",
"-11 -8 LINE",
"35 -73 OFFCURVE",
"110 -109 OFFCURVE",
"195 -109 CURVE SMOOTH"
);
}
);
width = 517;
},
{
anchors = (
{
name = top;
position = "{288, 700}";
}
);
layerId = "5DA6E103-6A94-47F2-987D-4952DB8EA68E";
paths = (
{
closed = 1;
nodes = (
"422 -116 OFFCURVE",
"523 -22 OFFCURVE",
"523 170 CURVE SMOOTH",
"523 700 LINE",
"52 700 LINE",
"52 522 LINE",
"290 522 LINE",
"290 156 LINE SMOOTH",
"290 99 OFFCURVE",
"263 69 OFFCURVE",
"214 69 CURVE SMOOTH",
"175 69 OFFCURVE",
"140 92 OFFCURVE",
"103 138 CURVE",
"-24 -12 LINE",
"34 -80 OFFCURVE",
"125 -116 OFFCURVE",
"234 -116 CURVE SMOOTH"
);
}
);
width = 574;
}
);
unicode = A7B2;
},
{
glyphname = K;
layers = (
{
anchors = (
{
name = bottom;
position = "{384, 0}";
},
{
name = top;
position = "{384, 700}";
}
);
layerId = UUID0;
paths = (
{
closed = 1;
nodes = (
"342 366 LINE",
"354 377 LINE",
"668 700 LINE",
"641 700 LINE",
"163 209 LINE",
"163 182 LINE"
);
},
{
closed = 1;
nodes = (
"167 0 LINE",
"167 700 LINE",
"147 700 LINE",
"147 0 LINE"
);
},
{
closed = 1;
nodes = (
"691 0 LINE",
"346 390 LINE",
"331 377 LINE",
"664 0 LINE"
);
}
);
width = 707;
},
{
anchors = (
{
name = bottom;
position = "{393, 0}";
},
{
name = top;
position = "{393, 700}";
}
);
guideLines = (
{
angle = 48.4917;
position = "{634, 544}";
}
);
layerId = "5DA6E103-6A94-47F2-987D-4952DB8EA68E";
paths = (
{
closed = 1;
nodes = (
"358 240 LINE",
"489 374 LINE",
"785 700 LINE",
"528 700 LINE",
"264 409 LINE",
"277 150 LINE"
);
},
{
closed = 1;
nodes = (
"298 0 LINE",
"298 700 LINE",
"66 700 LINE",
"66 0 LINE"
);
},
{
closed = 1;
nodes = (
"799 0 LINE",
"473 434 LINE",
"320 272 LINE",
"526 0 LINE"
);
}
);
width = 774;
},
{
anchors = (
{
name = bottom;
position = "{387, 0}";
},
{
name = top;
position = "{387, 700}";
}
);
layerId = "708134FE-A11E-43C9-84F0-594DA15B6BD1";
paths = (
{
closed = 1;
nodes = (
"348 305 LINE",
"412 376 LINE",
"718 700 LINE",
"588 700 LINE",
"206 306 LINE",
"212 167 LINE"
);
},
{
closed = 1;
nodes = (
"225 0 LINE",
"225 700 LINE",
"111 700 LINE",
"111 0 LINE"
);
},
{
closed = 1;
nodes = (
"737 0 LINE",
"401 411 LINE",
"325 326 LINE",
"603 0 LINE"
);
}
);
width = 735;
}
);
leftKerningGroup = H;
leftMetricsKey = H;
rightKerningGroup = K;
unicode = 004B;
},
{
color = 3;
glyphname = Khook;
layers = (
{
anchors = (
{
name = bottom;
position = "{370, 0}";
},
{
name = top;
position = "{370, 700}";
}
);
background = {
paths = (
{
closed = 1;
nodes = (
"677 0 LINE",
"332 390 LINE",
"317 377 LINE",
"650 0 LINE"
);
}
);
};
layerId = UUID0;
paths = (
{
closed = 1;
nodes = (
"435 527 LINE SMOOTH",
"514 614 OFFCURVE",
"583 687 OFFCURVE",
"662 682 CURVE",
"662 700 LINE",
"568 701 OFFCURVE",
"496 624 OFFCURVE",
"422 542 CURVE SMOOTH",
"149 239 LINE",
"149 212 LINE"
);
},
{
closed = 1;
nodes = (
"153 0 LINE",
"153 700 LINE",
"133 700 LINE",
"133 0 LINE"
);
},
{
closed = 1;
nodes = (
"677 0 LINE",
"316 408 LINE",
"301 395 LINE",
"650 0 LINE"
);
}
);
width = 693;
},
{
anchors = (
{
name = bottom;
position = "{376, 0}";
},
{
name = top;
position = "{376, 700}";
}
);
layerId = "708134FE-A11E-43C9-84F0-594DA15B6BD1";
paths = (
{
closed = 1;
nodes = (
"481 525 LINE SMOOTH",
"536 595 OFFCURVE",
"590 612 OFFCURVE",
"695 609 CURVE",
"694 699 LINE",
"568 711 OFFCURVE",
"474 680 OFFCURVE",
"394 573 CURVE SMOOTH",
"195 306 LINE",
"201 167 LINE"
);
},
{
closed = 1;
nodes = (
"214 0 LINE",
"214 700 LINE",
"100 700 LINE",
"100 0 LINE"
);
},
{
closed = 1;
nodes = (
"726 0 LINE",
"390 411 LINE",
"314 326 LINE",
"592 0 LINE"
);
}
);
width = 724;
},
{
anchors = (
{
name = bottom;
position = "{384, 0}";
},
{
name = top;
position = "{384, 700}";
}
);
layerId = "5DA6E103-6A94-47F2-987D-4952DB8EA68E";
paths = (
{
closed = 1;
nodes = (
"551 459 LINE SMOOTH",
"623 533 OFFCURVE",
"674 538 OFFCURVE",
"753 538 CURVE",
"753 704 LINE",
"623 724 OFFCURVE",
"516 678 OFFCURVE",
"424 591 CURVE SMOOTH",
"255 431 LINE",
"268 172 LINE"
);
},
{
closed = 1;
nodes = (
"289 0 LINE",
"289 700 LINE",
"57 700 LINE",
"57 0 LINE"
);
},
{
closed = 1;
nodes = (
"790 0 LINE",
"464 434 LINE",
"311 272 LINE",
"517 0 LINE"
);
}
);
width = 765;
}
);
unicode = 0198;
},
{
color = 4;
glyphname = Kstroke;
layers = (
{
anchors = (
{
name = bottom;
position = "{370, 0}";
},
{
name = top;
position = "{370, 700}";
}
);
background = {
paths = (
{
closed = 1;
nodes = (
"328 366 LINE",
"340 377 LINE",
"654 700 LINE",
"627 700 LINE",
"149 209 LINE",
"149 182 LINE"
);
},
{
closed = 1;
nodes = (
"153 0 LINE",
"153 700 LINE",
"133 700 LINE",
"133 0 LINE"
);
},
{
closed = 1;
nodes = (
"677 0 LINE",
"332 390 LINE",
"317 377 LINE",
"650 0 LINE"
);
},
{
closed = 1;
nodes = (
"339 554 LINE",
"339 573 LINE",
"23 573 LINE",
"23 554 LINE"
);
}
);
};
layerId = UUID0;
paths = (
{
closed = 1;
nodes = (
"680 700 LINE",
"653 700 LINE",
"175 209 LINE",
"175 182 LINE"
);
},
{
closed = 1;
nodes = (
"179 0 LINE",
"179 700 LINE",
"159 700 LINE",
"159 0 LINE"
);
},
{
closed = 1;
nodes = (
"703 0 LINE",
"358 390 LINE",
"343 377 LINE",
"676 0 LINE"
);
},
{
closed = 1;
nodes = (
"390 575 LINE",
"390 594 LINE",
"41 594 LINE",
"41 575 LINE"
);
}
);
width = 693;
},
{
anchors = (
{
name = bottom;
position = "{376, 0}";
},
{
name = top;
position = "{376, 700}";
}
);
background = {
paths = (
{
closed = 1;
nodes = (
"707 700 LINE",
"577 700 LINE",
"195 306 LINE",
"201 167 LINE"
);
},
{
closed = 1;
nodes = (
"214 0 LINE",
"214 700 LINE",
"100 700 LINE",
"100 0 LINE"
);
},
{
closed = 1;
nodes = (
"726 0 LINE",
"390 411 LINE",
"314 326 LINE",
"592 0 LINE"
);
},
{
closed = 1;
nodes = (
"361 519 LINE",
"361 607 LINE",
"1 607 LINE",
"1 519 LINE"
);
}
);
};
layerId = "708134FE-A11E-43C9-84F0-594DA15B6BD1";
paths = (
{
closed = 1;
nodes = (
"707 700 LINE",
"577 700 LINE",
"195 306 LINE",
"201 167 LINE"
);
},
{
closed = 1;
nodes = (
"214 0 LINE",
"214 700 LINE",
"100 700 LINE",
"100 0 LINE"
);
},
{
closed = 1;
nodes = (
"726 0 LINE",
"390 411 LINE",
"314 326 LINE",
"592 0 LINE"
);
},
{
closed = 1;
nodes = (
"361 519 LINE",
"361 607 LINE",
"1 607 LINE",
"1 519 LINE"
);
}
);
width = 724;
},
{
anchors = (
{
name = bottom;
position = "{384, 0}";
},
{
name = top;
position = "{384, 700}";
}
);
background = {
paths = (
{
closed = 1;
nodes = (
"349 240 LINE",
"480 374 LINE",
"776 700 LINE",
"519 700 LINE",
"255 409 LINE",
"268 150 LINE"
);
},
{
closed = 1;
nodes = (
"289 0 LINE",
"289 700 LINE",
"57 700 LINE",
"57 0 LINE"
);
},
{
closed = 1;
nodes = (
"790 0 LINE",
"464 434 LINE",
"311 272 LINE",
"517 0 LINE"
);
},
{
closed = 1;
nodes = (
"388 496 LINE",
"388 630 LINE",
"-26 630 LINE",
"-26 496 LINE"
);
}
);
};
layerId = "5DA6E103-6A94-47F2-987D-4952DB8EA68E";
paths = (
{
closed = 1;
nodes = (
"800 700 LINE",
"548 700 LINE",
"279 369 LINE",
"279 92 LINE"
);
},
{
closed = 1;
nodes = (
"313 0 LINE",
"313 700 LINE",
"81 700 LINE",
"81 0 LINE"
);
},
{
closed = 1;
nodes = (
"814 0 LINE",
"488 434 LINE",
"339 272 LINE",
"541 0 LINE"
);
},
{
closed = 1;
nodes = (
"405 542 LINE",
"405 652 LINE",
"11 652 LINE",
"11 542 LINE"
);
}
);
width = 765;
}
);
unicode = A740;
},
{
glyphname = L;
layers = (
{
anchors = (
{
name = bottom;
position = "{376, 0}";
},
{
name = center;
position = "{167, 360}";
},
{
name = dot;
position = "{447, 360}";
},
{
name = top;
position = "{157, 700}";
},
{
name = topright;
position = "{460, 700}";
}
);
guideLines = (
{
angle = 90;
position = "{480, 20}";
}
);
layerId = UUID0;
paths = (
{
closed = 1;
nodes = (
"584 0 LINE",
"584 19 LINE",
"167 19 LINE",
"167 700 LINE",
"147 700 LINE",
"147 0 LINE"
);
}
);
width = 594;
},
{
anchors = (
{
name = bottom;
position = "{354, 0}";
},
{
name = center;
position = "{203, 390}";
},
{
name = dot;
position = "{493, 441}";
},
{
name = top;
position = "{184, 700}";
},
{
name = topright;
position = "{432, 700}";
}
);
guideLines = (
{
angle = 90;
position = "{590, 193}";
}
);
layerId = "5DA6E103-6A94-47F2-987D-4952DB8EA68E";
paths = (
{
closed = 1;
nodes = (
"618 0 LINE",
"618 183 LINE",
"302 183 LINE",
"302 700 LINE",
"66 700 LINE",
"66 0 LINE"
);
}
);
width = 626;
},
{
anchors = (
{
name = bottom;
position = "{366, 0}";
},
{
name = center;
position = "{178, 379}";
},
{
name = dot;
position = "{466, 399}";
},
{
name = top;
position = "{168, 700}";
},
{
name = topright;
position = "{447, 700}";
}
);
layerId = "708134FE-A11E-43C9-84F0-594DA15B6BD1";
paths = (
{
closed = 1;
nodes = (
"598 0 LINE",
"598 99 LINE",
"225 99 LINE",
"225 700 LINE",
"111 700 LINE",
"111 0 LINE"
);
}
);
width = 607;
}
);
leftKerningGroup = H;
leftMetricsKey = H;
rightKerningGroup = L;
unicode = 004C;
},
{
color = 3;
glyphname = Lbelt;
layers = (
{
anchors = (
{
name = bottom;
position = "{362, 0}";
},
{
name = center;
position = "{143, 360}";
},
{
name = dot;
position = "{433, 360}";
},
{
name = top;
position = "{143, 700}";
},
{
name = topright;
position = "{446, 700}";
}
);
background = {
components = (
{
name = E;
}
);
paths = (
{
closed = 1;
nodes = (
"570 0 LINE",
"570 19 LINE",
"153 19 LINE",
"153 700 LINE",
"133 700 LINE",
"133 0 LINE"
);
},
{
closed = 1;
nodes = (
"415 375 LINE",
"78 375 LINE SMOOTH",
"19 375 OFFCURVE",
"-5 407 OFFCURVE",
"-5 438 CURVE SMOOTH",
"-5 467 OFFCURVE",
"16 496 OFFCURVE",
"48 496 CURVE SMOOTH",
"93 496 OFFCURVE",
"133 446 OFFCURVE",
"133 375 CURVE",
"152 375 LINE",
"152 461 OFFCURVE",
"105 515 OFFCURVE",
"45 515 CURVE SMOOTH",
"5 515 OFFCURVE",
"-25 476 OFFCURVE",
"-25 436 CURVE SMOOTH",
"-25 396 OFFCURVE",
"6 356 OFFCURVE",
"91 356 CURVE SMOOTH",
"416 356 LINE"
);
}
);
};
layerId = UUID0;
paths = (
{
closed = 1;
nodes = (
"570 0 LINE",
"570 19 LINE",
"153 19 LINE",
"153 700 LINE",
"133 700 LINE",
"133 0 LINE"
);
},
{
closed = 1;
nodes = (
"395 346 LINE",
"394 365 LINE",
"89 365 LINE SMOOTH",
"21 365 OFFCURVE",
"-5 399 OFFCURVE",
"-5 431 CURVE SMOOTH",
"-5 459 OFFCURVE",
"15 484 OFFCURVE",
"49 484 CURVE SMOOTH",
"89 484 OFFCURVE",
"133 450 OFFCURVE",
"133 365 CURVE",
"152 365 LINE",
"152 463 OFFCURVE",
"99 503 OFFCURVE",
"51 503 CURVE SMOOTH",
"4 503 OFFCURVE",
"-25 467 OFFCURVE",
"-25 430 CURVE SMOOTH",
"-25 389 OFFCURVE",
"9 346 OFFCURVE",
"91 346 CURVE SMOOTH"
);
}
);
width = 580;
},
{
anchors = (
{
name = bottom;
position = "{406, 0}";
},
{
name = center;
position = "{208, 379}";
},
{
name = dot;
position = "{506, 399}";
},
{
name = top;
position = "{208, 700}";
},
{
name = topright;
position = "{487, 700}";
}
);
background = {
components = (
{
name = E;
transform = "{1, 0, 0, 1, 51, 0}";
}
);
paths = (
{
closed = 1;
nodes = (
"638 0 LINE",
"638 99 LINE",
"265 99 LINE",
"265 700 LINE",
"151 700 LINE",
"151 0 LINE"
);
},
{
closed = 1;
nodes = (
"487 397 LINE",
"120 397 LINE SMOOTH",
"75 397 OFFCURVE",
"50 421 OFFCURVE",
"50 443 CURVE SMOOTH",
"50 464 OFFCURVE",
"68 477 OFFCURVE",
"88 477 CURVE SMOOTH",
"117 477 OFFCURVE",
"151 453 OFFCURVE",
"151 397 CURVE",
"201 397 LINE",
"201 505 OFFCURVE",
"144 552 OFFCURVE",
"89 552 CURVE SMOOTH",
"29 552 OFFCURVE",
"-30 510 OFFCURVE",
"-30 441 CURVE SMOOTH",
"-30 377 OFFCURVE",
"17 307 OFFCURVE",
"135 307 CURVE SMOOTH",
"488 307 LINE"
);
}
);
};
layerId = "708134FE-A11E-43C9-84F0-594DA15B6BD1";
paths = (
{
closed = 1;
nodes = (
"638 0 LINE",
"638 99 LINE",
"265 99 LINE",
"265 700 LINE",
"151 700 LINE",
"151 0 LINE"
);
},
{
closed = 1;
nodes = (
"478 314 LINE",
"477 404 LINE",
"133 404 LINE SMOOTH",
"74 404 OFFCURVE",
"56 430 OFFCURVE",
"56 453 CURVE SMOOTH",
"56 471 OFFCURVE",
"69 487 OFFCURVE",
"91 487 CURVE SMOOTH",
"118 487 OFFCURVE",
"151 463 OFFCURVE",
"151 404 CURVE",
"208 404 LINE",
"208 521 OFFCURVE",
"146 567 OFFCURVE",
"85 567 CURVE SMOOTH",
"23 567 OFFCURVE",
"-36 523 OFFCURVE",
"-36 448 CURVE SMOOTH",
"-36 380 OFFCURVE",
"11 314 OFFCURVE",
"129 314 CURVE SMOOTH"
);
}
);
width = 647;
},
{
anchors = (
{
name = bottom;
position = "{478, 0}";
},
{
name = center;
position = "{308, 400}";
},
{
name = dot;
position = "{617, 441}";
},
{
name = top;
position = "{308, 700}";
},
{
name = topright;
position = "{556, 700}";
}
);
background = {
paths = (
{
closed = 1;
nodes = (
"742 0 LINE",
"742 183 LINE",
"426 183 LINE",
"426 700 LINE",
"190 700 LINE",
"190 0 LINE"
);
},
{
closed = 1;
nodes = (
"606 307 LINE",
"604 450 LINE",
"154 450 LINE SMOOTH",
"120 450 OFFCURVE",
"103 470 OFFCURVE",
"103 487 CURVE SMOOTH",
"103 501 OFFCURVE",
"114 514 OFFCURVE",
"135 514 CURVE SMOOTH",
"167 514 OFFCURVE",
"190 481 OFFCURVE",
"190 450 CURVE",
"264 450 LINE",
"264 557 OFFCURVE",
"226 629 OFFCURVE",
"129 629 CURVE SMOOTH",
"27 629 OFFCURVE",
"-24 549 OFFCURVE",
"-24 471 CURVE SMOOTH",
"-24 389 OFFCURVE",
"32 307 OFFCURVE",
"154 307 CURVE SMOOTH"
);
}
);
};
layerId = "5DA6E103-6A94-47F2-987D-4952DB8EA68E";
paths = (
{
closed = 1;
nodes = (
"742 0 LINE",
"742 183 LINE",
"426 183 LINE",
"426 700 LINE",
"190 700 LINE",
"190 0 LINE"
);
},
{
closed = 1;
nodes = (
"596 307 LINE",
"594 450 LINE",
"163 450 LINE SMOOTH",
"121 450 OFFCURVE",
"103 469 OFFCURVE",
"103 489 CURVE SMOOTH",
"103 506 OFFCURVE",
"117 520 OFFCURVE",
"135 520 CURVE SMOOTH",
"157 520 OFFCURVE",
"185 500 OFFCURVE",
"190 450 CURVE",
"264 450 LINE",
"264 557 OFFCURVE",
"226 629 OFFCURVE",
"129 629 CURVE SMOOTH",
"27 629 OFFCURVE",
"-24 549 OFFCURVE",
"-24 471 CURVE SMOOTH",
"-24 389 OFFCURVE",
"32 307 OFFCURVE",
"163 307 CURVE SMOOTH"
);
}
);
width = 750;
},
{
anchors = (
{
name = bottom;
position = "{478, 0}";
},
{
name = center;
position = "{308, 400}";
},
{
name = dot;
position = "{617, 441}";
},
{
name = top;
position = "{308, 700}";
},
{
name = topright;
position = "{556, 700}";
}
);
associatedMasterId = "5DA6E103-6A94-47F2-987D-4952DB8EA68E";
background = {
components = (
{
name = E;
transform = "{1, 0, 0, 1, 133, 0}";
}
);
paths = (
{
closed = 1;
nodes = (
"606 307 LINE",
"604 450 LINE",
"154 450 LINE SMOOTH",
"110 450 OFFCURVE",
"93 460 OFFCURVE",
"93 479 CURVE SMOOTH",
"93 494 OFFCURVE",
"105 508 OFFCURVE",
"124 508 CURVE SMOOTH",
"155 508 OFFCURVE",
"194 480 OFFCURVE",
"194 411 CURVE",
"260 411 LINE",
"260 556 OFFCURVE",
"194 621 OFFCURVE",
"112 621 CURVE SMOOTH",
"24 621 OFFCURVE",
"-32 547 OFFCURVE",
"-32 470 CURVE SMOOTH",
"-32 390 OFFCURVE",
"29 307 OFFCURVE",
"168 307 CURVE SMOOTH"
);
}
);
};
layerId = "68AD0B84-5670-46A8-A1F0-7402661E6D81";
name = "7. Jun 23, 17:02";
paths = (
{
closed = 1;
nodes = (
"742 0 LINE",
"742 183 LINE",
"426 183 LINE",
"426 700 LINE",
"190 700 LINE",
"190 0 LINE"
);
},
{
closed = 1;
nodes = (
"606 307 LINE",
"604 450 LINE",
"154 450 LINE SMOOTH",
"120 450 OFFCURVE",
"103 470 OFFCURVE",
"103 487 CURVE SMOOTH",
"103 501 OFFCURVE",
"114 514 OFFCURVE",
"135 514 CURVE SMOOTH",
"167 514 OFFCURVE",
"190 481 OFFCURVE",
"190 450 CURVE",
"264 450 LINE",
"264 557 OFFCURVE",
"226 629 OFFCURVE",
"129 629 CURVE SMOOTH",
"27 629 OFFCURVE",
"-24 549 OFFCURVE",
"-24 471 CURVE SMOOTH",
"-24 389 OFFCURVE",
"32 307 OFFCURVE",
"154 307 CURVE SMOOTH"
);
}
);
width = 750;
}
);
unicode = A7AD;
},
{
glyphname = M;
layers = (
{
anchors = (
{
name = bottom;
position = "{492, 0}";
},
{
name = top;
position = "{492, 700}";
}
);
layerId = UUID0;
paths = (
{
closed = 1;
nodes = (
"167 0 LINE",
"167 671 LINE",
"158 671 LINE",
"486 99 LINE",
"498 99 LINE",
"825 671 LINE",
"817 671 LINE",
"817 0 LINE",
"837 0 LINE",
"837 700 LINE",
"820 700 LINE",
"488 118 LINE",
"497 118 LINE",
"164 700 LINE",
"147 700 LINE",
"147 0 LINE"
);
}
);
width = 984;
},
{
anchors = (
{
name = bottom;
position = "{485, 0}";
},
{
name = top;
position = "{485, 700}";
}
);
layerId = "5DA6E103-6A94-47F2-987D-4952DB8EA68E";
paths = (
{
closed = 1;
nodes = (
"281 0 LINE",
"281 376 LINE",
"239 376 LINE",
"433 63 LINE",
"537 63 LINE",
"723 376 LINE",
"689 376 LINE",
"691 0 LINE",
"906 0 LINE",
"904 700 LINE",
"710 700 LINE",
"438 243 LINE",
"540 243 LINE",
"260 700 LINE",
"66 700 LINE",
"66 0 LINE"
);
}
);
width = 972;
},
{
anchors = (
{
name = bottom;
position = "{488, 0}";
},
{
name = top;
position = "{488, 700}";
}
);
layerId = "708134FE-A11E-43C9-84F0-594DA15B6BD1";
paths = (
{
closed = 1;
nodes = (
"221 0 LINE",
"221 526 LINE",
"193 526 LINE",
"462 82 LINE",
"514 82 LINE",
"780 526 LINE",
"755 526 LINE",
"756 0 LINE",
"866 0 LINE",
"865 700 LINE",
"771 700 LINE",
"465 181 LINE",
"515 181 LINE",
"205 700 LINE",
"111 700 LINE",
"111 0 LINE"
);
}
);
width = 977;
}
);
leftKerningGroup = H;
leftMetricsKey = H;
rightKerningGroup = H;
rightMetricsKey = H;
unicode = 004D;
},
{
color = 3;
glyphname = Mhook;
layers = (
{
anchors = (
{
name = bottom;
position = "{492, 0}";
},
{
name = top;
position = "{492, 700}";
}
);
layerId = UUID0;
paths = (
{
closed = 1;
nodes = (
"692 -228 OFFCURVE",
"837 -201 OFFCURVE",
"837 -79 CURVE SMOOTH",
"837 700 LINE",
"820 700 LINE",
"488 118 LINE",
"497 118 LINE",
"164 700 LINE",
"147 700 LINE",
"147 0 LINE",
"167 0 LINE",
"167 671 LINE",
"158 671 LINE",
"486 99 LINE",
"498 99 LINE",
"825 671 LINE",
"817 671 LINE",
"817 -74 LINE SMOOTH",
"817 -182 OFFCURVE",
"701 -204 OFFCURVE",
"625 -145 CURVE",
"613 -160 LINE"
);
}
);
width = 984;
},
{
anchors = (
{
name = bottom;
position = "{489, 0}";
},
{
name = top;
position = "{489, 700}";
}
);
layerId = "708134FE-A11E-43C9-84F0-594DA15B6BD1";
paths = (
{
closed = 1;
nodes = (
"694 -239 OFFCURVE",
"866 -198 OFFCURVE",
"866 -31 CURVE SMOOTH",
"865 700 LINE",
"771 700 LINE",
"465 181 LINE",
"515 181 LINE",
"205 700 LINE",
"111 700 LINE",
"111 0 LINE",
"221 0 LINE",
"221 526 LINE",
"193 526 LINE",
"462 82 LINE",
"514 82 LINE",
"780 526 LINE",
"755 526 LINE",
"756 -27 LINE SMOOTH",
"756 -108 OFFCURVE",
"672 -127 OFFCURVE",
"606 -85 CURVE",
"574 -168 LINE"
);
}
);
width = 977;
},
{
anchors = (
{
name = bottom;
position = "{485, 0}";
},
{
name = top;
position = "{485, 700}";
}
);
layerId = "5DA6E103-6A94-47F2-987D-4952DB8EA68E";
paths = (
{
closed = 1;
nodes = (
"690 -249 OFFCURVE",
"907 -194 OFFCURVE",
"906 22 CURVE SMOOTH",
"904 700 LINE",
"710 700 LINE",
"438 243 LINE",
"540 243 LINE",
"260 700 LINE",
"66 700 LINE",
"66 0 LINE",
"281 0 LINE",
"281 376 LINE",
"239 376 LINE",
"433 63 LINE",
"537 63 LINE",
"723 376 LINE",
"689 376 LINE",
"691 22 LINE SMOOTH",
"691 -30 OFFCURVE",
"646 -45 OFFCURVE",
"593 -20 CURVE",
"539 -177 LINE"
);
}
);
width = 972;
}
);
rightMetricsKey = M;
unicode = 2C6E;
},
{
glyphname = N;
layers = (
{
anchors = (
{
name = bottom;
position = "{422, 0}";
},
{
name = top;
position = "{422, 700}";
}
);
layerId = UUID0;
paths = (
{
closed = 1;
nodes = (
"167 0 LINE",
"167 677 LINE",
"156 677 LINE",
"680 0 LINE",
"697 0 LINE",
"697 700 LINE",
"677 700 LINE",
"677 23 LINE",
"688 23 LINE",
"164 700 LINE",
"147 700 LINE",
"147 0 LINE"
);
}
);
width = 844;
},
{
anchors = (
{
name = bottom;
position = "{411, 0}";
},
{
name = top;
position = "{411, 700}";
}
);
layerId = "5DA6E103-6A94-47F2-987D-4952DB8EA68E";
paths = (
{
closed = 1;
nodes = (
"296 0 LINE",
"296 426 LINE",
"206 426 LINE",
"562 0 LINE",
"756 0 LINE",
"756 700 LINE",
"526 700 LINE",
"526 274 LINE",
"616 274 LINE",
"260 700 LINE",
"66 700 LINE",
"66 0 LINE"
);
}
);
width = 822;
},
{
anchors = (
{
name = bottom;
position = "{416, 0}";
},
{
name = top;
position = "{416, 700}";
}
);
layerId = "708134FE-A11E-43C9-84F0-594DA15B6BD1";
paths = (
{
closed = 1;
nodes = (
"225 0 LINE",
"225 556 LINE",
"177 556 LINE",
"628 0 LINE",
"722 0 LINE",
"722 700 LINE",
"608 700 LINE",
"608 144 LINE",
"656 144 LINE",
"205 700 LINE",
"111 700 LINE",
"111 0 LINE"
);
}
);
width = 833;
}
);
leftKerningGroup = H;
leftMetricsKey = H;
rightKerningGroup = H;
rightMetricsKey = H;
unicode = 004E;
},
{
color = 3;
glyphname = Nhookleft;
layers = (
{
anchors = (
{
name = bottom;
position = "{414, 0}";
},
{
name = top;
position = "{416, 700}";
}
);
background = {
anchors = (
{
name = bottom;
position = "{421, 0}";
},
{
name = top;
position = "{421, 700}";
}
);
paths = (
{
closed = 1;
nodes = (
"166 677 LINE",
"155 677 LINE",
"679 0 LINE",
"696 0 LINE",
"696 700 LINE",
"676 700 LINE",
"676 23 LINE",
"687 23 LINE",
"163 700 LINE",
"146 700 LINE",
"146 -75 LINE SMOOTH",
"146 -185 OFFCURVE",
"25 -206 OFFCURVE",
"-51 -142 CURVE",
"-28 -147 LINE",
"-51 -178 LINE",
"-65 -154 LINE",
"15 -230 OFFCURVE",
"166 -204 OFFCURVE",
"166 -80 CURVE SMOOTH"
);
}
);
};
layerId = UUID0;
paths = (
{
closed = 1;
nodes = (
"-65 -154 LINE",
"15 -230 OFFCURVE",
"166 -204 OFFCURVE",
"166 -80 CURVE SMOOTH",
"166 401 LINE SMOOTH",
"166 593 OFFCURVE",
"257 684 OFFCURVE",
"416 684 CURVE SMOOTH",
"575 684 OFFCURVE",
"666 594 OFFCURVE",
"666 421 CURVE SMOOTH",
"666 0 LINE",
"686 0 LINE",
"686 422 LINE SMOOTH",
"686 605 OFFCURVE",
"583 703 OFFCURVE",
"417 703 CURVE SMOOTH",
"290 703 OFFCURVE",
"199 645 OFFCURVE",
"164 527 CURVE",
"166 524 LINE",
"166 700 LINE",
"146 700 LINE",
"146 -75 LINE SMOOTH",
"146 -185 OFFCURVE",
"25 -206 OFFCURVE",
"-51 -142 CURVE",
"-28 -147 LINE",
"-51 -178 LINE"
);
}
);
width = 813;
},
{
anchors = (
{
name = bottom;
position = "{412, 0}";
},
{
name = top;
position = "{413, 700}";
}
);
background = {
anchors = (
{
name = bottom;
position = "{416, 0}";
},
{
name = top;
position = "{416, 700}";
}
);
paths = (
{
closed = 1;
nodes = (
"225 556 LINE",
"177 556 LINE",
"628 0 LINE",
"722 0 LINE",
"722 700 LINE",
"608 700 LINE",
"608 144 LINE",
"656 144 LINE",
"205 700 LINE",
"111 700 LINE",
"111 -27 LINE SMOOTH",
"111 -121 OFFCURVE",
"-3 -132 OFFCURVE",
"-70 -59 CURVE",
"-1 -39 LINE",
"-69 -214 LINE",
"-99 -148 LINE",
"19 -245 OFFCURVE",
"225 -212 OFFCURVE",
"225 -31 CURVE SMOOTH"
);
}
);
};
layerId = "708134FE-A11E-43C9-84F0-594DA15B6BD1";
paths = (
{
closed = 1;
nodes = (
"-99 -148 LINE",
"19 -245 OFFCURVE",
"225 -212 OFFCURVE",
"225 -31 CURVE SMOOTH",
"225 396 LINE SMOOTH",
"225 540 OFFCURVE",
"306 607 OFFCURVE",
"423 607 CURVE SMOOTH",
"531 607 OFFCURVE",
"601 542 OFFCURVE",
"601 410 CURVE SMOOTH",
"601 0 LINE",
"715 0 LINE",
"715 414 LINE SMOOTH",
"715 605 OFFCURVE",
"613 709 OFFCURVE",
"447 709 CURVE SMOOTH",
"324 709 OFFCURVE",
"233 661 OFFCURVE",
"188 548 CURVE",
"221 530 LINE",
"221 700 LINE",
"111 700 LINE",
"111 -27 LINE SMOOTH",
"111 -121 OFFCURVE",
"-3 -132 OFFCURVE",
"-70 -59 CURVE",
"-1 -39 LINE",
"-69 -214 LINE"
);
}
);
width = 809;
},
{
anchors = (
{
name = bottom;
position = "{485, 0}";
},
{
name = top;
position = "{485, 700}";
}
);
background = {
anchors = (
{
name = bottom;
position = "{491, 0}";
},
{
name = top;
position = "{491, 700}";
}
);
paths = (
{
closed = 1;
nodes = (
"376 426 LINE",
"286 426 LINE",
"642 0 LINE",
"836 0 LINE",
"836 700 LINE",
"606 700 LINE",
"606 274 LINE",
"696 274 LINE",
"340 700 LINE",
"146 700 LINE",
"146 22 LINE SMOOTH",
"146 -58 OFFCURVE",
"41 -50 OFFCURVE",
"-38 54 CURVE",
"93 80 LINE",
"-31 -277 LINE",
"-71 -140 LINE",
"97 -261 OFFCURVE",
"376 -223 OFFCURVE",
"376 22 CURVE SMOOTH"
);
}
);
};
layerId = "5DA6E103-6A94-47F2-987D-4952DB8EA68E";
paths = (
{
closed = 1;
nodes = (
"-71 -140 LINE",
"97 -261 OFFCURVE",
"378 -223 OFFCURVE",
"378 22 CURVE SMOOTH",
"378 390 LINE SMOOTH",
"378 483 OFFCURVE",
"427 525 OFFCURVE",
"488 525 CURVE SMOOTH",
"551 525 OFFCURVE",
"592 486 OFFCURVE",
"592 398 CURVE SMOOTH",
"592 0 LINE",
"828 0 LINE",
"828 405 LINE SMOOTH",
"828 605 OFFCURVE",
"732 716 OFFCURVE",
"567 716 CURVE SMOOTH",
"455 716 OFFCURVE",
"376 659 OFFCURVE",
"335 563 CURVE",
"371 519 LINE",
"371 700 LINE",
"142 700 LINE",
"142 22 LINE SMOOTH",
"142 -58 OFFCURVE",
"37 -50 OFFCURVE",
"-42 54 CURVE",
"93 80 LINE",
"-31 -277 LINE"
);
}
);
width = 879;
}
);
leftKerningGroup = Nhookleft;
rightKerningGroup = N.ss01;
rightMetricsKey = U;
unicode = 019D;
},
{
color = 3;
glyphname = Nlongrightleg;
layers = (
{
anchors = (
{
name = bottom;
position = "{415, 0}";
},
{
name = top;
position = "{417, 700}";
}
);
layerId = UUID0;
paths = (
{
closed = 1;
nodes = (
"687 -194 LINE",
"687 422 LINE SMOOTH",
"687 605 OFFCURVE",
"584 703 OFFCURVE",
"418 703 CURVE SMOOTH",
"291 703 OFFCURVE",
"200 645 OFFCURVE",
"165 527 CURVE",
"167 524 LINE",
"167 700 LINE",
"147 700 LINE",
"147 0 LINE",
"167 0 LINE",
"167 401 LINE SMOOTH",
"167 593 OFFCURVE",
"258 684 OFFCURVE",
"417 684 CURVE SMOOTH",
"576 684 OFFCURVE",
"667 594 OFFCURVE",
"667 421 CURVE SMOOTH",
"667 -194 LINE"
);
}
);
width = 813;
},
{
anchors = (
{
name = bottom;
position = "{412, 0}";
},
{
name = top;
position = "{413, 700}";
}
);
layerId = "708134FE-A11E-43C9-84F0-594DA15B6BD1";
paths = (
{
closed = 1;
nodes = (
"715 -194 LINE",
"715 414 LINE SMOOTH",
"715 605 OFFCURVE",
"613 709 OFFCURVE",
"447 709 CURVE SMOOTH",
"324 709 OFFCURVE",
"233 661 OFFCURVE",
"188 548 CURVE",
"221 530 LINE",
"221 700 LINE",
"111 700 LINE",
"111 0 LINE",
"225 0 LINE",
"225 396 LINE SMOOTH",
"225 540 OFFCURVE",
"306 607 OFFCURVE",
"423 607 CURVE SMOOTH",
"531 607 OFFCURVE",
"601 542 OFFCURVE",
"601 410 CURVE SMOOTH",
"601 -194 LINE"
);
}
);
width = 810;
},
{
anchors = (
{
name = bottom;
position = "{409, 0}";
},
{
name = top;
position = "{409, 700}";
}
);
layerId = "5DA6E103-6A94-47F2-987D-4952DB8EA68E";
paths = (
{
closed = 1;
nodes = (
"752 -194 LINE",
"752 405 LINE SMOOTH",
"752 605 OFFCURVE",
"656 716 OFFCURVE",
"491 716 CURVE SMOOTH",
"379 716 OFFCURVE",
"300 659 OFFCURVE",
"259 563 CURVE",
"295 519 LINE",
"295 700 LINE",
"66 700 LINE",
"66 0 LINE",
"302 0 LINE",
"302 390 LINE SMOOTH",
"302 483 OFFCURVE",
"351 525 OFFCURVE",
"412 525 CURVE SMOOTH",
"475 525 OFFCURVE",
"516 486 OFFCURVE",
"516 398 CURVE SMOOTH",
"516 -194 LINE"
);
}
);
width = 806;
}
);
unicode = 0220;
},
{
glyphname = Eng;
layers = (
{
background = {
paths = (
{
closed = 1;
nodes = (
"291 703 OFFCURVE",
"200 645 OFFCURVE",
"165 527 CURVE",
"167 524 LINE",
"167 700 LINE",
"147 700 LINE",
"147 0 LINE",
"167 0 LINE",
"167 401 LINE SMOOTH",
"167 593 OFFCURVE",
"258 684 OFFCURVE",
"417 684 CURVE SMOOTH",
"576 684 OFFCURVE",
"667 594 OFFCURVE",
"667 421 CURVE SMOOTH",
"667 2 LINE SMOOTH",
"667 -120 OFFCURVE",
"618 -178 OFFCURVE",
"516 -178 CURVE SMOOTH",
"450 -178 OFFCURVE",
"393 -145 OFFCURVE",
"355 -86 CURVE",
"341 -98 LINE",
"378 -160 OFFCURVE",
"444 -197 OFFCURVE",
"515 -197 CURVE SMOOTH",
"629 -197 OFFCURVE",
"687 -131 OFFCURVE",
"687 0 CURVE SMOOTH",
"687 422 LINE SMOOTH",
"687 605 OFFCURVE",
"584 703 OFFCURVE",
"418 703 CURVE SMOOTH"
);
}
);
};
layerId = UUID0;
paths = (
{
closed = 1;
nodes = (
"167 0 LINE",
"167 677 LINE",
"156 677 LINE",
"680 0 LINE",
"688 23 LINE",
"164 700 LINE",
"147 700 LINE",
"147 0 LINE"
);
},
{
closed = 1;
nodes = (
"639 -197 OFFCURVE",
"697 -131 OFFCURVE",
"697 0 CURVE SMOOTH",
"697 700 LINE",
"677 700 LINE",
"677 2 LINE SMOOTH",
"677 -120 OFFCURVE",
"628 -178 OFFCURVE",
"526 -178 CURVE SMOOTH",
"460 -178 OFFCURVE",
"403 -145 OFFCURVE",
"365 -86 CURVE",
"351 -98 LINE",
"388 -160 OFFCURVE",
"454 -197 OFFCURVE",
"525 -197 CURVE SMOOTH"
);
}
);
width = 844;
},
{
background = {
paths = (
{
closed = 1;
nodes = (
"379 716 OFFCURVE",
"300 659 OFFCURVE",
"259 563 CURVE",
"295 519 LINE",
"295 700 LINE",
"66 700 LINE",
"66 0 LINE",
"302 0 LINE",
"302 390 LINE SMOOTH",
"302 483 OFFCURVE",
"351 525 OFFCURVE",
"412 525 CURVE SMOOTH",
"475 525 OFFCURVE",
"516 486 OFFCURVE",
"516 398 CURVE SMOOTH",
"516 72 LINE SMOOTH",
"516 15 OFFCURVE",
"489 -13 OFFCURVE",
"440 -13 CURVE SMOOTH",
"416 -13 OFFCURVE",
"394 -6 OFFCURVE",
"371 10 CURVE",
"263 -153 LINE",
"317 -189 OFFCURVE",
"384 -204 OFFCURVE",
"460 -204 CURVE SMOOTH",
"648 -204 OFFCURVE",
"752 -110 OFFCURVE",
"752 82 CURVE SMOOTH",
"752 405 LINE SMOOTH",
"752 605 OFFCURVE",
"656 716 OFFCURVE",
"491 716 CURVE SMOOTH"
);
}
);
};
layerId = "5DA6E103-6A94-47F2-987D-4952DB8EA68E";
paths = (
{
closed = 1;
nodes = (
"296 0 LINE",
"296 426 LINE",
"206 426 LINE",
"562 0 LINE",
"616 274 LINE",
"260 700 LINE",
"66 700 LINE",
"66 0 LINE"
);
},
{
closed = 1;
nodes = (
"615 -205 OFFCURVE",
"756 -135 OFFCURVE",
"756 84 CURVE SMOOTH",
"756 700 LINE",
"526 700 LINE",
"526 67 LINE SMOOTH",
"526 8 OFFCURVE",
"494 -21 OFFCURVE",
"453 -21 CURVE SMOOTH",
"431 -21 OFFCURVE",
"405 -12 OFFCURVE",
"381 5 CURVE",
"276 -150 LINE",
"323 -183 OFFCURVE",
"400 -205 OFFCURVE",
"477 -205 CURVE SMOOTH"
);
}
);
width = 822;
},
{
background = {
paths = (
{
closed = 1;
nodes = (
"324 709 OFFCURVE",
"233 661 OFFCURVE",
"188 548 CURVE",
"221 530 LINE",
"221 700 LINE",
"111 700 LINE",
"111 0 LINE",
"225 0 LINE",
"225 396 LINE SMOOTH",
"225 540 OFFCURVE",
"306 607 OFFCURVE",
"423 607 CURVE SMOOTH",
"531 607 OFFCURVE",
"601 542 OFFCURVE",
"601 410 CURVE SMOOTH",
"601 36 LINE SMOOTH",
"601 -54 OFFCURVE",
"563 -101 OFFCURVE",
"488 -101 CURVE SMOOTH",
"436 -101 OFFCURVE",
"393 -78 OFFCURVE",
"361 -39 CURVE",
"306 -125 LINE",
"351 -174 OFFCURVE",
"417 -200 OFFCURVE",
"490 -200 CURVE SMOOTH",
"636 -200 OFFCURVE",
"715 -121 OFFCURVE",
"715 40 CURVE SMOOTH",
"715 414 LINE SMOOTH",
"715 605 OFFCURVE",
"613 709 OFFCURVE",
"447 709 CURVE SMOOTH"
);
}
);
};
layerId = "708134FE-A11E-43C9-84F0-594DA15B6BD1";
paths = (
{
closed = 1;
nodes = (
"225 0 LINE",
"225 556 LINE",
"177 556 LINE",
"628 0 LINE",
"656 144 LINE",
"205 700 LINE",
"111 700 LINE",
"111 0 LINE"
);
},
{
closed = 1;
nodes = (
"645 -200 OFFCURVE",
"722 -121 OFFCURVE",
"722 50 CURVE SMOOTH",
"722 700 LINE",
"608 700 LINE",
"608 34 LINE SMOOTH",
"608 -57 OFFCURVE",
"572 -102 OFFCURVE",
"497 -102 CURVE SMOOTH",
"445 -102 OFFCURVE",
"403 -80 OFFCURVE",
"371 -42 CURVE",
"316 -125 LINE",
"361 -174 OFFCURVE",
"426 -200 OFFCURVE",
"497 -200 CURVE SMOOTH"
);
}
);
width = 833;
}
);
leftKerningGroup = H;
leftMetricsKey = H;
rightKerningGroup = H;
rightMetricsKey = H;
unicode = 014A;
},
{
glyphname = O;
layers = (
{
anchors = (
{
name = bottom;
position = "{438, 0}";
},
{
name = center;
position = "{438, 350}";
},
{
name = ogonek;
position = "{489, 0}";
},
{
name = top;
position = "{438, 700}";
},
{
name = topleft;
position = "{79, 700}";
},
{
name = topright;
position = "{687, 700}";
}
);
guideLines = (
{
angle = 90;
position = "{797, 723}";
}
);
layerId = UUID0;
paths = (
{
closed = 1;
nodes = (
"643 -3 OFFCURVE",
"797 148 OFFCURVE",
"797 350 CURVE SMOOTH",
"797 552 OFFCURVE",
"643 703 OFFCURVE",
"438 703 CURVE SMOOTH",
"233 703 OFFCURVE",
"79 552 OFFCURVE",
"79 350 CURVE SMOOTH",
"79 148 OFFCURVE",
"233 -3 OFFCURVE",
"438 -3 CURVE SMOOTH"
);
},
{
closed = 1;
nodes = (
"245 16 OFFCURVE",
"99 159 OFFCURVE",
"99 350 CURVE SMOOTH",
"99 541 OFFCURVE",
"245 684 OFFCURVE",
"438 684 CURVE SMOOTH",
"631 684 OFFCURVE",
"777 541 OFFCURVE",
"777 350 CURVE SMOOTH",
"777 159 OFFCURVE",
"631 16 OFFCURVE",
"438 16 CURVE SMOOTH"
);
}
);
width = 876;
},
{
anchors = (
{
name = bottom;
position = "{423, 0}";
},
{
name = center;
position = "{423, 350}";
},
{
name = ogonek;
position = "{546, 0}";
},
{
name = top;
position = "{423, 700}";
},
{
name = topleft;
position = "{33, 700}";
},
{
name = topright;
position = "{589, 700}";
}
);
guideLines = (
{
angle = 90;
position = "{818, 664}";
}
);
layerId = "5DA6E103-6A94-47F2-987D-4952DB8EA68E";
paths = (
{
closed = 1;
nodes = (
"651 -16 OFFCURVE",
"818 138 OFFCURVE",
"818 350 CURVE SMOOTH",
"818 562 OFFCURVE",
"651 716 OFFCURVE",
"423 716 CURVE SMOOTH",
"195 716 OFFCURVE",
"28 562 OFFCURVE",
"28 350 CURVE SMOOTH",
"28 138 OFFCURVE",
"195 -16 OFFCURVE",
"423 -16 CURVE SMOOTH"
);
},
{
closed = 1;
nodes = (
"336 175 OFFCURVE",
"266 241 OFFCURVE",
"266 350 CURVE SMOOTH",
"266 459 OFFCURVE",
"336 525 OFFCURVE",
"423 525 CURVE SMOOTH",
"510 525 OFFCURVE",
"580 459 OFFCURVE",
"580 350 CURVE SMOOTH",
"580 241 OFFCURVE",
"510 175 OFFCURVE",
"423 175 CURVE SMOOTH"
);
}
);
width = 846;
},
{
anchors = (
{
name = bottom;
position = "{431, 0}";
},
{
name = center;
position = "{431, 350}";
},
{
name = ogonek;
position = "{513, 0}";
},
{
name = top;
position = "{431, 700}";
},
{
name = topleft;
position = "{58, 700}";
},
{
name = topright;
position = "{643, 700}";
}
);
layerId = "708134FE-A11E-43C9-84F0-594DA15B6BD1";
paths = (
{
closed = 1;
nodes = (
"646 -9 OFFCURVE",
"805 143 OFFCURVE",
"805 350 CURVE SMOOTH",
"805 557 OFFCURVE",
"646 709 OFFCURVE",
"431 709 CURVE SMOOTH",
"215 709 OFFCURVE",
"56 556 OFFCURVE",
"56 350 CURVE SMOOTH",
"56 144 OFFCURVE",
"215 -9 OFFCURVE",
"431 -9 CURVE SMOOTH"
);
},
{
closed = 1;
nodes = (
"281 93 OFFCURVE",
"171 202 OFFCURVE",
"171 350 CURVE SMOOTH",
"171 498 OFFCURVE",
"281 607 OFFCURVE",
"431 607 CURVE SMOOTH",
"580 607 OFFCURVE",
"690 498 OFFCURVE",
"690 350 CURVE SMOOTH",
"690 202 OFFCURVE",
"580 93 OFFCURVE",
"431 93 CURVE SMOOTH"
);
}
);
width = 861;
}
);
leftKerningGroup = O;
rightKerningGroup = O;
rightMetricsKey = "=|";
unicode = 004F;
},
{
color = 3;
glyphname = OU;
layers = (
{
layerId = UUID0;
paths = (
{
closed = 1;
nodes = (
"522 -3 OFFCURVE",
"638 80 OFFCURVE",
"638 212 CURVE SMOOTH",
"638 343 OFFCURVE",
"522 426 OFFCURVE",
"338 426 CURVE SMOOTH",
"154 426 OFFCURVE",
"39 343 OFFCURVE",
"39 212 CURVE SMOOTH",
"39 80 OFFCURVE",
"154 -3 OFFCURVE",
"338 -3 CURVE SMOOTH"
);
},
{
closed = 1;
nodes = (
"167 16 OFFCURVE",
"59 92 OFFCURVE",
"59 214 CURVE SMOOTH",
"59 334 OFFCURVE",
"167 409 OFFCURVE",
"338 409 CURVE SMOOTH",
"511 409 OFFCURVE",
"619 334 OFFCURVE",
"619 214 CURVE SMOOTH",
"619 92 OFFCURVE",
"511 16 OFFCURVE",
"338 16 CURVE SMOOTH"
);
},
{
closed = 1;
nodes = (
"505 410 OFFCURVE",
"610 485 OFFCURVE",
"610 601 CURVE SMOOTH",
"610 700 LINE",
"590 700 LINE",
"590 601 LINE SMOOTH",
"590 495 OFFCURVE",
"493 428 OFFCURVE",
"338 428 CURVE SMOOTH",
"184 428 OFFCURVE",
"88 495 OFFCURVE",
"88 601 CURVE SMOOTH",
"88 700 LINE",
"68 700 LINE",
"68 601 LINE SMOOTH",
"68 485 OFFCURVE",
"172 410 OFFCURVE",
"338 410 CURVE SMOOTH"
);
}
);
userData = {
RMXScaler = {
height = 94;
width = 115;
};
};
width = 677;
},
{
layerId = "708134FE-A11E-43C9-84F0-594DA15B6BD1";
paths = (
{
closed = 1;
nodes = (
"559 -9 OFFCURVE",
"682 83 OFFCURVE",
"682 230 CURVE SMOOTH",
"682 368 OFFCURVE",
"559 454 OFFCURVE",
"362 454 CURVE SMOOTH",
"167 454 OFFCURVE",
"44 368 OFFCURVE",
"44 230 CURVE SMOOTH",
"44 83 OFFCURVE",
"167 -9 OFFCURVE",
"362 -9 CURVE SMOOTH"
);
},
{
closed = 1;
nodes = (
"237 89 OFFCURVE",
"159 144 OFFCURVE",
"159 232 CURVE SMOOTH",
"159 320 OFFCURVE",
"237 376 OFFCURVE",
"362 376 CURVE SMOOTH",
"488 376 OFFCURVE",
"567 320 OFFCURVE",
"567 232 CURVE SMOOTH",
"567 144 OFFCURVE",
"488 89 OFFCURVE",
"362 89 CURVE SMOOTH"
);
},
{
closed = 1;
nodes = (
"545 389 OFFCURVE",
"653 469 OFFCURVE",
"653 602 CURVE SMOOTH",
"653 700 LINE",
"539 700 LINE",
"539 602 LINE SMOOTH",
"539 517 OFFCURVE",
"474 466 OFFCURVE",
"362 466 CURVE SMOOTH",
"251 466 OFFCURVE",
"187 517 OFFCURVE",
"187 602 CURVE SMOOTH",
"187 700 LINE",
"73 700 LINE",
"73 602 LINE SMOOTH",
"73 469 OFFCURVE",
"178 389 OFFCURVE",
"362 389 CURVE SMOOTH"
);
}
);
userData = {
RMXScaler = {
height = 95;
weight = 6;
width = 114;
};
};
width = 726;
},
{
layerId = "5DA6E103-6A94-47F2-987D-4952DB8EA68E";
paths = (
{
closed = 1;
nodes = (
"605 -11 OFFCURVE",
"749 81 OFFCURVE",
"749 230 CURVE SMOOTH",
"749 378 OFFCURVE",
"605 476 OFFCURVE",
"382 476 CURVE SMOOTH",
"159 476 OFFCURVE",
"15 378 OFFCURVE",
"15 230 CURVE SMOOTH",
"15 81 OFFCURVE",
"159 -11 OFFCURVE",
"382 -11 CURVE SMOOTH"
);
},
{
closed = 1;
nodes = (
"294 154 OFFCURVE",
"242 188 OFFCURVE",
"242 246 CURVE SMOOTH",
"242 302 OFFCURVE",
"294 334 OFFCURVE",
"382 334 CURVE SMOOTH",
"470 334 OFFCURVE",
"522 302 OFFCURVE",
"522 246 CURVE SMOOTH",
"522 188 OFFCURVE",
"470 154 OFFCURVE",
"382 154 CURVE SMOOTH"
);
},
{
closed = 1;
nodes = (
"589 340 OFFCURVE",
"719 420 OFFCURVE",
"719 567 CURVE SMOOTH",
"719 700 LINE",
"487 700 LINE",
"487 568 LINE SMOOTH",
"487 513 OFFCURVE",
"447 484 OFFCURVE",
"382 484 CURVE SMOOTH",
"316 484 OFFCURVE",
"277 513 OFFCURVE",
"277 568 CURVE SMOOTH",
"277 700 LINE",
"45 700 LINE",
"45 567 LINE SMOOTH",
"45 420 OFFCURVE",
"175 340 OFFCURVE",
"382 340 CURVE SMOOTH"
);
}
);
userData = {
RMXScaler = {
height = 95;
weight = 9;
width = 120;
};
};
width = 764;
}
);
unicode = 0222;
userData = {
RMXScaler = {
source = ou;
};
};
},
{
glyphname = Ohorn;
layers = (
{
anchors = (
{
name = bottom;
position = "{438, 0}";
},
{
name = top;
position = "{438, 700}";
}
);
layerId = UUID0;
paths = (
{
closed = 1;
nodes = (
"643 -3 OFFCURVE",
"797 148 OFFCURVE",
"797 350 CURVE SMOOTH",
"797 501 OFFCURVE",
"708 631 OFFCURVE",
"568 680 CURVE",
"555 677 LINE",
"584 672 OFFCURVE",
"625 669 OFFCURVE",
"647 669 CURVE SMOOTH",
"734 669 OFFCURVE",
"777 703 OFFCURVE",
"777 771 CURVE SMOOTH",
"777 797 OFFCURVE",
"768 825 OFFCURVE",
"755 845 CURVE",
"737 837 LINE",
"748 818 OFFCURVE",
"757 796 OFFCURVE",
"757 770 CURVE SMOOTH",
"757 715 OFFCURVE",
"721 688 OFFCURVE",
"647 688 CURVE SMOOTH",
"581 688 OFFCURVE",
"524 703 OFFCURVE",
"438 703 CURVE SMOOTH",
"233 703 OFFCURVE",
"79 552 OFFCURVE",
"79 350 CURVE SMOOTH",
"79 148 OFFCURVE",
"233 -3 OFFCURVE",
"438 -3 CURVE SMOOTH"
);
},
{
closed = 1;
nodes = (
"245 16 OFFCURVE",
"99 161 OFFCURVE",
"99 350 CURVE SMOOTH",
"99 539 OFFCURVE",
"245 684 OFFCURVE",
"438 684 CURVE SMOOTH",
"631 684 OFFCURVE",
"777 539 OFFCURVE",
"777 350 CURVE SMOOTH",
"777 161 OFFCURVE",
"631 16 OFFCURVE",
"438 16 CURVE SMOOTH"
);
}
);
width = 876;
},
{
anchors = (
{
name = bottom;
position = "{423, 0}";
},
{
name = top;
position = "{423, 700}";
}
);
layerId = "5DA6E103-6A94-47F2-987D-4952DB8EA68E";
paths = (
{
closed = 1;
nodes = (
"651 -16 OFFCURVE",
"818 138 OFFCURVE",
"818 350 CURVE SMOOTH",
"818 468 OFFCURVE",
"765 564 OFFCURVE",
"683 625 CURVE",
"423 591 LINE",
"478 584 OFFCURVE",
"534 574 OFFCURVE",
"599 574 CURVE SMOOTH",
"731 574 OFFCURVE",
"819 633 OFFCURVE",
"819 752 CURVE SMOOTH",
"819 797 OFFCURVE",
"805 834 OFFCURVE",
"782 863 CURVE",
"654 818 LINE",
"666 804 OFFCURVE",
"674 783 OFFCURVE",
"674 761 CURVE SMOOTH",
"674 724 OFFCURVE",
"647 703 OFFCURVE",
"607 703 CURVE SMOOTH",
"566 703 OFFCURVE",
"504 716 OFFCURVE",
"433 716 CURVE SMOOTH",
"195 716 OFFCURVE",
"28 562 OFFCURVE",
"28 350 CURVE SMOOTH",
"28 138 OFFCURVE",
"195 -16 OFFCURVE",
"423 -16 CURVE SMOOTH"
);
},
{
closed = 1;
nodes = (
"336 175 OFFCURVE",
"266 241 OFFCURVE",
"266 350 CURVE SMOOTH",
"266 459 OFFCURVE",
"336 525 OFFCURVE",
"423 525 CURVE SMOOTH",
"510 525 OFFCURVE",
"580 459 OFFCURVE",
"580 350 CURVE SMOOTH",
"580 241 OFFCURVE",
"510 175 OFFCURVE",
"423 175 CURVE SMOOTH"
);
}
);
width = 846;
},
{
anchors = (
{
name = bottom;
position = "{431, 0}";
},
{
name = top;
position = "{431, 700}";
}
);
layerId = "708134FE-A11E-43C9-84F0-594DA15B6BD1";
paths = (
{
closed = 1;
nodes = (
"646 -9 OFFCURVE",
"805 143 OFFCURVE",
"805 350 CURVE SMOOTH",
"805 483 OFFCURVE",
"736 597 OFFCURVE",
"636 653 CURVE",
"491 636 LINE",
"531 630 OFFCURVE",
"578 624 OFFCURVE",
"619 624 CURVE SMOOTH",
"730 624 OFFCURVE",
"793 675 OFFCURVE",
"793 762 CURVE SMOOTH",
"793 797 OFFCURVE",
"782 829 OFFCURVE",
"764 854 CURVE",
"696 828 LINE",
"707 811 OFFCURVE",
"716 790 OFFCURVE",
"716 766 CURVE SMOOTH",
"716 719 OFFCURVE",
"683 695 OFFCURVE",
"624 695 CURVE SMOOTH",
"569 695 OFFCURVE",
"514 709 OFFCURVE",
"435 709 CURVE SMOOTH",
"216 709 OFFCURVE",
"56 557 OFFCURVE",
"56 350 CURVE SMOOTH",
"56 144 OFFCURVE",
"215 -9 OFFCURVE",
"431 -9 CURVE SMOOTH"
);
},
{
closed = 1;
nodes = (
"282 93 OFFCURVE",
"171 202 OFFCURVE",
"171 350 CURVE SMOOTH",
"171 498 OFFCURVE",
"282 607 OFFCURVE",
"431 607 CURVE SMOOTH",
"580 607 OFFCURVE",
"690 497 OFFCURVE",
"690 350 CURVE SMOOTH",
"690 203 OFFCURVE",
"580 93 OFFCURVE",
"431 93 CURVE SMOOTH"
);
}
);
width = 861;
}
);
leftKerningGroup = O;
leftMetricsKey = O;
widthMetricsKey = O;
rightKerningGroup = O;
unicode = 01A0;
},
{
color = 4;
glyphname = "Omega-latin";
layers = (
{
background = {
paths = (
{
closed = 1;
nodes = (
"469 -1 OFFCURVE",
"549 100 OFFCURVE",
"549 222 CURVE",
"538 222 LINE",
"538 100 OFFCURVE",
"617 -1 OFFCURVE",
"747 -1 CURVE SMOOTH",
"907 -1 OFFCURVE",
"989 149 OFFCURVE",
"989 324 CURVE SMOOTH",
"989 449 OFFCURVE",
"948 587 OFFCURVE",
"861 700 CURVE",
"836 700 LINE",
"922 595 OFFCURVE",
"969 453 OFFCURVE",
"969 324 CURVE SMOOTH",
"969 160 OFFCURVE",
"893 18 OFFCURVE",
"746 18 CURVE SMOOTH",
"629 18 OFFCURVE",
"553 111 OFFCURVE",
"553 235 CURVE SMOOTH",
"553 415 LINE",
"533 415 LINE",
"533 235 LINE SMOOTH",
"533 111 OFFCURVE",
"459 18 OFFCURVE",
"340 18 CURVE SMOOTH",
"192 18 OFFCURVE",
"117 161 OFFCURVE",
"117 324 CURVE SMOOTH",
"117 453 OFFCURVE",
"164 595 OFFCURVE",
"250 700 CURVE",
"225 700 LINE",
"138 587 OFFCURVE",
"97 449 OFFCURVE",
"97 324 CURVE SMOOTH",
"97 149 OFFCURVE",
"179 -1 OFFCURVE",
"339 -1 CURVE SMOOTH"
);
}
);
};
layerId = UUID0;
paths = (
{
closed = 1;
nodes = (
"469 -1 OFFCURVE",
"549 100 OFFCURVE",
"549 222 CURVE",
"538 222 LINE",
"538 100 OFFCURVE",
"617 -1 OFFCURVE",
"747 -1 CURVE SMOOTH",
"907 -1 OFFCURVE",
"989 149 OFFCURVE",
"989 324 CURVE SMOOTH",
"989 449 OFFCURVE",
"948 587 OFFCURVE",
"861 700 CURVE",
"836 700 LINE",
"922 595 OFFCURVE",
"969 453 OFFCURVE",
"969 324 CURVE SMOOTH",
"969 160 OFFCURVE",
"893 18 OFFCURVE",
"746 18 CURVE SMOOTH",
"629 18 OFFCURVE",
"553 111 OFFCURVE",
"553 235 CURVE SMOOTH",
"553 415 LINE",
"533 415 LINE",
"533 235 LINE SMOOTH",
"533 111 OFFCURVE",
"459 18 OFFCURVE",
"340 18 CURVE SMOOTH",
"192 18 OFFCURVE",
"117 161 OFFCURVE",
"117 324 CURVE SMOOTH",
"117 453 OFFCURVE",
"164 595 OFFCURVE",
"250 700 CURVE",
"225 700 LINE",
"138 587 OFFCURVE",
"97 449 OFFCURVE",
"97 324 CURVE SMOOTH",
"97 149 OFFCURVE",
"179 -1 OFFCURVE",
"339 -1 CURVE SMOOTH"
);
}
);
width = 1086;
},
{
background = {
paths = (
{
closed = 1;
nodes = (
"455 -7 OFFCURVE",
"543 94 OFFCURVE",
"548 210 CURVE",
"496 210 LINE",
"501 93 OFFCURVE",
"590 -7 OFFCURVE",
"729 -7 CURVE SMOOTH",
"910 -7 OFFCURVE",
"992 159 OFFCURVE",
"992 342 CURVE SMOOTH",
"992 467 OFFCURVE",
"952 601 OFFCURVE",
"881 700 CURVE",
"770 700 LINE",
"833 605 OFFCURVE",
"875 460 OFFCURVE",
"875 334 CURVE SMOOTH",
"875 200 OFFCURVE",
"823 86 OFFCURVE",
"711 86 CURVE SMOOTH",
"626 86 OFFCURVE",
"577 152 OFFCURVE",
"577 246 CURVE SMOOTH",
"577 436 LINE",
"467 436 LINE",
"467 246 LINE SMOOTH",
"467 152 OFFCURVE",
"419 86 OFFCURVE",
"333 86 CURVE SMOOTH",
"220 86 OFFCURVE",
"169 200 OFFCURVE",
"169 334 CURVE SMOOTH",
"169 460 OFFCURVE",
"211 605 OFFCURVE",
"274 700 CURVE",
"163 700 LINE",
"91 600 OFFCURVE",
"54 467 OFFCURVE",
"54 342 CURVE SMOOTH",
"54 159 OFFCURVE",
"134 -7 OFFCURVE",
"315 -7 CURVE SMOOTH"
);
}
);
};
layerId = "708134FE-A11E-43C9-84F0-594DA15B6BD1";
paths = (
{
closed = 1;
nodes = (
"457 -7 OFFCURVE",
"554 85 OFFCURVE",
"554 251 CURVE",
"491 251 LINE",
"491 85 OFFCURVE",
"587 -7 OFFCURVE",
"722 -7 CURVE SMOOTH",
"909 -7 OFFCURVE",
"985 167 OFFCURVE",
"985 350 CURVE SMOOTH",
"985 479 OFFCURVE",
"948 612 OFFCURVE",
"879 700 CURVE",
"751 700 LINE",
"832 600 OFFCURVE",
"870 468 OFFCURVE",
"870 351 CURVE SMOOTH",
"870 215 OFFCURVE",
"820 96 OFFCURVE",
"710 96 CURVE SMOOTH",
"636 96 OFFCURVE",
"582 150 OFFCURVE",
"582 280 CURVE SMOOTH",
"582 435 LINE",
"462 435 LINE",
"462 280 LINE SMOOTH",
"462 151 OFFCURVE",
"409 96 OFFCURVE",
"335 96 CURVE SMOOTH",
"227 96 OFFCURVE",
"174 212 OFFCURVE",
"174 350 CURVE SMOOTH",
"174 470 OFFCURVE",
"214 603 OFFCURVE",
"296 700 CURVE",
"168 700 LINE",
"98 614 OFFCURVE",
"60 481 OFFCURVE",
"60 351 CURVE SMOOTH",
"60 168 OFFCURVE",
"136 -7 OFFCURVE",
"322 -7 CURVE SMOOTH"
);
}
);
width = 1045;
},
{
background = {
paths = (
{
closed = 1;
nodes = (
"476 -15 OFFCURVE",
"572 88 OFFCURVE",
"583 194 CURVE",
"478 194 LINE",
"489 85 OFFCURVE",
"589 -15 OFFCURVE",
"741 -15 CURVE SMOOTH",
"947 -15 OFFCURVE",
"1029 174 OFFCURVE",
"1029 365 CURVE SMOOTH",
"1029 490 OFFCURVE",
"991 620 OFFCURVE",
"940 700 CURVE",
"719 700 LINE",
"751 619 OFFCURVE",
"787 468 OFFCURVE",
"787 348 CURVE SMOOTH",
"787 252 OFFCURVE",
"766 173 OFFCURVE",
"700 173 CURVE SMOOTH",
"657 173 OFFCURVE",
"643 206 OFFCURVE",
"643 261 CURVE SMOOTH",
"643 463 LINE",
"418 463 LINE",
"418 261 LINE SMOOTH",
"418 206 OFFCURVE",
"404 173 OFFCURVE",
"361 173 CURVE SMOOTH",
"295 173 OFFCURVE",
"274 252 OFFCURVE",
"274 348 CURVE SMOOTH",
"274 468 OFFCURVE",
"310 619 OFFCURVE",
"342 700 CURVE",
"120 700 LINE",
"69 618 OFFCURVE",
"37 490 OFFCURVE",
"37 365 CURVE SMOOTH",
"37 174 OFFCURVE",
"114 -15 OFFCURVE",
"320 -15 CURVE SMOOTH"
);
}
);
};
layerId = "5DA6E103-6A94-47F2-987D-4952DB8EA68E";
paths = (
{
closed = 1;
nodes = (
"476 -15 OFFCURVE",
"572 88 OFFCURVE",
"583 204 CURVE",
"478 204 LINE",
"489 85 OFFCURVE",
"586 -15 OFFCURVE",
"741 -15 CURVE SMOOTH",
"947 -15 OFFCURVE",
"1029 174 OFFCURVE",
"1029 365 CURVE SMOOTH",
"1029 490 OFFCURVE",
"991 620 OFFCURVE",
"940 700 CURVE",
"719 700 LINE",
"751 619 OFFCURVE",
"787 468 OFFCURVE",
"787 348 CURVE SMOOTH",
"787 252 OFFCURVE",
"766 173 OFFCURVE",
"703 173 CURVE SMOOTH",
"657 173 OFFCURVE",
"643 216 OFFCURVE",
"643 271 CURVE SMOOTH",
"643 473 LINE",
"418 473 LINE",
"418 271 LINE SMOOTH",
"418 216 OFFCURVE",
"404 173 OFFCURVE",
"358 173 CURVE SMOOTH",
"295 173 OFFCURVE",
"274 252 OFFCURVE",
"274 348 CURVE SMOOTH",
"274 468 OFFCURVE",
"310 619 OFFCURVE",
"342 700 CURVE",
"120 700 LINE",
"69 618 OFFCURVE",
"37 490 OFFCURVE",
"37 365 CURVE SMOOTH",
"37 174 OFFCURVE",
"114 -15 OFFCURVE",
"320 -15 CURVE SMOOTH"
);
}
);
width = 1066;
},
{
associatedMasterId = "5DA6E103-6A94-47F2-987D-4952DB8EA68E";
background = {
paths = (
{
closed = 1;
nodes = (
"465 214 LINE",
"465 76 OFFCURVE",
"571 -15 OFFCURVE",
"709 -15 CURVE SMOOTH",
"915 -15 OFFCURVE",
"992 172 OFFCURVE",
"992 370 CURVE SMOOTH",
"992 498 OFFCURVE",
"959 631 OFFCURVE",
"909 719 CURVE",
"692 662 LINE",
"718 596 OFFCURVE",
"751 453 OFFCURVE",
"751 340 CURVE SMOOTH",
"751 252 OFFCURVE",
"731 183 OFFCURVE",
"673 183 CURVE SMOOTH",
"634 183 OFFCURVE",
"620 213 OFFCURVE",
"620 252 CURVE SMOOTH",
"620 381 LINE",
"391 381 LINE",
"391 242 LINE SMOOTH",
"391 230 OFFCURVE",
"391 173 OFFCURVE",
"338 173 CURVE SMOOTH",
"280 173 OFFCURVE",
"260 245 OFFCURVE",
"260 335 CURVE SMOOTH",
"260 450 OFFCURVE",
"292 594 OFFCURVE",
"319 662 CURVE",
"102 719 LINE",
"60 645 OFFCURVE",
"23 501 OFFCURVE",
"23 360 CURVE SMOOTH",
"23 170 OFFCURVE",
"90 -15 OFFCURVE",
"302 -15 CURVE SMOOTH",
"440 -15 OFFCURVE",
"546 76 OFFCURVE",
"546 214 CURVE"
);
}
);
};
layerId = "7BFB4036-95F6-4BE2-BECC-93FE362F14B9";
name = curva;
paths = (
{
closed = 1;
nodes = (
"416 709 LINE",
"395 714 OFFCURVE",
"372 716 OFFCURVE",
"347 716 CURVE SMOOTH",
"157 716 OFFCURVE",
"22 565 OFFCURVE",
"22 350 CURVE SMOOTH",
"22 135 OFFCURVE",
"157 -16 OFFCURVE",
"342 -16 CURVE SMOOTH",
"428 -16 OFFCURVE",
"527 15 OFFCURVE",
"601 73 CURVE",
"467 238 LINE",
"420 192 OFFCURVE",
"387 179 OFFCURVE",
"356 179 CURVE SMOOTH",
"295 179 OFFCURVE",
"260 247 OFFCURVE",
"260 350 CURVE SMOOTH",
"260 456 OFFCURVE",
"295 521 OFFCURVE",
"360 521 CURVE SMOOTH",
"369 521 OFFCURVE",
"377 520 OFFCURVE",
"385 518 CURVE"
);
},
{
closed = 1;
nodes = (
"624 519 LINE",
"631 520 OFFCURVE",
"638 521 OFFCURVE",
"646 521 CURVE SMOOTH",
"711 521 OFFCURVE",
"746 455 OFFCURVE",
"746 350 CURVE SMOOTH",
"746 248 OFFCURVE",
"711 179 OFFCURVE",
"649 179 CURVE SMOOTH",
"613 179 OFFCURVE",
"581 197 OFFCURVE",
"539 238 CURVE",
"404 73 LINE",
"478 15 OFFCURVE",
"579 -16 OFFCURVE",
"664 -16 CURVE SMOOTH",
"849 -16 OFFCURVE",
"984 135 OFFCURVE",
"984 350 CURVE SMOOTH",
"984 565 OFFCURVE",
"849 716 OFFCURVE",
"658 716 CURVE SMOOTH",
"633 716 OFFCURVE",
"611 714 OFFCURVE",
"589 710 CURVE"
);
},
{
closed = 1;
nodes = (
"608 360 LINE",
"396 360 LINE",
"396 73 LINE",
"608 103 LINE"
);
}
);
width = 984;
},
{
associatedMasterId = "708134FE-A11E-43C9-84F0-594DA15B6BD1";
background = {
paths = (
{
closed = 1;
nodes = (
"486 271 LINE",
"486 102 OFFCURVE",
"584 -7 OFFCURVE",
"728 -7 CURVE SMOOTH",
"905 -7 OFFCURVE",
"1001 159 OFFCURVE",
"1001 347 CURVE SMOOTH",
"1001 477 OFFCURVE",
"956 619 OFFCURVE",
"849 725 CURVE",
"751 676 LINE",
"840 597 OFFCURVE",
"886 479 OFFCURVE",
"886 358 CURVE SMOOTH",
"886 222 OFFCURVE",
"827 96 OFFCURVE",
"714 96 CURVE SMOOTH",
"622 96 OFFCURVE",
"578 180 OFFCURVE",
"578 320 CURVE SMOOTH",
"578 361 LINE",
"458 361 LINE",
"458 320 LINE SMOOTH",
"458 180 OFFCURVE",
"414 96 OFFCURVE",
"322 96 CURVE SMOOTH",
"209 96 OFFCURVE",
"150 222 OFFCURVE",
"150 358 CURVE SMOOTH",
"150 479 OFFCURVE",
"196 597 OFFCURVE",
"285 676 CURVE",
"187 725 LINE",
"80 619 OFFCURVE",
"35 477 OFFCURVE",
"35 347 CURVE SMOOTH",
"35 159 OFFCURVE",
"131 -7 OFFCURVE",
"308 -7 CURVE SMOOTH",
"452 -7 OFFCURVE",
"550 102 OFFCURVE",
"550 271 CURVE"
);
}
);
};
layerId = "9029DE54-3FFB-4A2C-BDAA-3EAFC2B1A0A0";
name = curva;
paths = (
{
closed = 1;
nodes = (
"414 699 LINE",
"391 706 OFFCURVE",
"366 709 OFFCURVE",
"339 709 CURVE SMOOTH",
"162 709 OFFCURVE",
"33 558 OFFCURVE",
"33 350 CURVE SMOOTH",
"33 142 OFFCURVE",
"162 -9 OFFCURVE",
"336 -9 CURVE SMOOTH",
"415 -9 OFFCURVE",
"500 21 OFFCURVE",
"559 80 CURVE",
"493 169 LINE",
"446 114 OFFCURVE",
"396 93 OFFCURVE",
"345 93 CURVE SMOOTH",
"228 93 OFFCURVE",
"148 202 OFFCURVE",
"148 351 CURVE SMOOTH",
"148 501 OFFCURVE",
"229 607 OFFCURVE",
"344 607 CURVE SMOOTH",
"361 607 OFFCURVE",
"377 605 OFFCURVE",
"393 600 CURVE"
);
},
{
closed = 1;
nodes = (
"626 604 LINE",
"642 606 OFFCURVE",
"654 607 OFFCURVE",
"666 607 CURVE SMOOTH",
"782 607 OFFCURVE",
"862 500 OFFCURVE",
"862 350 CURVE SMOOTH",
"862 202 OFFCURVE",
"781 93 OFFCURVE",
"667 93 CURVE SMOOTH",
"615 93 OFFCURVE",
"564 114 OFFCURVE",
"517 169 CURVE",
"451 80 LINE",
"511 21 OFFCURVE",
"593 -9 OFFCURVE",
"674 -9 CURVE SMOOTH",
"849 -9 OFFCURVE",
"977 142 OFFCURVE",
"977 350 CURVE SMOOTH",
"977 558 OFFCURVE",
"849 709 OFFCURVE",
"672 709 CURVE SMOOTH",
"650 709 OFFCURVE",
"630 707 OFFCURVE",
"611 703 CURVE"
);
},
{
closed = 1;
nodes = (
"561 332 LINE",
"449 332 LINE",
"449 80 LINE",
"561 95 LINE"
);
}
);
width = 1010;
},
{
associatedMasterId = UUID0;
background = {
paths = (
{
closed = 1;
nodes = (
"507 113 OFFCURVE",
"594 -1 OFFCURVE",
"732 -1 CURVE SMOOTH",
"893 -1 OFFCURVE",
"988 156 OFFCURVE",
"988 327 CURVE SMOOTH",
"988 440 OFFCURVE",
"947 578 OFFCURVE",
"826 705 CURVE",
"812 691 LINE",
"930 565 OFFCURVE",
"968 433 OFFCURVE",
"968 327 CURVE SMOOTH",
"968 165 OFFCURVE",
"880 18 OFFCURVE",
"731 18 CURVE SMOOTH",
"604 18 OFFCURVE",
"526 124 OFFCURVE",
"526 248 CURVE SMOOTH",
"526 344 LINE",
"506 344 LINE",
"506 248 LINE SMOOTH",
"506 124 OFFCURVE",
"428 18 OFFCURVE",
"301 18 CURVE SMOOTH",
"152 18 OFFCURVE",
"64 165 OFFCURVE",
"64 327 CURVE SMOOTH",
"64 433 OFFCURVE",
"102 565 OFFCURVE",
"220 691 CURVE",
"206 705 LINE",
"85 578 OFFCURVE",
"44 440 OFFCURVE",
"44 327 CURVE SMOOTH",
"44 156 OFFCURVE",
"139 -1 OFFCURVE",
"300 -1 CURVE SMOOTH",
"438 -1 OFFCURVE",
"525 113 OFFCURVE",
"525 235 CURVE",
"507 235 LINE"
);
}
);
};
layerId = "1E45CDEF-438E-4DD5-9C96-AC148EAFD543";
name = curva;
paths = (
{
closed = 1;
nodes = (
"411 693 LINE",
"388 700 OFFCURVE",
"363 703 OFFCURVE",
"337 703 CURVE SMOOTH",
"171 703 OFFCURVE",
"47 552 OFFCURVE",
"47 350 CURVE SMOOTH",
"47 148 OFFCURVE",
"171 -3 OFFCURVE",
"337 -3 CURVE SMOOTH",
"413 -3 OFFCURVE",
"483 27 OFFCURVE",
"531 87 CURVE",
"519 102 LINE",
"471 40 OFFCURVE",
"406 16 OFFCURVE",
"341 16 CURVE SMOOTH",
"182 16 OFFCURVE",
"67 161 OFFCURVE",
"67 350 CURVE SMOOTH",
"67 539 OFFCURVE",
"182 684 OFFCURVE",
"340 684 CURVE SMOOTH",
"361 684 OFFCURVE",
"383 681 OFFCURVE",
"405 676 CURVE"
);
},
{
closed = 1;
nodes = (
"637 675 LINE",
"659 681 OFFCURVE",
"682 684 OFFCURVE",
"703 684 CURVE SMOOTH",
"862 684 OFFCURVE",
"976 538 OFFCURVE",
"976 350 CURVE SMOOTH",
"976 162 OFFCURVE",
"862 16 OFFCURVE",
"702 16 CURVE SMOOTH",
"637 16 OFFCURVE",
"573 40 OFFCURVE",
"524 102 CURVE",
"512 87 LINE",
"563 24 OFFCURVE",
"634 -3 OFFCURVE",
"706 -3 CURVE SMOOTH",
"873 -3 OFFCURVE",
"996 149 OFFCURVE",
"996 350 CURVE SMOOTH",
"996 551 OFFCURVE",
"873 703 OFFCURVE",
"706 703 CURVE SMOOTH",
"680 703 OFFCURVE",
"655 700 OFFCURVE",
"631 693 CURVE"
);
},
{
closed = 1;
nodes = (
"531 313 LINE",
"511 313 LINE",
"511 87 LINE",
"531 87 LINE"
);
}
);
width = 1043;
}
);
rightMetricsKey = "=|";
unicode = A7B6;
},
{
glyphname = Oogonek;
layers = (
{
anchors = (
{
name = top;
position = "{418, 700}";
}
);
layerId = UUID0;
paths = (
{
closed = 1;
nodes = (
"441 -213 OFFCURVE",
"465 -205 OFFCURVE",
"487 -186 CURVE",
"476 -171 LINE",
"460 -186 OFFCURVE",
"437 -194 OFFCURVE",
"414 -194 CURVE SMOOTH",
"373 -194 OFFCURVE",
"342 -173 OFFCURVE",
"342 -130 CURVE SMOOTH",
"342 -65 OFFCURVE",
"418 -10 OFFCURVE",
"500 6 CURVE SMOOTH",
"651 36 OFFCURVE",
"777 165 OFFCURVE",
"777 350 CURVE SMOOTH",
"777 552 OFFCURVE",
"623 703 OFFCURVE",
"418 703 CURVE SMOOTH",
"213 703 OFFCURVE",
"59 552 OFFCURVE",
"59 350 CURVE SMOOTH",
"59 148 OFFCURVE",
"213 -3 OFFCURVE",
"418 -3 CURVE SMOOTH",
"426 -3 OFFCURVE",
"433 -2 OFFCURVE",
"441 -1 CURVE",
"459 16 LINE",
"348 -32 OFFCURVE",
"322 -89 OFFCURVE",
"322 -130 CURVE SMOOTH",
"322 -182 OFFCURVE",
"361 -213 OFFCURVE",
"413 -213 CURVE SMOOTH"
);
},
{
closed = 1;
nodes = (
"225 16 OFFCURVE",
"79 159 OFFCURVE",
"79 350 CURVE SMOOTH",
"79 541 OFFCURVE",
"225 684 OFFCURVE",
"418 684 CURVE SMOOTH",
"611 684 OFFCURVE",
"757 541 OFFCURVE",
"757 350 CURVE SMOOTH",
"757 159 OFFCURVE",
"611 16 OFFCURVE",
"418 16 CURVE SMOOTH"
);
}
);
width = 836;
},
{
anchors = (
{
name = top;
position = "{424, 700}";
}
);
layerId = "5DA6E103-6A94-47F2-987D-4952DB8EA68E";
paths = (
{
closed = 1;
nodes = (
"502 -240 OFFCURVE",
"548 -230 OFFCURVE",
"572 -217 CURVE",
"545 -124 LINE",
"530 -131 OFFCURVE",
"508 -138 OFFCURVE",
"486 -138 CURVE SMOOTH",
"449 -138 OFFCURVE",
"433 -120 OFFCURVE",
"433 -97 CURVE SMOOTH",
"433 -64 OFFCURVE",
"463 -29 OFFCURVE",
"564 5 CURVE SMOOTH",
"710 54 OFFCURVE",
"819 178 OFFCURVE",
"819 350 CURVE SMOOTH",
"819 562 OFFCURVE",
"652 716 OFFCURVE",
"424 716 CURVE SMOOTH",
"196 716 OFFCURVE",
"29 562 OFFCURVE",
"29 350 CURVE SMOOTH",
"29 138 OFFCURVE",
"196 -16 OFFCURVE",
"424 -16 CURVE SMOOTH",
"439 -16 OFFCURVE",
"455 -15 OFFCURVE",
"480 -13 CURVE",
"468 49 LINE",
"362 16 OFFCURVE",
"301 -43 OFFCURVE",
"301 -117 CURVE SMOOTH",
"301 -192 OFFCURVE",
"359 -240 OFFCURVE",
"459 -240 CURVE SMOOTH"
);
},
{
closed = 1;
nodes = (
"337 175 OFFCURVE",
"267 241 OFFCURVE",
"267 350 CURVE SMOOTH",
"267 459 OFFCURVE",
"337 525 OFFCURVE",
"424 525 CURVE SMOOTH",
"511 525 OFFCURVE",
"581 459 OFFCURVE",
"581 350 CURVE SMOOTH",
"581 241 OFFCURVE",
"511 175 OFFCURVE",
"424 175 CURVE SMOOTH"
);
}
);
width = 848;
},
{
anchors = (
{
name = top;
position = "{421, 700}";
}
);
layerId = "708134FE-A11E-43C9-84F0-594DA15B6BD1";
paths = (
{
closed = 1;
nodes = (
"466 -226 OFFCURVE",
"500 -217 OFFCURVE",
"525 -203 CURVE",
"505 -147 LINE",
"489 -157 OFFCURVE",
"465 -163 OFFCURVE",
"444 -163 CURVE SMOOTH",
"409 -163 OFFCURVE",
"384 -145 OFFCURVE",
"384 -113 CURVE SMOOTH",
"384 -64 OFFCURVE",
"438 -19 OFFCURVE",
"528 6 CURVE SMOOTH",
"677 45 OFFCURVE",
"795 171 OFFCURVE",
"795 350 CURVE SMOOTH",
"795 557 OFFCURVE",
"636 709 OFFCURVE",
"421 709 CURVE SMOOTH",
"206 709 OFFCURVE",
"46 557 OFFCURVE",
"46 350 CURVE SMOOTH",
"46 143 OFFCURVE",
"206 -9 OFFCURVE",
"421 -9 CURVE SMOOTH",
"432 -9 OFFCURVE",
"443 -8 OFFCURVE",
"458 -7 CURVE",
"451 35 LINE",
"344 -6 OFFCURVE",
"307 -66 OFFCURVE",
"307 -122 CURVE SMOOTH",
"307 -183 OFFCURVE",
"353 -226 OFFCURVE",
"432 -226 CURVE SMOOTH"
);
},
{
closed = 1;
nodes = (
"271 93 OFFCURVE",
"161 202 OFFCURVE",
"161 350 CURVE SMOOTH",
"161 498 OFFCURVE",
"271 607 OFFCURVE",
"421 607 CURVE SMOOTH",
"570 607 OFFCURVE",
"680 498 OFFCURVE",
"680 350 CURVE SMOOTH",
"680 202 OFFCURVE",
"570 93 OFFCURVE",
"421 93 CURVE SMOOTH"
);
}
);
width = 841;
}
);
leftKerningGroup = O;
rightKerningGroup = O;
unicode = 01EA;
},
{
glyphname = OE;
layers = (
{
anchors = (
{
name = bottom;
position = "{607, 0}";
},
{
name = top;
position = "{607, 700}";
}
);
layerId = UUID0;
paths = (
{
closed = 1;
nodes = (
"603 0 LINE",
"603 19 LINE",
"448 19 LINE SMOOTH",
"237 19 OFFCURVE",
"99 158 OFFCURVE",
"99 349 CURVE SMOOTH",
"99 540 OFFCURVE",
"237 681 OFFCURVE",
"448 681 CURVE SMOOTH",
"603 681 LINE",
"603 700 LINE",
"448 700 LINE SMOOTH",
"228 700 OFFCURVE",
"79 551 OFFCURVE",
"79 349 CURVE SMOOTH",
"79 147 OFFCURVE",
"228 0 OFFCURVE",
"448 0 CURVE SMOOTH"
);
},
{
closed = 1;
nodes = (
"1063 0 LINE",
"1063 19 LINE",
"617 19 LINE",
"617 681 LINE",
"1048 681 LINE",
"1048 700 LINE",
"597 700 LINE",
"597 0 LINE"
);
},
{
closed = 1;
nodes = (
"1003 346 LINE",
"1003 365 LINE",
"612 365 LINE",
"612 346 LINE"
);
}
);
width = 1132;
},
{
anchors = (
{
name = bottom;
position = "{648, 0}";
},
{
name = top;
position = "{648, 700}";
}
);
layerId = "5DA6E103-6A94-47F2-987D-4952DB8EA68E";
paths = (
{
closed = 1;
nodes = (
"592 0 LINE",
"592 184 LINE",
"433 184 LINE SMOOTH",
"334 184 OFFCURVE",
"266 243 OFFCURVE",
"266 350 CURVE SMOOTH",
"266 457 OFFCURVE",
"334 516 OFFCURVE",
"433 516 CURVE SMOOTH",
"592 516 LINE",
"592 700 LINE",
"423 700 LINE SMOOTH",
"189 700 OFFCURVE",
"28 567 OFFCURVE",
"28 350 CURVE SMOOTH",
"28 133 OFFCURVE",
"189 0 OFFCURVE",
"423 0 CURVE SMOOTH"
);
},
{
closed = 1;
nodes = (
"1114 0 LINE",
"1114 178 LINE",
"764 178 LINE",
"764 522 LINE",
"1101 522 LINE",
"1101 700 LINE",
"532 700 LINE",
"532 0 LINE"
);
},
{
closed = 1;
nodes = (
"1060 270 LINE",
"1060 440 LINE",
"748 440 LINE",
"748 270 LINE"
);
}
);
width = 1148;
},
{
anchors = (
{
name = bottom;
position = "{624, 0}";
},
{
name = top;
position = "{624, 700}";
}
);
layerId = "708134FE-A11E-43C9-84F0-594DA15B6BD1";
paths = (
{
closed = 1;
nodes = (
"597 0 LINE",
"597 99 LINE",
"442 99 LINE SMOOTH",
"277 99 OFFCURVE",
"171 199 OFFCURVE",
"171 349 CURVE SMOOTH",
"171 501 OFFCURVE",
"277 601 OFFCURVE",
"442 601 CURVE SMOOTH",
"597 601 LINE",
"597 700 LINE",
"436 700 LINE SMOOTH",
"210 700 OFFCURVE",
"56 559 OFFCURVE",
"56 349 CURVE SMOOTH",
"56 141 OFFCURVE",
"210 0 OFFCURVE",
"436 0 CURVE SMOOTH"
);
},
{
closed = 1;
nodes = (
"1084 0 LINE",
"1084 99 LINE",
"682 99 LINE",
"682 601 LINE",
"1070 601 LINE",
"1070 700 LINE",
"568 700 LINE",
"568 0 LINE"
);
},
{
closed = 1;
nodes = (
"1027 307 LINE",
"1027 404 LINE",
"673 404 LINE",
"673 307 LINE"
);
}
);
width = 1138;
}
);
leftKerningGroup = O;
leftMetricsKey = O;
rightKerningGroup = E;
rightMetricsKey = E;
unicode = 0152;
},
{
glyphname = P;
layers = (
{
anchors = (
{
name = hook.af;
position = "{147, 700}";
}
);
layerId = UUID0;
paths = (
{
closed = 1;
nodes = (
"167 0 LINE",
"167 249 LINE",
"158 240 LINE",
"384 240 LINE SMOOTH",
"556 240 OFFCURVE",
"659 325 OFFCURVE",
"659 470 CURVE SMOOTH",
"659 615 OFFCURVE",
"556 700 OFFCURVE",
"384 700 CURVE SMOOTH",
"147 700 LINE",
"147 0 LINE"
);
},
{
closed = 1;
nodes = (
"167 689 LINE",
"158 681 LINE",
"386 681 LINE SMOOTH",
"550 681 OFFCURVE",
"639 604 OFFCURVE",
"639 470 CURVE SMOOTH",
"639 336 OFFCURVE",
"550 259 OFFCURVE",
"386 259 CURVE SMOOTH",
"158 259 LINE",
"167 251 LINE"
);
}
);
width = 724;
},
{
anchors = (
{
name = hook.af;
position = "{66, 700}";
}
);
layerId = "5DA6E103-6A94-47F2-987D-4952DB8EA68E";
paths = (
{
closed = 1;
nodes = (
"302 0 LINE",
"302 273 LINE",
"197 172 LINE",
"403 172 LINE SMOOTH",
"598 172 OFFCURVE",
"722 274 OFFCURVE",
"722 436 CURVE SMOOTH",
"722 598 OFFCURVE",
"598 700 OFFCURVE",
"403 700 CURVE SMOOTH",
"66 700 LINE",
"66 0 LINE"
);
},
{
closed = 1;
nodes = (
"302 625 LINE",
"197 518 LINE",
"388 518 LINE SMOOTH",
"453 518 OFFCURVE",
"484 487 OFFCURVE",
"484 436 CURVE SMOOTH",
"484 385 OFFCURVE",
"453 354 OFFCURVE",
"388 354 CURVE SMOOTH",
"197 354 LINE",
"302 247 LINE"
);
}
);
width = 752;
},
{
anchors = (
{
name = hook.af;
position = "{111, 700}";
}
);
layerId = "708134FE-A11E-43C9-84F0-594DA15B6BD1";
paths = (
{
closed = 1;
nodes = (
"225 0 LINE",
"225 261 LINE",
"174 207 LINE",
"391 207 LINE SMOOTH",
"574 207 OFFCURVE",
"686 300 OFFCURVE",
"686 453 CURVE SMOOTH",
"686 607 OFFCURVE",
"574 700 OFFCURVE",
"391 700 CURVE SMOOTH",
"111 700 LINE",
"111 0 LINE"
);
},
{
closed = 1;
nodes = (
"225 658 LINE",
"174 601 LINE",
"387 601 LINE SMOOTH",
"508 601 OFFCURVE",
"571 547 OFFCURVE",
"571 453 CURVE SMOOTH",
"571 360 OFFCURVE",
"508 306 OFFCURVE",
"387 306 CURVE SMOOTH",
"174 306 LINE",
"225 249 LINE"
);
}
);
width = 735;
}
);
leftKerningGroup = H;
leftMetricsKey = H;
rightKerningGroup = P;
unicode = 0050;
},
{
glyphname = Thorn;
layers = (
{
layerId = UUID0;
paths = (
{
closed = 1;
nodes = (
"384 139 LINE SMOOTH",
"556 139 OFFCURVE",
"659 224 OFFCURVE",
"659 370 CURVE SMOOTH",
"659 515 OFFCURVE",
"556 600 OFFCURVE",
"384 600 CURVE SMOOTH",
"158 600 LINE",
"158 581 LINE",
"386 581 LINE SMOOTH",
"550 581 OFFCURVE",
"639 504 OFFCURVE",
"639 370 CURVE SMOOTH",
"639 235 OFFCURVE",
"550 158 OFFCURVE",
"386 158 CURVE SMOOTH",
"158 158 LINE",
"158 139 LINE"
);
},
{
closed = 1;
nodes = (
"167 0 LINE",
"167 700 LINE",
"147 700 LINE",
"147 0 LINE"
);
}
);
width = 724;
},
{
layerId = "5DA6E103-6A94-47F2-987D-4952DB8EA68E";
paths = (
{
closed = 1;
nodes = (
"403 105 LINE SMOOTH",
"598 105 OFFCURVE",
"722 207 OFFCURVE",
"722 369 CURVE SMOOTH",
"722 531 OFFCURVE",
"598 633 OFFCURVE",
"403 633 CURVE SMOOTH",
"254 633 LINE",
"254 451 LINE",
"388 451 LINE SMOOTH",
"453 451 OFFCURVE",
"484 420 OFFCURVE",
"484 369 CURVE SMOOTH",
"484 318 OFFCURVE",
"453 287 OFFCURVE",
"388 287 CURVE SMOOTH",
"254 287 LINE",
"254 105 LINE"
);
},
{
closed = 1;
nodes = (
"302 0 LINE",
"302 701 LINE",
"66 701 LINE",
"66 0 LINE"
);
}
);
width = 752;
},
{
layerId = "708134FE-A11E-43C9-84F0-594DA15B6BD1";
paths = (
{
closed = 1;
nodes = (
"391 122 LINE SMOOTH",
"574 122 OFFCURVE",
"686 216 OFFCURVE",
"686 369 CURVE SMOOTH",
"686 522 OFFCURVE",
"574 616 OFFCURVE",
"391 616 CURVE SMOOTH",
"199 616 LINE",
"199 517 LINE",
"387 517 LINE SMOOTH",
"508 517 OFFCURVE",
"571 463 OFFCURVE",
"571 369 CURVE SMOOTH",
"571 275 OFFCURVE",
"508 221 OFFCURVE",
"387 221 CURVE SMOOTH",
"199 221 LINE",
"199 122 LINE"
);
},
{
closed = 1;
nodes = (
"225 0 LINE",
"225 700 LINE",
"111 700 LINE",
"111 0 LINE"
);
}
);
width = 735;
}
);
leftKerningGroup = H;
leftMetricsKey = H;
rightKerningGroup = Thorn;
rightMetricsKey = P;
unicode = 00DE;
},
{
color = 4;
glyphname = Pstroke;
layers = (
{
anchors = (
{
name = hook.af;
position = "{133, 700}";
}
);
layerId = UUID0;
paths = (
{
closed = 1;
nodes = (
"153 0 LINE",
"153 249 LINE",
"144 240 LINE",
"370 240 LINE SMOOTH",
"542 240 OFFCURVE",
"645 325 OFFCURVE",
"645 470 CURVE SMOOTH",
"645 615 OFFCURVE",
"542 700 OFFCURVE",
"370 700 CURVE SMOOTH",
"133 700 LINE",
"133 0 LINE"
);
},
{
closed = 1;
nodes = (
"339 467 LINE",
"339 486 LINE",
"23 486 LINE",
"23 467 LINE"
);
},
{
closed = 1;
nodes = (
"153 689 LINE",
"144 681 LINE",
"372 681 LINE SMOOTH",
"536 681 OFFCURVE",
"625 604 OFFCURVE",
"625 470 CURVE SMOOTH",
"625 336 OFFCURVE",
"536 259 OFFCURVE",
"372 259 CURVE SMOOTH",
"144 259 LINE",
"153 251 LINE"
);
}
);
width = 710;
},
{
anchors = (
{
name = hook.af;
position = "{100, 700}";
}
);
layerId = "708134FE-A11E-43C9-84F0-594DA15B6BD1";
paths = (
{
closed = 1;
nodes = (
"214 0 LINE",
"214 261 LINE",
"163 207 LINE",
"380 207 LINE SMOOTH",
"563 207 OFFCURVE",
"675 300 OFFCURVE",
"675 453 CURVE SMOOTH",
"675 607 OFFCURVE",
"563 700 OFFCURVE",
"380 700 CURVE SMOOTH",
"100 700 LINE",
"100 0 LINE"
);
},
{
closed = 1;
nodes = (
"361 411 LINE",
"361 499 LINE",
"1 499 LINE",
"1 411 LINE"
);
},
{
closed = 1;
nodes = (
"214 658 LINE",
"163 601 LINE",
"376 601 LINE SMOOTH",
"497 601 OFFCURVE",
"560 547 OFFCURVE",
"560 453 CURVE SMOOTH",
"560 360 OFFCURVE",
"497 306 OFFCURVE",
"376 306 CURVE SMOOTH",
"163 306 LINE",
"214 249 LINE"
);
}
);
width = 724;
},
{
anchors = (
{
name = hook.af;
position = "{57, 700}";
}
);
layerId = "5DA6E103-6A94-47F2-987D-4952DB8EA68E";
paths = (
{
closed = 1;
nodes = (
"293 0 LINE",
"293 273 LINE",
"188 172 LINE",
"394 172 LINE SMOOTH",
"589 172 OFFCURVE",
"713 274 OFFCURVE",
"713 436 CURVE SMOOTH",
"713 598 OFFCURVE",
"589 700 OFFCURVE",
"394 700 CURVE SMOOTH",
"57 700 LINE",
"57 0 LINE"
);
},
{
closed = 1;
nodes = (
"388 369 LINE",
"388 503 LINE",
"-26 503 LINE",
"-26 369 LINE"
);
},
{
closed = 1;
nodes = (
"293 625 LINE",
"188 518 LINE",
"379 518 LINE SMOOTH",
"444 518 OFFCURVE",
"475 487 OFFCURVE",
"475 436 CURVE SMOOTH",
"475 385 OFFCURVE",
"444 354 OFFCURVE",
"379 354 CURVE SMOOTH",
"188 354 LINE",
"293 247 LINE"
);
}
);
width = 743;
}
);
unicode = 2C63;
},
{
glyphname = Q;
layers = (
{
anchors = (
{
name = top;
position = "{438, 700}";
}
);
layerId = UUID0;
paths = (
{
closed = 1;
nodes = (
"643 -3 OFFCURVE",
"797 148 OFFCURVE",
"797 350 CURVE SMOOTH",
"797 552 OFFCURVE",
"643 703 OFFCURVE",
"438 703 CURVE SMOOTH",
"233 703 OFFCURVE",
"79 552 OFFCURVE",
"79 350 CURVE SMOOTH",
"79 148 OFFCURVE",
"233 -3 OFFCURVE",
"438 -3 CURVE SMOOTH"
);
},
{
closed = 1;
nodes = (
"731 -124 OFFCURVE",
"786 -98 OFFCURVE",
"827 -48 CURVE",
"813 -34 LINE",
"773 -82 OFFCURVE",
"726 -105 OFFCURVE",
"668 -105 CURVE SMOOTH",
"605 -105 OFFCURVE",
"539 -67 OFFCURVE",
"471 8 CURVE",
"445 3 LINE",
"529 -85 OFFCURVE",
"597 -124 OFFCURVE",
"668 -124 CURVE SMOOTH"
);
},
{
closed = 1;
nodes = (
"245 16 OFFCURVE",
"99 161 OFFCURVE",
"99 350 CURVE SMOOTH",
"99 539 OFFCURVE",
"245 684 OFFCURVE",
"438 684 CURVE SMOOTH",
"631 684 OFFCURVE",
"777 539 OFFCURVE",
"777 350 CURVE SMOOTH",
"777 161 OFFCURVE",
"631 16 OFFCURVE",
"438 16 CURVE SMOOTH"
);
}
);
width = 876;
},
{
anchors = (
{
name = top;
position = "{424, 700}";
}
);
layerId = "5DA6E103-6A94-47F2-987D-4952DB8EA68E";
paths = (
{
closed = 1;
nodes = (
"651 -16 OFFCURVE",
"818 138 OFFCURVE",
"818 350 CURVE SMOOTH",
"818 562 OFFCURVE",
"651 716 OFFCURVE",
"423 716 CURVE SMOOTH",
"195 716 OFFCURVE",
"28 562 OFFCURVE",
"28 350 CURVE SMOOTH",
"28 138 OFFCURVE",
"195 -16 OFFCURVE",
"423 -16 CURVE SMOOTH"
);
},
{
closed = 1;
nodes = (
"736 -177 OFFCURVE",
"807 -146 OFFCURVE",
"856 -88 CURVE",
"754 32 LINE",
"725 3 OFFCURVE",
"691 -13 OFFCURVE",
"657 -13 CURVE SMOOTH",
"615 -13 OFFCURVE",
"592 6 OFFCURVE",
"545 80 CURVE",
"301 20 LINE",
"441 -133 OFFCURVE",
"520 -177 OFFCURVE",
"652 -177 CURVE SMOOTH"
);
},
{
closed = 1;
nodes = (
"336 175 OFFCURVE",
"266 241 OFFCURVE",
"266 350 CURVE SMOOTH",
"266 459 OFFCURVE",
"336 525 OFFCURVE",
"423 525 CURVE SMOOTH",
"510 525 OFFCURVE",
"580 459 OFFCURVE",
"580 350 CURVE SMOOTH",
"580 241 OFFCURVE",
"510 175 OFFCURVE",
"423 175 CURVE SMOOTH"
);
}
);
width = 846;
},
{
anchors = (
{
name = top;
position = "{431, 700}";
}
);
layerId = "708134FE-A11E-43C9-84F0-594DA15B6BD1";
paths = (
{
closed = 1;
nodes = (
"646 -9 OFFCURVE",
"805 143 OFFCURVE",
"805 350 CURVE SMOOTH",
"805 557 OFFCURVE",
"646 709 OFFCURVE",
"431 709 CURVE SMOOTH",
"215 709 OFFCURVE",
"56 556 OFFCURVE",
"56 350 CURVE SMOOTH",
"56 144 OFFCURVE",
"215 -9 OFFCURVE",
"431 -9 CURVE SMOOTH"
);
},
{
closed = 1;
nodes = (
"732 -150 OFFCURVE",
"794 -121 OFFCURVE",
"839 -67 CURVE",
"786 -2 LINE",
"751 -41 OFFCURVE",
"710 -60 OFFCURVE",
"662 -60 CURVE SMOOTH",
"609 -60 OFFCURVE",
"561 -32 OFFCURVE",
"503 43 CURVE",
"381 11 LINE",
"490 -108 OFFCURVE",
"563 -150 OFFCURVE",
"660 -150 CURVE SMOOTH"
);
},
{
closed = 1;
nodes = (
"281 93 OFFCURVE",
"171 202 OFFCURVE",
"171 350 CURVE SMOOTH",
"171 498 OFFCURVE",
"281 607 OFFCURVE",
"431 607 CURVE SMOOTH",
"580 607 OFFCURVE",
"690 498 OFFCURVE",
"690 350 CURVE SMOOTH",
"690 202 OFFCURVE",
"580 93 OFFCURVE",
"431 93 CURVE SMOOTH"
);
}
);
width = 861;
}
);
leftKerningGroup = O;
leftMetricsKey = O;
widthMetricsKey = O;
rightKerningGroup = O;
unicode = 0051;
},
{
color = 3;
glyphname = Qhooktail;
layers = (
{
anchors = (
{
name = bottom;
position = "{438, 0}";
},
{
name = center;
position = "{438, 350}";
},
{
name = ogonek;
position = "{489, 0}";
},
{
name = top;
position = "{438, 700}";
},
{
name = topleft;
position = "{79, 700}";
},
{
name = topright;
position = "{687, 700}";
}
);
background = {
paths = (
{
closed = 1;
nodes = (
"776 -205 OFFCURVE",
"927 -230 OFFCURVE",
"1007 -156 CURVE",
"1007 -178 LINE",
"980 -137 LINE",
"999 -140 LINE",
"923 -207 OFFCURVE",
"796 -186 OFFCURVE",
"796 -63 CURVE SMOOTH",
"796 686 LINE",
"776 686 LINE",
"776 -66 LINE SMOOTH"
);
}
);
};
layerId = UUID0;
paths = (
{
closed = 1;
nodes = (
"642 -3 OFFCURVE",
"795 148 OFFCURVE",
"795 350 CURVE SMOOTH",
"795 552 OFFCURVE",
"642 703 OFFCURVE",
"438 703 CURVE SMOOTH",
"233 703 OFFCURVE",
"79 552 OFFCURVE",
"79 350 CURVE SMOOTH",
"79 148 OFFCURVE",
"233 -3 OFFCURVE",
"438 -3 CURVE SMOOTH"
);
},
{
closed = 1;
nodes = (
"245 16 OFFCURVE",
"99 159 OFFCURVE",
"99 350 CURVE SMOOTH",
"99 541 OFFCURVE",
"245 684 OFFCURVE",
"438 684 CURVE SMOOTH",
"631 684 OFFCURVE",
"777 541 OFFCURVE",
"777 350 CURVE SMOOTH",
"777 159 OFFCURVE",
"631 16 OFFCURVE",
"438 16 CURVE SMOOTH"
);
},
{
closed = 1;
nodes = (
"950 -146 LINE",
"992 -143 LINE",
"920 -202 OFFCURVE",
"796 -184 OFFCURVE",
"796 -63 CURVE SMOOTH",
"796 686 LINE",
"776 686 LINE",
"776 448 LINE",
"779 350 LINE",
"776 275 LINE",
"776 -64 LINE SMOOTH",
"776 -202 OFFCURVE",
"922 -230 OFFCURVE",
"1003 -157 CURVE",
"970 -197 LINE"
);
}
);
width = 943;
},
{
anchors = (
{
name = bottom;
position = "{427, 0}";
},
{
name = center;
position = "{427, 350}";
},
{
name = ogonek;
position = "{509, 0}";
},
{
name = top;
position = "{427, 700}";
},
{
name = topleft;
position = "{54, 700}";
},
{
name = topright;
position = "{639, 700}";
}
);
layerId = "708134FE-A11E-43C9-84F0-594DA15B6BD1";
paths = (
{
closed = 1;
nodes = (
"627 -9 OFFCURVE",
"776 143 OFFCURVE",
"776 350 CURVE SMOOTH",
"776 557 OFFCURVE",
"627 709 OFFCURVE",
"422 709 CURVE SMOOTH",
"213 709 OFFCURVE",
"56 556 OFFCURVE",
"56 350 CURVE SMOOTH",
"56 144 OFFCURVE",
"213 -9 OFFCURVE",
"422 -9 CURVE SMOOTH"
);
},
{
closed = 1;
nodes = (
"281 93 OFFCURVE",
"171 202 OFFCURVE",
"171 350 CURVE SMOOTH",
"171 498 OFFCURVE",
"281 607 OFFCURVE",
"431 607 CURVE SMOOTH",
"580 607 OFFCURVE",
"690 498 OFFCURVE",
"690 350 CURVE SMOOTH",
"690 202 OFFCURVE",
"580 93 OFFCURVE",
"431 93 CURVE SMOOTH"
);
},
{
closed = 1;
nodes = (
"910 -39 LINE",
"980 -59 LINE",
"913 -132 OFFCURVE",
"799 -121 OFFCURVE",
"799 -27 CURVE SMOOTH",
"799 700 LINE",
"685 700 LINE",
"685 544 LINE",
"700 351 LINE",
"685 143 LINE",
"685 -31 LINE SMOOTH",
"685 -212 OFFCURVE",
"891 -245 OFFCURVE",
"1009 -148 CURVE",
"975 -214 LINE"
);
}
);
width = 910;
},
{
anchors = (
{
name = bottom;
position = "{424, 0}";
},
{
name = center;
position = "{424, 350}";
},
{
name = ogonek;
position = "{547, 0}";
},
{
name = top;
position = "{424, 700}";
},
{
name = topleft;
position = "{34, 700}";
},
{
name = topright;
position = "{590, 700}";
}
);
background = {
anchors = (
{
name = bottom;
position = "{424, 0}";
},
{
name = center;
position = "{424, 350}";
},
{
name = ogonek;
position = "{547, 0}";
},
{
name = top;
position = "{424, 700}";
},
{
name = topleft;
position = "{34, 700}";
},
{
name = topright;
position = "{590, 700}";
}
);
paths = (
{
closed = 1;
nodes = (
"583 -16 OFFCURVE",
"710 138 OFFCURVE",
"710 350 CURVE SMOOTH",
"710 562 OFFCURVE",
"583 716 OFFCURVE",
"386 716 CURVE SMOOTH",
"189 716 OFFCURVE",
"29 562 OFFCURVE",
"29 350 CURVE SMOOTH",
"29 138 OFFCURVE",
"189 -16 OFFCURVE",
"386 -16 CURVE SMOOTH"
);
},
{
closed = 1;
nodes = (
"337 175 OFFCURVE",
"267 241 OFFCURVE",
"267 350 CURVE SMOOTH",
"267 459 OFFCURVE",
"337 525 OFFCURVE",
"424 525 CURVE SMOOTH",
"511 525 OFFCURVE",
"581 459 OFFCURVE",
"581 350 CURVE SMOOTH",
"581 241 OFFCURVE",
"511 175 OFFCURVE",
"424 175 CURVE SMOOTH"
);
},
{
closed = 1;
nodes = (
"574 -215 OFFCURVE",
"815 -254 OFFCURVE",
"993 -162 CURVE",
"977 -191 LINE",
"908 7 LINE",
"938 -2 LINE",
"873 -49 OFFCURVE",
"810 -40 OFFCURVE",
"810 23 CURVE SMOOTH",
"810 700 LINE",
"574 700 LINE",
"574 580 LINE",
"600 350 LINE",
"574 166 LINE",
"574 12 LINE SMOOTH"
);
}
);
};
layerId = "5DA6E103-6A94-47F2-987D-4952DB8EA68E";
paths = (
{
closed = 1;
nodes = (
"567 -16 OFFCURVE",
"690 138 OFFCURVE",
"690 350 CURVE SMOOTH",
"690 562 OFFCURVE",
"567 716 OFFCURVE",
"376 716 CURVE SMOOTH",
"184 716 OFFCURVE",
"29 562 OFFCURVE",
"29 350 CURVE SMOOTH",
"29 138 OFFCURVE",
"184 -16 OFFCURVE",
"376 -16 CURVE SMOOTH"
);
},
{
closed = 1;
nodes = (
"328 175 OFFCURVE",
"267 243 OFFCURVE",
"267 350 CURVE SMOOTH",
"267 457 OFFCURVE",
"328 525 OFFCURVE",
"424 525 CURVE SMOOTH",
"520 525 OFFCURVE",
"581 457 OFFCURVE",
"581 350 CURVE SMOOTH",
"581 243 OFFCURVE",
"520 175 OFFCURVE",
"424 175 CURVE SMOOTH"
);
},
{
closed = 1;
nodes = (
"886 7 LINE",
"933 -2 LINE",
"868 -49 OFFCURVE",
"810 -36 OFFCURVE",
"810 18 CURVE SMOOTH",
"810 700 LINE",
"574 700 LINE",
"581 580 LINE",
"600 350 LINE",
"574 166 LINE",
"574 18 LINE SMOOTH",
"574 -215 OFFCURVE",
"810 -254 OFFCURVE",
"988 -162 CURVE",
"947 -191 LINE"
);
}
);
width = 915;
}
);
rightKerningGroup = Qhooktail;
unicode = 024A;
},
{
glyphname = R;
layers = (
{
anchors = (
{
name = bottom;
position = "{380, 0}";
},
{
name = top;
position = "{380, 700}";
}
);
layerId = UUID0;
paths = (
{
closed = 1;
nodes = (
"167 0 LINE",
"167 249 LINE",
"158 240 LINE",
"384 240 LINE SMOOTH",
"556 240 OFFCURVE",
"659 325 OFFCURVE",
"659 470 CURVE SMOOTH",
"659 615 OFFCURVE",
"556 700 OFFCURVE",
"384 700 CURVE SMOOTH",
"147 700 LINE",
"147 0 LINE"
);
},
{
closed = 1;
nodes = (
"669 0 LINE",
"486 254 LINE",
"461 254 LINE",
"644 0 LINE"
);
},
{
closed = 1;
nodes = (
"167 689 LINE",
"158 681 LINE",
"386 681 LINE SMOOTH",
"550 681 OFFCURVE",
"639 604 OFFCURVE",
"639 470 CURVE SMOOTH",
"639 336 OFFCURVE",
"550 259 OFFCURVE",
"386 259 CURVE SMOOTH",
"158 259 LINE",
"167 251 LINE"
);
}
);
width = 730;
},
{
anchors = (
{
name = bottom;
position = "{388, 0}";
},
{
name = top;
position = "{388, 700}";
}
);
layerId = "5DA6E103-6A94-47F2-987D-4952DB8EA68E";
paths = (
{
closed = 1;
nodes = (
"302 0 LINE",
"302 273 LINE",
"197 176 LINE",
"403 176 LINE SMOOTH",
"598 176 OFFCURVE",
"722 274 OFFCURVE",
"722 436 CURVE SMOOTH",
"722 598 OFFCURVE",
"598 700 OFFCURVE",
"403 700 CURVE SMOOTH",
"66 700 LINE",
"66 0 LINE"
);
},
{
closed = 1;
nodes = (
"737 0 LINE",
"563 255 LINE",
"313 255 LINE",
"485 0 LINE"
);
},
{
closed = 1;
nodes = (
"302 625 LINE",
"197 518 LINE",
"388 518 LINE SMOOTH",
"453 518 OFFCURVE",
"484 487 OFFCURVE",
"484 436 CURVE SMOOTH",
"484 385 OFFCURVE",
"453 354 OFFCURVE",
"388 354 CURVE SMOOTH",
"197 354 LINE",
"302 247 LINE"
);
}
);
width = 754;
},
{
anchors = (
{
name = bottom;
position = "{383, 0}";
},
{
name = top;
position = "{383, 700}";
}
);
layerId = "708134FE-A11E-43C9-84F0-594DA15B6BD1";
paths = (
{
closed = 1;
nodes = (
"225 0 LINE",
"225 261 LINE",
"174 208 LINE",
"391 208 LINE SMOOTH",
"574 208 OFFCURVE",
"686 300 OFFCURVE",
"686 453 CURVE SMOOTH",
"686 607 OFFCURVE",
"574 700 OFFCURVE",
"391 700 CURVE SMOOTH",
"111 700 LINE",
"111 0 LINE"
);
},
{
closed = 1;
nodes = (
"698 0 LINE",
"519 254 LINE",
"396 254 LINE",
"574 0 LINE"
);
},
{
closed = 1;
nodes = (
"225 658 LINE",
"174 601 LINE",
"387 601 LINE SMOOTH",
"508 601 OFFCURVE",
"571 547 OFFCURVE",
"571 453 CURVE SMOOTH",
"571 360 OFFCURVE",
"508 305 OFFCURVE",
"387 305 CURVE SMOOTH",
"174 305 LINE",
"225 249 LINE"
);
}
);
width = 740;
}
);
leftKerningGroup = H;
leftMetricsKey = H;
rightKerningGroup = R;
unicode = 0052;
},
{
color = 3;
glyphname = Rtail;
layers = (
{
anchors = (
{
name = bottom;
position = "{380, 0}";
},
{
name = top;
position = "{380, 700}";
}
);
layerId = UUID0;
paths = (
{
closed = 1;
nodes = (
"351 -137 LINE",
"370 -140 LINE",
"294 -207 OFFCURVE",
"167 -186 OFFCURVE",
"167 -63 CURVE SMOOTH",
"167 249 LINE",
"158 240 LINE",
"384 240 LINE SMOOTH",
"556 240 OFFCURVE",
"659 325 OFFCURVE",
"659 470 CURVE SMOOTH",
"659 615 OFFCURVE",
"556 700 OFFCURVE",
"384 700 CURVE SMOOTH",
"147 700 LINE",
"147 -66 LINE SMOOTH",
"147 -205 OFFCURVE",
"298 -230 OFFCURVE",
"378 -156 CURVE",
"378 -178 LINE"
);
},
{
closed = 1;
nodes = (
"669 0 LINE",
"486 254 LINE",
"461 254 LINE",
"644 0 LINE"
);
},
{
closed = 1;
nodes = (
"167 689 LINE",
"158 681 LINE",
"386 681 LINE SMOOTH",
"550 681 OFFCURVE",
"639 604 OFFCURVE",
"639 470 CURVE SMOOTH",
"639 336 OFFCURVE",
"550 259 OFFCURVE",
"386 259 CURVE SMOOTH",
"158 259 LINE",
"167 251 LINE"
);
}
);
width = 754;
},
{
anchors = (
{
name = bottom;
position = "{384, 0}";
},
{
name = top;
position = "{384, 700}";
}
);
layerId = "708134FE-A11E-43C9-84F0-594DA15B6BD1";
paths = (
{
closed = 1;
nodes = (
"337 -39 LINE",
"407 -59 LINE",
"340 -132 OFFCURVE",
"226 -121 OFFCURVE",
"226 -27 CURVE SMOOTH",
"226 261 LINE",
"175 208 LINE",
"392 208 LINE SMOOTH",
"575 208 OFFCURVE",
"687 300 OFFCURVE",
"687 453 CURVE SMOOTH",
"687 607 OFFCURVE",
"575 700 OFFCURVE",
"392 700 CURVE SMOOTH",
"112 700 LINE",
"112 -31 LINE SMOOTH",
"112 -212 OFFCURVE",
"318 -245 OFFCURVE",
"436 -148 CURVE",
"402 -214 LINE"
);
},
{
closed = 1;
nodes = (
"699 0 LINE",
"520 254 LINE",
"397 254 LINE",
"575 0 LINE"
);
},
{
closed = 1;
nodes = (
"226 658 LINE",
"175 601 LINE",
"388 601 LINE SMOOTH",
"509 601 OFFCURVE",
"572 547 OFFCURVE",
"572 453 CURVE SMOOTH",
"572 360 OFFCURVE",
"509 305 OFFCURVE",
"388 305 CURVE SMOOTH",
"175 305 LINE",
"226 249 LINE"
);
}
);
width = 753;
},
{
anchors = (
{
name = bottom;
position = "{388, 0}";
},
{
name = top;
position = "{388, 700}";
}
);
background = {
paths = (
{
closed = 0;
nodes = (
"218 18 LINE SMOOTH",
"218 -215 OFFCURVE",
"459 -254 OFFCURVE",
"637 -162 CURVE",
"621 -191 LINE",
"552 7 LINE",
"582 -2 LINE",
"517 -49 OFFCURVE",
"454 -40 OFFCURVE",
"454 18 CURVE SMOOTH"
);
}
);
};
layerId = "5DA6E103-6A94-47F2-987D-4952DB8EA68E";
paths = (
{
closed = 1;
nodes = (
"400 7 LINE",
"430 -2 LINE",
"365 -49 OFFCURVE",
"302 -40 OFFCURVE",
"302 18 CURVE SMOOTH",
"302 273 LINE",
"197 176 LINE",
"403 176 LINE SMOOTH",
"598 176 OFFCURVE",
"722 274 OFFCURVE",
"722 436 CURVE SMOOTH",
"722 598 OFFCURVE",
"598 700 OFFCURVE",
"403 700 CURVE SMOOTH",
"66 700 LINE",
"66 18 LINE SMOOTH",
"66 -215 OFFCURVE",
"307 -254 OFFCURVE",
"485 -162 CURVE",
"469 -191 LINE"
);
},
{
closed = 1;
nodes = (
"737 0 LINE",
"563 255 LINE",
"313 255 LINE",
"485 0 LINE"
);
},
{
closed = 1;
nodes = (
"302 625 LINE",
"197 518 LINE",
"388 518 LINE SMOOTH",
"453 518 OFFCURVE",
"484 487 OFFCURVE",
"484 436 CURVE SMOOTH",
"484 385 OFFCURVE",
"453 354 OFFCURVE",
"388 354 CURVE SMOOTH",
"197 354 LINE",
"302 247 LINE"
);
}
);
width = 759;
}
);
unicode = 2C64;
},
{
glyphname = S;
layers = (
{
anchors = (
{
name = bottom;
position = "{318, 0}";
},
{
name = top;
position = "{318, 700}";
}
);
layerId = UUID0;
paths = (
{
closed = 1;
nodes = (
"470 -3 OFFCURVE",
"543 79 OFFCURVE",
"543 172 CURVE SMOOTH",
"543 425 OFFCURVE",
"98 290 OFFCURVE",
"98 526 CURVE SMOOTH",
"98 613 OFFCURVE",
"166 684 OFFCURVE",
"313 684 CURVE SMOOTH",
"376 684 OFFCURVE",
"448 664 OFFCURVE",
"504 623 CURVE",
"515 639 LINE",
"464 678 OFFCURVE",
"387 703 OFFCURVE",
"312 703 CURVE SMOOTH",
"148 703 OFFCURVE",
"78 619 OFFCURVE",
"78 527 CURVE SMOOTH",
"78 269 OFFCURVE",
"523 407 OFFCURVE",
"523 172 CURVE SMOOTH",
"523 86 OFFCURVE",
"455 16 OFFCURVE",
"303 16 CURVE SMOOTH",
"205 16 OFFCURVE",
"116 57 OFFCURVE",
"72 109 CURVE",
"58 96 LINE",
"105 38 OFFCURVE",
"202 -3 OFFCURVE",
"304 -3 CURVE SMOOTH"
);
}
);
width = 601;
},
{
anchors = (
{
name = bottom;
position = "{329, 0}";
},
{
name = top;
position = "{329, 700}";
}
);
layerId = "5DA6E103-6A94-47F2-987D-4952DB8EA68E";
paths = (
{
closed = 1;
nodes = (
"535 -16 OFFCURVE",
"644 92 OFFCURVE",
"644 220 CURVE SMOOTH",
"644 478 OFFCURVE",
"257 408 OFFCURVE",
"257 492 CURVE SMOOTH",
"257 516 OFFCURVE",
"279 536 OFFCURVE",
"348 536 CURVE SMOOTH",
"409 536 OFFCURVE",
"474 519 OFFCURVE",
"543 484 CURVE",
"614 655 LINE",
"541 696 OFFCURVE",
"444 716 OFFCURVE",
"350 716 CURVE SMOOTH",
"133 716 OFFCURVE",
"24 610 OFFCURVE",
"24 480 CURVE SMOOTH",
"24 219 OFFCURVE",
"411 290 OFFCURVE",
"411 202 CURVE SMOOTH",
"411 178 OFFCURVE",
"387 164 OFFCURVE",
"320 164 CURVE SMOOTH",
"243 164 OFFCURVE",
"155 189 OFFCURVE",
"89 228 CURVE",
"13 56 LINE",
"83 13 OFFCURVE",
"201 -16 OFFCURVE",
"318 -16 CURVE SMOOTH"
);
}
);
width = 657;
},
{
anchors = (
{
name = bottom;
position = "{323, 0}";
},
{
name = top;
position = "{323, 700}";
}
);
layerId = "708134FE-A11E-43C9-84F0-594DA15B6BD1";
paths = (
{
closed = 1;
nodes = (
"498 -9 OFFCURVE",
"587 85 OFFCURVE",
"587 195 CURVE SMOOTH",
"587 452 OFFCURVE",
"167 350 OFFCURVE",
"167 509 CURVE SMOOTH",
"167 566 OFFCURVE",
"215 612 OFFCURVE",
"328 612 CURVE SMOOTH",
"390 612 OFFCURVE",
"459 594 OFFCURVE",
"521 556 CURVE",
"558 647 LINE",
"498 687 OFFCURVE",
"412 709 OFFCURVE",
"329 709 CURVE SMOOTH",
"141 709 OFFCURVE",
"54 615 OFFCURVE",
"54 504 CURVE SMOOTH",
"54 244 OFFCURVE",
"474 347 OFFCURVE",
"474 187 CURVE SMOOTH",
"474 131 OFFCURVE",
"425 88 OFFCURVE",
"310 88 CURVE SMOOTH",
"222 88 OFFCURVE",
"133 121 OFFCURVE",
"79 167 CURVE",
"38 77 LINE",
"95 26 OFFCURVE",
"202 -9 OFFCURVE",
"310 -9 CURVE SMOOTH"
);
}
);
width = 625;
}
);
leftKerningGroup = S;
rightKerningGroup = S;
unicode = 0053;
},
{
glyphname = Saltillo;
layers = (
{
layerId = UUID0;
paths = (
{
closed = 1;
nodes = (
"114 299 LINE",
"114 700 LINE",
"94 700 LINE",
"94 299 LINE"
);
}
);
width = 208;
},
{
layerId = "5DA6E103-6A94-47F2-987D-4952DB8EA68E";
paths = (
{
closed = 1;
nodes = (
"257 296 LINE",
"287 701 LINE",
"55 701 LINE",
"55 296 LINE"
);
}
);
width = 342;
},
{
layerId = "708134FE-A11E-43C9-84F0-594DA15B6BD1";
paths = (
{
closed = 1;
nodes = (
"176 297 LINE",
"190 700 LINE",
"77 700 LINE",
"77 297 LINE"
);
}
);
width = 267;
}
);
leftKerningGroup = superior;
rightKerningGroup = superior;
unicode = A78B;
},
{
glyphname = Germandbls;
layers = (
{
layerId = UUID0;
paths = (
{
closed = 1;
nodes = (
"589 -3 OFFCURVE",
"677 65 OFFCURVE",
"677 193 CURVE SMOOTH",
"677 321 OFFCURVE",
"588 388 OFFCURVE",
"454 388 CURVE SMOOTH",
"426 388 OFFCURVE",
"398 385 OFFCURVE",
"374 377 CURVE",
"375 367 LINE",
"616 615 LINE",
"616 631 LINE",
"560 680 OFFCURVE",
"484 703 OFFCURVE",
"402 703 CURVE SMOOTH",
"228 703 OFFCURVE",
"127 597 OFFCURVE",
"127 424 CURVE SMOOTH",
"127 0 LINE",
"147 0 LINE",
"147 422 LINE SMOOTH",
"147 591 OFFCURVE",
"237 684 OFFCURVE",
"404 684 CURVE SMOOTH",
"479 684 OFFCURVE",
"551 665 OFFCURVE",
"603 618 CURVE",
"606 630 LINE",
"356 373 LINE",
"363 357 LINE",
"389 365 OFFCURVE",
"422 369 OFFCURVE",
"454 369 CURVE SMOOTH",
"576 369 OFFCURVE",
"657 310 OFFCURVE",
"657 193 CURVE SMOOTH",
"657 77 OFFCURVE",
"578 16 OFFCURVE",
"458 16 CURVE SMOOTH",
"408 16 OFFCURVE",
"365 25 OFFCURVE",
"327 44 CURVE",
"319 25 LINE",
"361 6 OFFCURVE",
"401 -3 OFFCURVE",
"452 -3 CURVE SMOOTH"
);
}
);
width = 742;
},
{
guideLines = (
{
angle = 49.4672;
position = "{308, 308}";
}
);
layerId = "5DA6E103-6A94-47F2-987D-4952DB8EA68E";
paths = (
{
closed = 1;
nodes = (
"647 -16 OFFCURVE",
"772 68 OFFCURVE",
"772 211 CURVE SMOOTH",
"772 354 OFFCURVE",
"645 438 OFFCURVE",
"507 438 CURVE SMOOTH",
"478 438 OFFCURVE",
"454 435 OFFCURVE",
"433 430 CURVE",
"521 308 LINE",
"698 515 LINE",
"698 650 LINE",
"631 692 OFFCURVE",
"519 716 OFFCURVE",
"431 716 CURVE SMOOTH",
"187 716 OFFCURVE",
"51 586 OFFCURVE",
"51 379 CURVE SMOOTH",
"51 0 LINE",
"287 0 LINE",
"287 374 LINE SMOOTH",
"287 476 OFFCURVE",
"336 536 OFFCURVE",
"434 536 CURVE SMOOTH",
"500 536 OFFCURVE",
"551 517 OFFCURVE",
"603 487 CURVE",
"588 635 LINE",
"355 363 LINE",
"395 268 LINE",
"412 274 OFFCURVE",
"434 278 OFFCURVE",
"457 278 CURVE SMOOTH",
"509 278 OFFCURVE",
"534 258 OFFCURVE",
"534 221 CURVE SMOOTH",
"534 184 OFFCURVE",
"509 164 OFFCURVE",
"454 164 CURVE SMOOTH",
"427 164 OFFCURVE",
"393 172 OFFCURVE",
"369 183 CURVE",
"337 7 LINE",
"378 -8 OFFCURVE",
"428 -16 OFFCURVE",
"494 -16 CURVE SMOOTH"
);
}
);
width = 798;
},
{
layerId = "708134FE-A11E-43C9-84F0-594DA15B6BD1";
paths = (
{
closed = 1;
nodes = (
"616 -9 OFFCURVE",
"719 66 OFFCURVE",
"719 202 CURVE SMOOTH",
"719 340 OFFCURVE",
"613 415 OFFCURVE",
"477 415 CURVE SMOOTH",
"449 415 OFFCURVE",
"422 412 OFFCURVE",
"400 406 CURVE",
"449 339 LINE",
"652 567 LINE",
"652 641 LINE",
"591 686 OFFCURVE",
"500 709 OFFCURVE",
"412 709 CURVE SMOOTH",
"211 709 OFFCURVE",
"94 591 OFFCURVE",
"94 401 CURVE SMOOTH",
"94 0 LINE",
"208 0 LINE",
"208 398 LINE SMOOTH",
"208 535 OFFCURVE",
"280 612 OFFCURVE",
"419 612 CURVE SMOOTH",
"488 612 OFFCURVE",
"551 593 OFFCURVE",
"603 555 CURVE",
"588 633 LINE",
"356 369 LINE",
"377 315 LINE",
"399 322 OFFCURVE",
"430 326 OFFCURVE",
"458 326 CURVE SMOOTH",
"547 326 OFFCURVE",
"603 285 OFFCURVE",
"603 207 CURVE SMOOTH",
"603 128 OFFCURVE",
"548 88 OFFCURVE",
"459 88 CURVE SMOOTH",
"416 88 OFFCURVE",
"377 96 OFFCURVE",
"345 111 CURVE",
"327 16 LINE",
"368 -1 OFFCURVE",
"416 -9 OFFCURVE",
"466 -9 CURVE SMOOTH"
);
}
);
width = 767;
}
);
leftKerningGroup = F.ss01;
leftMetricsKey = "=|U";
rightKerningGroup = B;
rightMetricsKey = B;
unicode = 1E9E;
},
{
color = 4;
glyphname = Sobliquestroke;
layers = (
{
anchors = (
{
name = bottom;
position = "{318, 0}";
},
{
name = top;
position = "{318, 700}";
}
);
background = {
paths = (
{
closed = 1;
nodes = (
"144 305 LINE",
"151 287 LINE",
"448 396 LINE",
"442 413 LINE"
);
}
);
};
layerId = UUID0;
paths = (
{
closed = 1;
nodes = (
"470 -3 OFFCURVE",
"543 79 OFFCURVE",
"543 172 CURVE SMOOTH",
"543 425 OFFCURVE",
"98 290 OFFCURVE",
"98 526 CURVE SMOOTH",
"98 613 OFFCURVE",
"166 684 OFFCURVE",
"313 684 CURVE SMOOTH",
"376 684 OFFCURVE",
"448 664 OFFCURVE",
"504 623 CURVE",
"515 639 LINE",
"464 678 OFFCURVE",
"387 703 OFFCURVE",
"312 703 CURVE SMOOTH",
"148 703 OFFCURVE",
"78 619 OFFCURVE",
"78 527 CURVE SMOOTH",
"78 269 OFFCURVE",
"523 407 OFFCURVE",
"523 172 CURVE SMOOTH",
"523 86 OFFCURVE",
"455 16 OFFCURVE",
"303 16 CURVE SMOOTH",
"205 16 OFFCURVE",
"116 57 OFFCURVE",
"72 109 CURVE",
"58 96 LINE",
"105 38 OFFCURVE",
"202 -3 OFFCURVE",
"304 -3 CURVE SMOOTH"
);
},
{
closed = 1;
nodes = (
"538 404 LINE",
"534 422 LINE",
"56 311 LINE",
"60 292 LINE"
);
}
);
width = 601;
},
{
anchors = (
{
name = bottom;
position = "{321, 0}";
},
{
name = top;
position = "{321, 700}";
}
);
background = {
paths = (
{
closed = 1;
nodes = (
"20 345 LINE",
"33 267 LINE",
"603 372 LINE",
"590 450 LINE"
);
},
{
closed = 1;
nodes = (
"498 -9 OFFCURVE",
"587 85 OFFCURVE",
"587 195 CURVE SMOOTH",
"587 452 OFFCURVE",
"167 350 OFFCURVE",
"167 509 CURVE SMOOTH",
"167 566 OFFCURVE",
"215 612 OFFCURVE",
"328 612 CURVE SMOOTH",
"390 612 OFFCURVE",
"459 594 OFFCURVE",
"521 556 CURVE",
"558 647 LINE",
"498 687 OFFCURVE",
"412 709 OFFCURVE",
"329 709 CURVE SMOOTH",
"141 709 OFFCURVE",
"54 615 OFFCURVE",
"54 504 CURVE SMOOTH",
"54 244 OFFCURVE",
"474 347 OFFCURVE",
"474 187 CURVE SMOOTH",
"474 131 OFFCURVE",
"425 88 OFFCURVE",
"310 88 CURVE SMOOTH",
"222 88 OFFCURVE",
"133 121 OFFCURVE",
"79 167 CURVE",
"38 77 LINE",
"95 26 OFFCURVE",
"202 -9 OFFCURVE",
"310 -9 CURVE SMOOTH"
);
}
);
};
layerId = "708134FE-A11E-43C9-84F0-594DA15B6BD1";
paths = (
{
closed = 1;
nodes = (
"494 -8 OFFCURVE",
"582 84 OFFCURVE",
"582 192 CURVE SMOOTH",
"582 447 OFFCURVE",
"160 338 OFFCURVE",
"160 512 CURVE SMOOTH",
"160 574 OFFCURVE",
"210 624 OFFCURVE",
"326 624 CURVE SMOOTH",
"388 624 OFFCURVE",
"457 605 OFFCURVE",
"518 566 CURVE",
"553 646 LINE",
"494 685 OFFCURVE",
"409 708 OFFCURVE",
"326 708 CURVE SMOOTH",
"140 708 OFFCURVE",
"54 615 OFFCURVE",
"54 508 CURVE SMOOTH",
"54 248 OFFCURVE",
"476 359 OFFCURVE",
"476 184 CURVE SMOOTH",
"476 124 OFFCURVE",
"426 76 OFFCURVE",
"308 76 CURVE SMOOTH",
"218 76 OFFCURVE",
"130 111 OFFCURVE",
"77 157 CURVE",
"38 80 LINE",
"95 27 OFFCURVE",
"202 -8 OFFCURVE",
"308 -8 CURVE SMOOTH"
);
},
{
closed = 1;
nodes = (
"603 372 LINE",
"590 450 LINE",
"20 345 LINE",
"33 267 LINE"
);
}
);
width = 620;
},
{
anchors = (
{
name = bottom;
position = "{324, 0}";
},
{
name = top;
position = "{324, 700}";
}
);
background = {
components = (
{
name = S;
}
);
paths = (
{
closed = 1;
nodes = (
"-10 379 LINE",
"10 243 LINE",
"673 336 LINE",
"654 472 LINE"
);
}
);
};
layerId = "5DA6E103-6A94-47F2-987D-4952DB8EA68E";
paths = (
{
closed = 1;
nodes = (
"526 -15 OFFCURVE",
"633 91 OFFCURVE",
"633 217 CURVE SMOOTH",
"633 475 OFFCURVE",
"241 401 OFFCURVE",
"241 494 CURVE SMOOTH",
"241 523 OFFCURVE",
"267 546 OFFCURVE",
"342 546 CURVE SMOOTH",
"404 546 OFFCURVE",
"469 528 OFFCURVE",
"536 493 CURVE",
"603 654 LINE",
"533 694 OFFCURVE",
"438 715 OFFCURVE",
"343 715 CURVE SMOOTH",
"130 715 OFFCURVE",
"24 610 OFFCURVE",
"24 483 CURVE SMOOTH",
"24 222 OFFCURVE",
"415 297 OFFCURVE",
"415 200 CURVE SMOOTH",
"415 172 OFFCURVE",
"388 154 OFFCURVE",
"315 154 CURVE SMOOTH",
"235 154 OFFCURVE",
"147 181 OFFCURVE",
"84 220 CURVE",
"12 59 LINE",
"83 13 OFFCURVE",
"202 -15 OFFCURVE",
"313 -15 CURVE SMOOTH"
);
},
{
closed = 1;
nodes = (
"670 341 LINE",
"652 469 LINE",
"-20 375 LINE",
"-1 246 LINE"
);
}
);
width = 644;
}
);
unicode = A7A8;
},
{
glyphname = T;
layers = (
{
anchors = (
{
name = bottom;
position = "{274, 0}";
},
{
name = center;
position = "{274, 356}";
},
{
name = top;
position = "{274, 700}";
}
);
layerId = UUID0;
paths = (
{
closed = 1;
nodes = (
"284 0 LINE",
"284 681 LINE",
"544 681 LINE",
"544 700 LINE",
"4 700 LINE",
"4 681 LINE",
"264 681 LINE",
"264 0 LINE"
);
}
);
width = 548;
},
{
anchors = (
{
name = bottom;
position = "{327, 0}";
},
{
name = center;
position = "{327, 315}";
},
{
name = top;
position = "{327, 700}";
}
);
layerId = "5DA6E103-6A94-47F2-987D-4952DB8EA68E";
paths = (
{
closed = 1;
nodes = (
"445 0 LINE",
"445 517 LINE",
"650 517 LINE",
"650 700 LINE",
"4 700 LINE",
"4 517 LINE",
"209 517 LINE",
"209 0 LINE"
);
}
);
width = 654;
},
{
anchors = (
{
name = bottom;
position = "{297, 0}";
},
{
name = center;
position = "{297, 336}";
},
{
name = top;
position = "{297, 700}";
}
);
layerId = "708134FE-A11E-43C9-84F0-594DA15B6BD1";
paths = (
{
closed = 1;
nodes = (
"354 0 LINE",
"354 601 LINE",
"590 601 LINE",
"590 700 LINE",
"4 700 LINE",
"4 601 LINE",
"240 601 LINE",
"240 0 LINE"
);
}
);
width = 594;
}
);
leftKerningGroup = T;
rightKerningGroup = T;
rightMetricsKey = "=|";
unicode = 0054;
},
{
color = 4;
glyphname = Tdiagonalstroke;
layers = (
{
anchors = (
{
name = bottom;
position = "{274, 0}";
},
{
name = center;
position = "{274, 356}";
},
{
name = top;
position = "{274, 700}";
}
);
layerId = UUID0;
paths = (
{
closed = 1;
nodes = (
"284 0 LINE",
"284 681 LINE",
"544 681 LINE",
"544 700 LINE",
"4 700 LINE",
"4 681 LINE",
"264 681 LINE",
"264 0 LINE"
);
},
{
closed = 1;
nodes = (
"92 -70 LINE",
"482 770 LINE",
"462 770 LINE",
"72 -70 LINE"
);
}
);
width = 548;
},
{
anchors = (
{
name = bottom;
position = "{294, 0}";
},
{
name = center;
position = "{294, 338}";
},
{
name = top;
position = "{294, 700}";
}
);
background = {
components = (
{
name = T;
transform = "{1, 0, 0, 1, -4, 0}";
}
);
};
layerId = "708134FE-A11E-43C9-84F0-594DA15B6BD1";
paths = (
{
closed = 1;
nodes = (
"348 0 LINE",
"348 601 LINE",
"584 601 LINE",
"584 700 LINE",
"2 700 LINE",
"2 601 LINE",
"238 601 LINE",
"238 0 LINE"
);
},
{
closed = 1;
nodes = (
"165 -70 LINE",
"542 770 LINE",
"474 770 LINE",
"97 -70 LINE"
);
}
);
width = 589;
},
{
anchors = (
{
name = bottom;
position = "{327, 0}";
},
{
name = center;
position = "{327, 315}";
},
{
name = top;
position = "{327, 700}";
}
);
background = {
components = (
{
name = T;
}
);
};
layerId = "5DA6E103-6A94-47F2-987D-4952DB8EA68E";
paths = (
{
closed = 1;
nodes = (
"435 0 LINE",
"435 517 LINE",
"650 517 LINE",
"650 700 LINE",
"4 700 LINE",
"4 517 LINE",
"219 517 LINE",
"219 0 LINE"
);
},
{
closed = 1;
nodes = (
"245 -71 LINE",
"601 769 LINE",
"491 769 LINE",
"135 -71 LINE"
);
}
);
width = 654;
}
);
unicode = 023E;
},
{
color = 3;
glyphname = Thook;
layers = (
{
anchors = (
{
name = bottom;
position = "{291, 0}";
},
{
name = center;
position = "{291, 356}";
},
{
name = top;
position = "{291, 700}";
}
);
components = (
{
name = hookcomb.left;
transform = "{1, 0, 0, 1, -33, 0}";
}
);
layerId = UUID0;
paths = (
{
closed = 1;
nodes = (
"301 0 LINE",
"301 681 LINE",
"561 681 LINE",
"561 700 LINE",
"221 700 LINE",
"221 681 LINE",
"281 681 LINE",
"281 0 LINE"
);
}
);
width = 565;
},
{
anchors = (
{
name = bottom;
position = "{325, 0}";
},
{
name = center;
position = "{325, 336}";
},
{
name = top;
position = "{325, 700}";
}
);
components = (
{
name = hookcomb.left;
transform = "{1, 0, 0, 1, -58, 0}";
}
);
layerId = "708134FE-A11E-43C9-84F0-594DA15B6BD1";
paths = (
{
closed = 1;
nodes = (
"382 0 LINE",
"382 601 LINE",
"618 601 LINE",
"618 700 LINE",
"149 700 LINE",
"149 601 LINE",
"268 601 LINE",
"268 0 LINE"
);
}
);
width = 622;
},
{
anchors = (
{
name = bottom;
position = "{430, 0}";
},
{
name = center;
position = "{430, 315}";
},
{
name = top;
position = "{430, 700}";
}
);
background = {
anchors = (
{
name = bottom;
position = "{430, 0}";
},
{
name = center;
position = "{430, 315}";
},
{
name = top;
position = "{430, 700}";
}
);
components = (
{
name = hookcomb.left;
transform = "{1, 0, 0, 1, -140, 0}";
}
);
paths = (
{
closed = 1;
nodes = (
"548 0 LINE",
"548 517 LINE",
"753 517 LINE",
"753 700 LINE",
"107 700 LINE",
"107 517 LINE",
"312 517 LINE",
"312 0 LINE"
);
}
);
};
components = (
{
name = hookcomb.left;
transform = "{1, 0, 0, 1, 4, 0}";
}
);
layerId = "5DA6E103-6A94-47F2-987D-4952DB8EA68E";
paths = (
{
closed = 1;
nodes = (
"548 0 LINE",
"548 517 LINE",
"753 517 LINE",
"753 700 LINE",
"251 700 LINE",
"251 517 LINE",
"312 517 LINE",
"312 0 LINE"
);
}
);
width = 757;
}
);
leftMetricsKey = Hhook;
rightMetricsKey = T;
unicode = 01AC;
},
{
color = 3;
glyphname = Tretroflexhook;
layers = (
{
anchors = (
{
name = bottom;
position = "{288, 0}";
},
{
name = center;
position = "{288, 356}";
},
{
name = top;
position = "{288, 700}";
}
);
layerId = UUID0;
paths = (
{
closed = 1;
nodes = (
"482 -137 LINE",
"501 -140 LINE",
"425 -207 OFFCURVE",
"298 -186 OFFCURVE",
"298 -63 CURVE SMOOTH",
"298 686 LINE",
"278 686 LINE",
"278 -66 LINE SMOOTH",
"278 -205 OFFCURVE",
"429 -230 OFFCURVE",
"509 -156 CURVE",
"509 -178 LINE"
);
},
{
closed = 1;
nodes = (
"558 681 LINE",
"558 700 LINE",
"18 700 LINE",
"18 681 LINE"
);
}
);
width = 576;
},
{
anchors = (
{
name = bottom;
position = "{315, 0}";
},
{
name = center;
position = "{315, 336}";
},
{
name = top;
position = "{315, 700}";
}
);
background = {
paths = (
{
closed = 1;
nodes = (
"372 601 LINE",
"608 601 LINE",
"608 700 LINE",
"22 700 LINE",
"22 601 LINE",
"258 601 LINE",
"258 -31 LINE SMOOTH",
"258 -212 OFFCURVE",
"464 -245 OFFCURVE",
"582 -148 CURVE",
"551 -214 LINE",
"483 -39 LINE",
"553 -59 LINE",
"486 -132 OFFCURVE",
"372 -121 OFFCURVE",
"372 -27 CURVE SMOOTH"
);
}
);
};
layerId = "708134FE-A11E-43C9-84F0-594DA15B6BD1";
paths = (
{
closed = 1;
nodes = (
"483 -39 LINE",
"553 -59 LINE",
"486 -132 OFFCURVE",
"372 -121 OFFCURVE",
"372 -27 CURVE SMOOTH",
"372 617 LINE",
"258 617 LINE",
"258 -31 LINE SMOOTH",
"258 -212 OFFCURVE",
"464 -245 OFFCURVE",
"582 -148 CURVE",
"548 -214 LINE"
);
},
{
closed = 1;
nodes = (
"608 601 LINE",
"608 700 LINE",
"22 700 LINE",
"22 601 LINE"
);
}
);
width = 630;
},
{
anchors = (
{
name = bottom;
position = "{344, 0}";
},
{
name = center;
position = "{344, 315}";
},
{
name = top;
position = "{344, 700}";
}
);
background = {
components = (
{
name = T;
transform = "{1, 0, 0, 1, 17, 0}";
}
);
};
layerId = "5DA6E103-6A94-47F2-987D-4952DB8EA68E";
paths = (
{
closed = 1;
nodes = (
"560 7 LINE",
"590 -2 LINE",
"525 -49 OFFCURVE",
"462 -40 OFFCURVE",
"462 18 CURVE SMOOTH",
"462 547 LINE",
"226 547 LINE",
"226 18 LINE SMOOTH",
"226 -215 OFFCURVE",
"467 -254 OFFCURVE",
"645 -162 CURVE",
"629 -191 LINE"
);
},
{
closed = 1;
nodes = (
"667 517 LINE",
"667 700 LINE",
"21 700 LINE",
"21 517 LINE"
);
}
);
width = 688;
}
);
unicode = 01AE;
},
{
glyphname = U;
layers = (
{
anchors = (
{
name = bottom;
position = "{395, 0}";
},
{
name = ogonek;
position = "{581, 0}";
},
{
name = top;
position = "{395, 700}";
},
{
name = topright;
position = "{670, 700}";
}
);
layerId = UUID0;
paths = (
{
closed = 1;
nodes = (
"562 -3 OFFCURVE",
"665 95 OFFCURVE",
"665 293 CURVE SMOOTH",
"665 700 LINE",
"645 700 LINE",
"645 294 LINE SMOOTH",
"645 107 OFFCURVE",
"554 16 OFFCURVE",
"395 16 CURVE SMOOTH",
"236 16 OFFCURVE",
"145 107 OFFCURVE",
"145 294 CURVE SMOOTH",
"145 700 LINE",
"125 700 LINE",
"125 293 LINE SMOOTH",
"125 95 OFFCURVE",
"228 -3 OFFCURVE",
"395 -3 CURVE SMOOTH"
);
}
);
width = 790;
},
{
anchors = (
{
name = bottom;
position = "{394, 0}";
},
{
name = ogonek;
position = "{620, 0}";
},
{
name = top;
position = "{394, 700}";
},
{
name = topright;
position = "{640, 700}";
}
);
layerId = "5DA6E103-6A94-47F2-987D-4952DB8EA68E";
paths = (
{
closed = 1;
nodes = (
"607 -16 OFFCURVE",
"733 105 OFFCURVE",
"733 315 CURVE SMOOTH",
"733 700 LINE",
"501 700 LINE",
"501 322 LINE SMOOTH",
"501 215 OFFCURVE",
"460 175 OFFCURVE",
"394 175 CURVE SMOOTH",
"328 175 OFFCURVE",
"287 215 OFFCURVE",
"287 322 CURVE SMOOTH",
"287 700 LINE",
"51 700 LINE",
"51 315 LINE SMOOTH",
"51 105 OFFCURVE",
"177 -16 OFFCURVE",
"392 -16 CURVE SMOOTH"
);
}
);
width = 784;
},
{
anchors = (
{
name = bottom;
position = "{394, 0}";
},
{
name = ogonek;
position = "{597, 0}";
},
{
name = top;
position = "{394, 700}";
},
{
name = topright;
position = "{656, 700}";
}
);
layerId = "708134FE-A11E-43C9-84F0-594DA15B6BD1";
paths = (
{
closed = 1;
nodes = (
"581 -9 OFFCURVE",
"694 100 OFFCURVE",
"694 304 CURVE SMOOTH",
"694 700 LINE",
"582 700 LINE",
"582 308 LINE SMOOTH",
"582 159 OFFCURVE",
"514 93 OFFCURVE",
"394 93 CURVE SMOOTH",
"274 93 OFFCURVE",
"206 159 OFFCURVE",
"206 308 CURVE SMOOTH",
"206 700 LINE",
"92 700 LINE",
"92 304 LINE SMOOTH",
"92 100 OFFCURVE",
"205 -9 OFFCURVE",
"393 -9 CURVE SMOOTH"
);
}
);
width = 786;
}
);
leftKerningGroup = U;
rightKerningGroup = U;
rightMetricsKey = "=|";
unicode = 0055;
},
{
glyphname = Uogonek;
layers = (
{
layerId = UUID0;
paths = (
{
closed = 1;
nodes = (
"431 -213 OFFCURVE",
"455 -205 OFFCURVE",
"477 -186 CURVE",
"466 -171 LINE",
"450 -186 OFFCURVE",
"427 -194 OFFCURVE",
"404 -194 CURVE SMOOTH",
"363 -194 OFFCURVE",
"332 -173 OFFCURVE",
"332 -130 CURVE SMOOTH",
"332 -93 OFFCURVE",
"353 -36 OFFCURVE",
"488 8 CURVE SMOOTH",
"600 44 OFFCURVE",
"665 132 OFFCURVE",
"665 293 CURVE SMOOTH",
"665 700 LINE",
"645 700 LINE",
"645 294 LINE SMOOTH",
"645 107 OFFCURVE",
"554 16 OFFCURVE",
"395 16 CURVE SMOOTH",
"236 16 OFFCURVE",
"145 107 OFFCURVE",
"145 294 CURVE SMOOTH",
"145 700 LINE",
"125 700 LINE",
"125 293 LINE SMOOTH",
"125 95 OFFCURVE",
"228 -3 OFFCURVE",
"395 -3 CURVE SMOOTH",
"407 -3 OFFCURVE",
"421 -2 OFFCURVE",
"433 -1 CURVE",
"449 14 LINE",
"334 -31 OFFCURVE",
"312 -89 OFFCURVE",
"312 -130 CURVE SMOOTH",
"312 -182 OFFCURVE",
"351 -213 OFFCURVE",
"403 -213 CURVE SMOOTH"
);
}
);
width = 790;
},
{
layerId = "5DA6E103-6A94-47F2-987D-4952DB8EA68E";
paths = (
{
closed = 1;
nodes = (
"471 -240 OFFCURVE",
"517 -230 OFFCURVE",
"541 -217 CURVE",
"514 -124 LINE",
"499 -131 OFFCURVE",
"477 -138 OFFCURVE",
"455 -138 CURVE SMOOTH",
"418 -138 OFFCURVE",
"402 -120 OFFCURVE",
"402 -97 CURVE SMOOTH",
"402 -66 OFFCURVE",
"433 -35 OFFCURVE",
"540 7 CURVE SMOOTH",
"655 52 OFFCURVE",
"733 149 OFFCURVE",
"733 315 CURVE SMOOTH",
"733 700 LINE",
"501 700 LINE",
"501 322 LINE SMOOTH",
"501 215 OFFCURVE",
"460 175 OFFCURVE",
"394 175 CURVE SMOOTH",
"328 175 OFFCURVE",
"287 215 OFFCURVE",
"287 322 CURVE SMOOTH",
"287 700 LINE",
"51 700 LINE",
"51 315 LINE SMOOTH",
"51 105 OFFCURVE",
"177 -16 OFFCURVE",
"392 -16 CURVE SMOOTH",
"409 -16 OFFCURVE",
"425 -15 OFFCURVE",
"442 -14 CURVE",
"437 49 LINE",
"331 16 OFFCURVE",
"270 -43 OFFCURVE",
"270 -117 CURVE SMOOTH",
"270 -192 OFFCURVE",
"328 -240 OFFCURVE",
"428 -240 CURVE SMOOTH"
);
}
);
width = 784;
},
{
layerId = "708134FE-A11E-43C9-84F0-594DA15B6BD1";
paths = (
{
closed = 1;
nodes = (
"452 -226 OFFCURVE",
"486 -217 OFFCURVE",
"511 -203 CURVE",
"491 -147 LINE",
"475 -157 OFFCURVE",
"451 -163 OFFCURVE",
"430 -163 CURVE SMOOTH",
"395 -163 OFFCURVE",
"370 -145 OFFCURVE",
"370 -113 CURVE SMOOTH",
"370 -78 OFFCURVE",
"396 -34 OFFCURVE",
"512 8 CURVE SMOOTH",
"623 48 OFFCURVE",
"694 140 OFFCURVE",
"694 304 CURVE SMOOTH",
"694 700 LINE",
"582 700 LINE",
"582 308 LINE SMOOTH",
"582 159 OFFCURVE",
"514 93 OFFCURVE",
"394 93 CURVE SMOOTH",
"274 93 OFFCURVE",
"206 159 OFFCURVE",
"206 308 CURVE SMOOTH",
"206 700 LINE",
"92 700 LINE",
"92 304 LINE SMOOTH",
"92 100 OFFCURVE",
"205 -9 OFFCURVE",
"393 -9 CURVE SMOOTH",
"407 -9 OFFCURVE",
"422 -8 OFFCURVE",
"436 -7 CURVE",
"437 35 LINE",
"331 -7 OFFCURVE",
"293 -66 OFFCURVE",
"293 -122 CURVE SMOOTH",
"293 -183 OFFCURVE",
"339 -226 OFFCURVE",
"418 -226 CURVE SMOOTH"
);
}
);
width = 786;
}
);
leftKerningGroup = U;
leftMetricsKey = U;
rightKerningGroup = U;
rightMetricsKey = U;
unicode = 0172;
},
{
glyphname = V;
layers = (
{
anchors = (
{
name = bottom;
position = "{335, 0}";
},
{
name = top;
position = "{335, 700}";
}
);
layerId = UUID0;
paths = (
{
closed = 1;
nodes = (
"345 0 LINE",
"660 700 LINE",
"637 700 LINE",
"330 16 LINE",
"340 16 LINE",
"33 700 LINE",
"10 700 LINE",
"325 0 LINE"
);
}
);
width = 670;
},
{
anchors = (
{
name = bottom;
position = "{393, 0}";
},
{
name = top;
position = "{393, 700}";
}
);
guideLines = (
{
angle = 113.6122;
position = "{368, 350}";
}
);
layerId = "5DA6E103-6A94-47F2-987D-4952DB8EA68E";
paths = (
{
closed = 1;
nodes = (
"509 0 LINE",
"805 700 LINE",
"573 700 LINE",
"325 109 LINE",
"476 109 LINE",
"235 700 LINE",
"-19 700 LINE",
"277 0 LINE"
);
}
);
width = 786;
},
{
anchors = (
{
name = bottom;
position = "{360, 0}";
},
{
name = top;
position = "{360, 700}";
}
);
layerId = "708134FE-A11E-43C9-84F0-594DA15B6BD1";
paths = (
{
closed = 1;
nodes = (
"417 0 LINE",
"723 700 LINE",
"609 700 LINE",
"328 61 LINE",
"399 61 LINE",
"121 700 LINE",
"-3 700 LINE",
"304 0 LINE"
);
}
);
width = 720;
}
);
leftKerningGroup = V;
rightKerningGroup = V;
rightMetricsKey = "=|";
unicode = 0056;
},
{
color = 3;
glyphname = "Gamma-latin";
layers = (
{
anchors = (
{
name = bottom;
position = "{305, 0}";
},
{
name = center;
position = "{305, 240}";
},
{
name = top;
position = "{305, 700}";
}
);
background = {
paths = (
{
closed = 1;
nodes = (
"275 56 OFFCURVE",
"214 -57 OFFCURVE",
"214 -104 CURVE SMOOTH",
"214 -167 OFFCURVE",
"252 -195 OFFCURVE",
"301 -195 CURVE SMOOTH",
"350 -195 OFFCURVE",
"386 -167 OFFCURVE",
"386 -104 CURVE SMOOTH",
"386 -57 OFFCURVE",
"335 56 OFFCURVE",
"309 111 CURVE SMOOTH",
"33 700 LINE",
"10 700 LINE",
"300 88 LINE SMOOTH",
"324 38 OFFCURVE",
"367 -68 OFFCURVE",
"367 -104 CURVE SMOOTH",
"367 -157 OFFCURVE",
"339 -175 OFFCURVE",
"301 -175 CURVE SMOOTH",
"262 -175 OFFCURVE",
"233 -157 OFFCURVE",
"233 -104 CURVE SMOOTH",
"233 -68 OFFCURVE",
"286 37 OFFCURVE",
"310 88 CURVE SMOOTH",
"600 700 LINE",
"577 700 LINE",
"301 111 LINE SMOOTH"
);
}
);
};
layerId = UUID0;
paths = (
{
closed = 1;
nodes = (
"343 -196 OFFCURVE",
"386 -166 OFFCURVE",
"386 -107 CURVE SMOOTH",
"386 -43 OFFCURVE",
"336 53 OFFCURVE",
"309 111 CURVE SMOOTH",
"33 700 LINE",
"10 700 LINE",
"300 84 LINE SMOOTH",
"325 31 OFFCURVE",
"366 -55 OFFCURVE",
"366 -107 CURVE SMOOTH",
"366 -154 OFFCURVE",
"332 -177 OFFCURVE",
"300 -177 CURVE SMOOTH",
"267 -177 OFFCURVE",
"234 -152 OFFCURVE",
"234 -107 CURVE SMOOTH",
"234 -51 OFFCURVE",
"285 31 OFFCURVE",
"310 85 CURVE SMOOTH",
"600 700 LINE",
"577 700 LINE",
"301 111 LINE SMOOTH",
"274 53 OFFCURVE",
"214 -44 OFFCURVE",
"214 -110 CURVE SMOOTH",
"214 -165 OFFCURVE",
"257 -196 OFFCURVE",
"300 -196 CURVE SMOOTH"
);
}
);
width = 610;
},
{
anchors = (
{
name = bottom;
position = "{327, 0}";
},
{
name = center;
position = "{324, 251}";
},
{
name = top;
position = "{327, 700}";
}
);
background = {
paths = (
{
closed = 1;
nodes = (
"693 700 LINE",
"579 700 LINE",
"308 177 LINE SMOOTH",
"281 124 OFFCURVE",
"186 24 OFFCURVE",
"186 -73 CURVE SMOOTH",
"186 -155 OFFCURVE",
"253 -204 OFFCURVE",
"326 -204 CURVE SMOOTH",
"398 -204 OFFCURVE",
"468 -156 OFFCURVE",
"468 -70 CURVE SMOOTH",
"468 21 OFFCURVE",
"389 121 OFFCURVE",
"360 177 CURVE SMOOTH",
"91 700 LINE",
"-33 700 LINE",
"271 119 LINE SMOOTH",
"302 60 OFFCURVE",
"378 -18 OFFCURVE",
"378 -70 CURVE SMOOTH",
"378 -100 OFFCURVE",
"353 -119 OFFCURVE",
"327 -119 CURVE SMOOTH",
"300 -119 OFFCURVE",
"276 -99 OFFCURVE",
"276 -70 CURVE SMOOTH",
"276 -15 OFFCURVE",
"365 62 OFFCURVE",
"393 116 CURVE SMOOTH"
);
}
);
};
layerId = "708134FE-A11E-43C9-84F0-594DA15B6BD1";
paths = (
{
closed = 1;
nodes = (
"407 -204 OFFCURVE",
"468 -145 OFFCURVE",
"468 -70 CURVE SMOOTH",
"468 14 OFFCURVE",
"388 135 OFFCURVE",
"360 192 CURVE SMOOTH",
"111 700 LINE",
"-13 700 LINE",
"271 134 LINE SMOOTH",
"304 68 OFFCURVE",
"378 -25 OFFCURVE",
"378 -73 CURVE SMOOTH",
"378 -99 OFFCURVE",
"356 -119 OFFCURVE",
"327 -119 CURVE SMOOTH",
"297 -119 OFFCURVE",
"276 -98 OFFCURVE",
"276 -73 CURVE SMOOTH",
"276 -17 OFFCURVE",
"365 73 OFFCURVE",
"393 131 CURVE SMOOTH",
"673 700 LINE",
"559 700 LINE",
"308 192 LINE SMOOTH",
"278 132 OFFCURVE",
"186 14 OFFCURVE",
"186 -71 CURVE SMOOTH",
"186 -146 OFFCURVE",
"246 -204 OFFCURVE",
"326 -204 CURVE SMOOTH"
);
}
);
width = 654;
},
{
anchors = (
{
name = bottom;
position = "{355, 0}";
},
{
name = center;
position = "{349, 266}";
},
{
name = top;
position = "{355, 700}";
}
);
background = {
anchors = (
{
name = bottom;
position = "{355, 0}";
},
{
name = center;
position = "{349, 266}";
},
{
name = top;
position = "{355, 700}";
}
);
paths = (
{
closed = 1;
nodes = (
"287 92 OFFCURVE",
"410 35 OFFCURVE",
"410 -36 CURVE SMOOTH",
"410 -68 OFFCURVE",
"385 -86 OFFCURVE",
"359 -86 CURVE SMOOTH",
"329 -86 OFFCURVE",
"308 -64 OFFCURVE",
"308 -35 CURVE SMOOTH",
"308 36 OFFCURVE",
"443 93 OFFCURVE",
"536 263 CURVE SMOOTH",
"775 700 LINE",
"543 700 LINE",
"354 338 LINE SMOOTH",
"282 200 OFFCURVE",
"151 105 OFFCURVE",
"151 -27 CURVE SMOOTH",
"151 -130 OFFCURVE",
"231 -207 OFFCURVE",
"363 -207 CURVE SMOOTH",
"494 -207 OFFCURVE",
"567 -131 OFFCURVE",
"567 -26 CURVE SMOOTH",
"567 105 OFFCURVE",
"453 217 OFFCURVE",
"391 338 CURVE SMOOTH",
"205 700 LINE",
"-49 700 LINE",
"198 253 LINE SMOOTH"
);
}
);
};
layerId = "5DA6E103-6A94-47F2-987D-4952DB8EA68E";
paths = (
{
closed = 1;
nodes = (
"478 -209 OFFCURVE",
"570 -149 OFFCURVE",
"570 -32 CURVE SMOOTH",
"570 87 OFFCURVE",
"469 189 OFFCURVE",
"411 310 CURVE SMOOTH",
"225 700 LINE",
"-29 700 LINE",
"241 171 LINE SMOOTH",
"266 122 OFFCURVE",
"408 27 OFFCURVE",
"408 -41 CURVE SMOOTH",
"408 -68 OFFCURVE",
"386 -84 OFFCURVE",
"363 -84 CURVE SMOOTH",
"340 -84 OFFCURVE",
"316 -68 OFFCURVE",
"316 -40 CURVE SMOOTH",
"316 28 OFFCURVE",
"457 108 OFFCURVE",
"496 186 CURVE SMOOTH",
"755 700 LINE",
"523 700 LINE",
"334 310 LINE SMOOTH",
"266 170 OFFCURVE",
"154 87 OFFCURVE",
"154 -33 CURVE SMOOTH",
"154 -147 OFFCURVE",
"250 -209 OFFCURVE",
"365 -209 CURVE SMOOTH"
);
}
);
width = 710;
}
);
leftKerningGroup = V;
rightKerningGroup = v;
unicode = 0194;
},
{
color = 3;
glyphname = Vhook;
layers = (
{
anchors = (
{
name = bottom;
position = "{395, 0}";
},
{
name = ogonek;
position = "{581, 0}";
},
{
name = top;
position = "{395, 700}";
},
{
name = topright;
position = "{670, 700}";
}
);
background = {
paths = (
{
closed = 1;
nodes = (
"503 713 OFFCURVE",
"463 701 OFFCURVE",
"439 676 CURVE",
"453 662 LINE",
"475 683 OFFCURVE",
"506 694 OFFCURVE",
"542 694 CURVE SMOOTH",
"609 694 OFFCURVE",
"645 654 OFFCURVE",
"645 581 CURVE SMOOTH",
"645 -1 LINE",
"665 -1 LINE",
"665 586 LINE SMOOTH",
"665 662 OFFCURVE",
"622 713 OFFCURVE",
"543 713 CURVE SMOOTH"
);
}
);
};
layerId = UUID0;
paths = (
{
closed = 1;
nodes = (
"562 -3 OFFCURVE",
"665 95 OFFCURVE",
"665 293 CURVE SMOOTH",
"665 580 LINE SMOOTH",
"665 719 OFFCURVE",
"508 739 OFFCURVE",
"428 665 CURVE",
"427 681 LINE",
"455 646 LINE",
"438 649 LINE",
"514 716 OFFCURVE",
"645 700 OFFCURVE",
"645 577 CURVE SMOOTH",
"645 294 LINE SMOOTH",
"645 107 OFFCURVE",
"554 16 OFFCURVE",
"395 16 CURVE SMOOTH",
"236 16 OFFCURVE",
"145 107 OFFCURVE",
"145 294 CURVE SMOOTH",
"145 700 LINE",
"125 700 LINE",
"125 293 LINE SMOOTH",
"125 95 OFFCURVE",
"228 -3 OFFCURVE",
"395 -3 CURVE SMOOTH"
);
}
);
width = 785;
},
{
anchors = (
{
name = bottom;
position = "{394, 0}";
},
{
name = ogonek;
position = "{597, 0}";
},
{
name = top;
position = "{394, 700}";
},
{
name = topright;
position = "{656, 700}";
}
);
background = {
paths = (
{
closed = 1;
nodes = (
"470 714 OFFCURVE",
"426 705 OFFCURVE",
"398 683 CURVE",
"432 599 LINE",
"451 614 OFFCURVE",
"478 622 OFFCURVE",
"508 622 CURVE SMOOTH",
"556 622 OFFCURVE",
"583 592 OFFCURVE",
"583 533 CURVE SMOOTH",
"583 -18 LINE",
"693 -18 LINE",
"693 530 LINE SMOOTH",
"693 643 OFFCURVE",
"630 714 OFFCURVE",
"515 714 CURVE SMOOTH"
);
}
);
};
layerId = "708134FE-A11E-43C9-84F0-594DA15B6BD1";
paths = (
{
closed = 1;
nodes = (
"581 -9 OFFCURVE",
"694 100 OFFCURVE",
"694 304 CURVE SMOOTH",
"694 544 LINE SMOOTH",
"694 735 OFFCURVE",
"480 761 OFFCURVE",
"370 663 CURVE",
"373 722 LINE",
"447 552 LINE",
"399 574 LINE",
"466 647 OFFCURVE",
"582 647 OFFCURVE",
"582 540 CURVE SMOOTH",
"582 308 LINE SMOOTH",
"582 159 OFFCURVE",
"514 93 OFFCURVE",
"394 93 CURVE SMOOTH",
"274 93 OFFCURVE",
"206 159 OFFCURVE",
"206 308 CURVE SMOOTH",
"206 700 LINE",
"92 700 LINE",
"92 304 LINE SMOOTH",
"92 100 OFFCURVE",
"205 -9 OFFCURVE",
"393 -9 CURVE SMOOTH"
);
}
);
width = 780;
},
{
anchors = (
{
name = bottom;
position = "{394, 0}";
},
{
name = ogonek;
position = "{620, 0}";
},
{
name = top;
position = "{394, 700}";
},
{
name = topright;
position = "{640, 700}";
}
);
background = {
paths = (
{
closed = 1;
nodes = (
"435 731 OFFCURVE",
"384 722 OFFCURVE",
"349 704 CURVE",
"403 547 LINE",
"418 555 OFFCURVE",
"436 560 OFFCURVE",
"454 560 CURVE SMOOTH",
"481 560 OFFCURVE",
"501 541 OFFCURVE",
"501 497 CURVE SMOOTH",
"501 -20 LINE",
"727 -20 LINE",
"727 499 LINE SMOOTH",
"727 640 OFFCURVE",
"639 731 OFFCURVE",
"488 731 CURVE SMOOTH"
);
}
);
};
layerId = "5DA6E103-6A94-47F2-987D-4952DB8EA68E";
paths = (
{
closed = 1;
nodes = (
"607 -16 OFFCURVE",
"733 105 OFFCURVE",
"733 315 CURVE SMOOTH",
"733 507 LINE SMOOTH",
"733 749 OFFCURVE",
"492 768 OFFCURVE",
"314 687 CURVE",
"369 731 LINE",
"418 524 LINE",
"379 532 LINE",
"444 578 OFFCURVE",
"501 566 OFFCURVE",
"501 494 CURVE SMOOTH",
"501 322 LINE SMOOTH",
"501 215 OFFCURVE",
"460 175 OFFCURVE",
"394 175 CURVE SMOOTH",
"328 175 OFFCURVE",
"287 215 OFFCURVE",
"287 322 CURVE SMOOTH",
"287 700 LINE",
"51 700 LINE",
"51 315 LINE SMOOTH",
"51 105 OFFCURVE",
"177 -16 OFFCURVE",
"392 -16 CURVE SMOOTH"
);
}
);
width = 777;
}
);
unicode = 01B2;
},
{
glyphname = W;
layers = (
{
anchors = (
{
name = bottom;
position = "{541, 0}";
},
{
name = top;
position = "{541, 700}";
}
);
layerId = UUID0;
paths = (
{
closed = 1;
nodes = (
"306 0 LINE",
"543 678 LINE",
"539 678 LINE",
"776 0 LINE",
"796 0 LINE",
"1036 700 LINE",
"1015 700 LINE",
"781 16 LINE",
"791 16 LINE",
"551 700 LINE",
"531 700 LINE",
"291 16 LINE",
"302 16 LINE",
"68 700 LINE",
"46 700 LINE",
"286 0 LINE"
);
}
);
width = 1082;
},
{
anchors = (
{
name = bottom;
position = "{604, 0}";
},
{
name = top;
position = "{604, 700}";
}
);
layerId = "5DA6E103-6A94-47F2-987D-4952DB8EA68E";
paths = (
{
closed = 1;
nodes = (
"488 0 LINE",
"642 484 LINE",
"574 484 LINE",
"720 0 LINE",
"973 0 LINE",
"1197 700 LINE",
"973 700 LINE",
"784 109 LINE",
"901 109 LINE",
"722 700 LINE",
"505 700 LINE",
"313 109 LINE",
"435 109 LINE",
"254 700 LINE",
"11 700 LINE",
"235 0 LINE"
);
}
);
width = 1208;
},
{
anchors = (
{
name = bottom;
position = "{564, 0}";
},
{
name = top;
position = "{564, 700}";
}
);
layerId = "708134FE-A11E-43C9-84F0-594DA15B6BD1";
paths = (
{
closed = 1;
nodes = (
"381 0 LINE",
"581 584 LINE",
"549 584 LINE",
"747 0 LINE",
"868 0 LINE",
"1101 700 LINE",
"992 700 LINE",
"777 61 LINE",
"834 61 LINE",
"621 700 LINE",
"515 700 LINE",
"296 61 LINE",
"355 61 LINE",
"144 700 LINE",
"26 700 LINE",
"259 0 LINE"
);
}
);
width = 1127;
}
);
leftKerningGroup = V;
rightKerningGroup = V;
rightMetricsKey = "=|";
unicode = 0057;
},
{
color = 3;
glyphname = Whook;
layers = (
{
anchors = (
{
name = bottom;
position = "{541, 0}";
},
{
name = top;
position = "{541, 700}";
}
);
background = {
anchors = (
{
name = bottom;
position = "{541, 0}";
},
{
name = top;
position = "{541, 700}";
}
);
paths = (
{
closed = 1;
nodes = (
"993 593 LINE SMOOTH",
"1033 712 OFFCURVE",
"1129 697 OFFCURVE",
"1165 650 CURVE",
"1134 663 LINE",
"1161 698 LINE",
"1174 666 LINE",
"1129 719 OFFCURVE",
"1019 730 OFFCURVE",
"974 598 CURVE SMOOTH",
"777 16 LINE",
"787 16 LINE",
"551 700 LINE",
"531 700 LINE",
"291 16 LINE",
"302 16 LINE",
"68 700 LINE",
"46 700 LINE",
"286 0 LINE",
"306 0 LINE",
"543 678 LINE",
"539 678 LINE",
"772 0 LINE",
"792 0 LINE"
);
},
{
closed = 0;
nodes = (
"1014 653 LINE SMOOTH",
"1060 757 OFFCURVE",
"1122 742 OFFCURVE",
"1157 703 CURVE",
"1129 707 LINE",
"1152 742 LINE",
"1169 718 LINE",
"1126 766 OFFCURVE",
"1047 776 OFFCURVE",
"995 659 CURVE SMOOTH"
);
}
);
};
layerId = UUID0;
paths = (
{
closed = 1;
nodes = (
"306 0 LINE",
"543 678 LINE",
"539 678 LINE",
"772 0 LINE",
"792 0 LINE",
"1008 638 LINE SMOOTH",
"1044 745 OFFCURVE",
"1121 734 OFFCURVE",
"1154 693 CURVE",
"1125 697 LINE",
"1148 732 LINE",
"1165 708 LINE",
"1127 756 OFFCURVE",
"1031 767 OFFCURVE",
"989 643 CURVE SMOOTH",
"777 16 LINE",
"787 16 LINE",
"551 700 LINE",
"531 700 LINE",
"291 16 LINE",
"302 16 LINE",
"68 700 LINE",
"46 700 LINE",
"286 0 LINE"
);
}
);
width = 1160;
},
{
anchors = (
{
name = bottom;
position = "{564, 0}";
},
{
name = top;
position = "{564, 700}";
}
);
background = {
anchors = (
{
name = bottom;
position = "{564, 0}";
},
{
name = top;
position = "{564, 700}";
}
);
paths = (
{
closed = 1;
nodes = (
"1044 567 LINE SMOOTH",
"1070 644 OFFCURVE",
"1143 627 OFFCURVE",
"1208 576 CURVE",
"1139 547 LINE",
"1203 717 LINE",
"1250 658 LINE",
"1110 761 OFFCURVE",
"984 714 OFFCURVE",
"939 581 CURVE SMOOTH",
"761 61 LINE",
"816 61 LINE",
"621 700 LINE",
"515 700 LINE",
"296 61 LINE",
"355 61 LINE",
"144 700 LINE",
"26 700 LINE",
"259 0 LINE",
"381 0 LINE",
"581 584 LINE",
"549 584 LINE",
"729 0 LINE",
"852 0 LINE"
);
}
);
};
layerId = "708134FE-A11E-43C9-84F0-594DA15B6BD1";
paths = (
{
closed = 1;
nodes = (
"381 0 LINE",
"581 584 LINE",
"549 584 LINE",
"729 0 LINE",
"852 0 LINE",
"1054 594 LINE SMOOTH",
"1085 686 OFFCURVE",
"1155 644 OFFCURVE",
"1180 612 CURVE",
"1133 601 LINE",
"1206 754 LINE",
"1230 702 LINE",
"1108 795 OFFCURVE",
"998 752 OFFCURVE",
"955 626 CURVE SMOOTH",
"761 61 LINE",
"816 61 LINE",
"621 700 LINE",
"515 700 LINE",
"296 61 LINE",
"355 61 LINE",
"144 700 LINE",
"26 700 LINE",
"259 0 LINE"
);
}
);
width = 1201;
},
{
anchors = (
{
name = bottom;
position = "{604, 0}";
},
{
name = top;
position = "{604, 700}";
}
);
background = {
paths = (
{
closed = 1;
nodes = (
"1133 525 LINE SMOOTH",
"1147 571 OFFCURVE",
"1195 582 OFFCURVE",
"1252 537 CURVE",
"1213 529 LINE",
"1262 731 LINE",
"1317 687 LINE",
"1139 768 OFFCURVE",
"978 748 OFFCURVE",
"920 558 CURVE SMOOTH",
"784 109 LINE",
"901 109 LINE",
"722 700 LINE",
"505 700 LINE",
"313 109 LINE",
"435 109 LINE",
"254 700 LINE",
"11 700 LINE",
"235 0 LINE",
"488 0 LINE",
"642 484 LINE",
"574 484 LINE",
"723 0 LINE",
"973 0 LINE"
);
}
);
};
layerId = "5DA6E103-6A94-47F2-987D-4952DB8EA68E";
paths = (
{
closed = 1;
nodes = (
"488 0 LINE",
"642 484 LINE",
"574 484 LINE",
"723 0 LINE",
"973 0 LINE",
"1129 515 LINE SMOOTH",
"1143 560 OFFCURVE",
"1174 574 OFFCURVE",
"1220 544 CURVE",
"1195 524 LINE",
"1269 742 LINE",
"1282 709 LINE",
"1173 784 OFFCURVE",
"994 800 OFFCURVE",
"928 582 CURVE SMOOTH",
"784 109 LINE",
"901 109 LINE",
"722 700 LINE",
"505 700 LINE",
"313 109 LINE",
"435 109 LINE",
"254 700 LINE",
"11 700 LINE",
"235 0 LINE"
);
}
);
width = 1265;
}
);
leftKerningGroup = W;
leftMetricsKey = W;
rightKerningGroup = Whook;
unicode = 2C72;
},
{
glyphname = X;
layers = (
{
layerId = UUID0;
paths = (
{
closed = 1;
nodes = (
"49 0 LINE",
"313 351 LINE",
"307 351 LINE",
"571 0 LINE",
"596 0 LINE",
"320 366 LINE",
"320 358 LINE",
"576 700 LINE",
"552 700 LINE",
"308 373 LINE",
"314 373 LINE",
"70 700 LINE",
"45 700 LINE",
"304 354 LINE",
"304 370 LINE",
"25 0 LINE"
);
}
);
width = 621;
},
{
layerId = "5DA6E103-6A94-47F2-987D-4952DB8EA68E";
paths = (
{
closed = 1;
nodes = (
"261 0 LINE",
"433 273 LINE",
"324 272 LINE",
"500 0 LINE",
"770 0 LINE",
"453 444 LINE",
"453 280 LINE",
"755 700 LINE",
"501 700 LINE",
"329 439 LINE",
"442 440 LINE",
"266 700 LINE",
"1 700 LINE",
"303 271 LINE",
"304 436 LINE",
"-8 0 LINE"
);
}
);
width = 762;
},
{
layerId = "708134FE-A11E-43C9-84F0-594DA15B6BD1";
paths = (
{
closed = 1;
nodes = (
"142 0 LINE",
"365 313 LINE",
"314 313 LINE",
"540 0 LINE",
"672 0 LINE",
"378 404 LINE",
"378 320 LINE",
"654 700 LINE",
"530 700 LINE",
"317 405 LINE",
"370 406 LINE",
"156 700 LINE",
"26 700 LINE",
"304 314 LINE",
"304 402 LINE",
"11 0 LINE"
);
}
);
width = 683;
}
);
leftKerningGroup = X;
rightKerningGroup = X;
rightMetricsKey = "=|";
unicode = 0058;
},
{
glyphname = Y;
layers = (
{
anchors = (
{
name = bottom;
position = "{320, 0}";
},
{
name = center;
position = "{320, 240}";
},
{
name = top;
position = "{320, 700}";
}
);
layerId = UUID0;
paths = (
{
closed = 1;
nodes = (
"330 0 LINE",
"330 245 LINE",
"325 230 LINE",
"615 700 LINE",
"592 700 LINE",
"316 253 LINE",
"324 253 LINE",
"48 700 LINE",
"25 700 LINE",
"315 230 LINE",
"310 245 LINE",
"310 0 LINE"
);
}
);
width = 640;
},
{
anchors = (
{
name = bottom;
position = "{388, 0}";
},
{
name = center;
position = "{382, 266}";
},
{
name = top;
position = "{388, 700}";
}
);
layerId = "5DA6E103-6A94-47F2-987D-4952DB8EA68E";
paths = (
{
closed = 1;
nodes = (
"506 0 LINE",
"506 307 LINE",
"454 166 LINE",
"770 700 LINE",
"542 700 LINE",
"325 335 LINE",
"470 335 LINE",
"255 700 LINE",
"6 700 LINE",
"324 166 LINE",
"270 307 LINE",
"270 0 LINE"
);
}
);
width = 776;
},
{
anchors = (
{
name = bottom;
position = "{346, 0}";
},
{
name = center;
position = "{343, 251}";
},
{
name = top;
position = "{346, 700}";
}
);
layerId = "708134FE-A11E-43C9-84F0-594DA15B6BD1";
paths = (
{
closed = 1;
nodes = (
"403 0 LINE",
"403 272 LINE",
"377 202 LINE",
"679 700 LINE",
"566 700 LINE",
"316 289 LINE",
"384 289 LINE",
"135 700 LINE",
"13 700 LINE",
"315 202 LINE",
"289 272 LINE",
"289 0 LINE"
);
}
);
width = 692;
}
);
leftKerningGroup = Y;
rightKerningGroup = Y;
rightMetricsKey = "=|";
unicode = 0059;
},
{
color = 3;
glyphname = Yhook;
layers = (
{
anchors = (
{
name = bottom;
position = "{320, 0}";
},
{
name = center;
position = "{320, 240}";
},
{
name = top;
position = "{320, 700}";
}
);
background = {
anchors = (
{
name = bottom;
position = "{320, 0}";
},
{
name = center;
position = "{320, 240}";
},
{
name = top;
position = "{320, 700}";
}
);
paths = (
{
closed = 1;
nodes = (
"316 253 LINE",
"324 253 LINE",
"48 700 LINE",
"25 700 LINE",
"315 230 LINE",
"310 245 LINE",
"310 0 LINE",
"330 0 LINE",
"330 245 LINE",
"325 230 LINE",
"564 619 LINE SMOOTH",
"618 706 OFFCURVE",
"681 696 OFFCURVE",
"726 650 CURVE",
"693 663 LINE",
"718 698 LINE",
"736 666 LINE",
"682 718 OFFCURVE",
"608 728 OFFCURVE",
"544 624 CURVE SMOOTH"
);
},
{
closed = 0;
nodes = (
"592 653 LINE SMOOTH",
"638 757 OFFCURVE",
"700 742 OFFCURVE",
"735 703 CURVE",
"707 707 LINE",
"730 742 LINE",
"747 718 LINE",
"704 766 OFFCURVE",
"625 776 OFFCURVE",
"573 659 CURVE SMOOTH"
);
}
);
};
layerId = UUID0;
paths = (
{
closed = 1;
nodes = (
"330 0 LINE",
"330 245 LINE",
"325 230 LINE",
"585 653 LINE SMOOTH",
"644 748 OFFCURVE",
"694 729 OFFCURVE",
"729 693 CURVE",
"701 697 LINE",
"724 732 LINE",
"741 708 LINE",
"698 753 OFFCURVE",
"632 766 OFFCURVE",
"565 658 CURVE SMOOTH",
"316 253 LINE",
"324 253 LINE",
"48 700 LINE",
"25 700 LINE",
"315 230 LINE",
"310 245 LINE",
"310 0 LINE"
);
}
);
width = 735;
},
{
anchors = (
{
name = bottom;
position = "{346, 0}";
},
{
name = center;
position = "{343, 251}";
},
{
name = top;
position = "{346, 700}";
}
);
background = {
anchors = (
{
name = bottom;
position = "{346, 0}";
},
{
name = center;
position = "{343, 251}";
},
{
name = top;
position = "{346, 700}";
}
);
paths = (
{
closed = 1;
nodes = (
"317 289 LINE",
"384 289 LINE",
"135 700 LINE",
"13 700 LINE",
"315 202 LINE",
"289 272 LINE",
"289 0 LINE",
"403 0 LINE",
"403 272 LINE",
"377 202 LINE",
"597 570 LINE SMOOTH",
"639 640 OFFCURVE",
"687 631 OFFCURVE",
"752 580 CURVE",
"695 580 LINE",
"742 717 LINE",
"804 658 LINE",
"651 752 OFFCURVE",
"578 724 OFFCURVE",
"506 604 CURVE SMOOTH"
);
}
);
};
layerId = "708134FE-A11E-43C9-84F0-594DA15B6BD1";
paths = (
{
closed = 1;
nodes = (
"403 0 LINE",
"403 272 LINE",
"377 202 LINE",
"616 603 LINE SMOOTH",
"666 686 OFFCURVE",
"721 644 OFFCURVE",
"746 612 CURVE",
"699 601 LINE",
"772 754 LINE",
"796 697 LINE",
"676 793 OFFCURVE",
"592 747 OFFCURVE",
"519 626 CURVE SMOOTH",
"317 289 LINE",
"384 289 LINE",
"135 700 LINE",
"13 700 LINE",
"315 202 LINE",
"289 272 LINE",
"289 0 LINE"
);
}
);
width = 766;
},
{
anchors = (
{
name = bottom;
position = "{388, 0}";
},
{
name = center;
position = "{382, 266}";
},
{
name = top;
position = "{388, 700}";
}
);
background = {
anchors = (
{
name = bottom;
position = "{388, 0}";
},
{
name = center;
position = "{382, 266}";
},
{
name = top;
position = "{388, 700}";
}
);
paths = (
{
closed = 1;
nodes = (
"326 335 LINE",
"471 335 LINE",
"254 700 LINE",
"6 700 LINE",
"324 166 LINE",
"270 307 LINE",
"270 0 LINE",
"506 0 LINE",
"506 307 LINE",
"455 166 LINE",
"666 522 LINE SMOOTH",
"695 571 OFFCURVE",
"742 581 OFFCURVE",
"799 537 CURVE",
"767 529 LINE",
"816 731 LINE",
"847 692 LINE",
"697 763 OFFCURVE",
"570 750 OFFCURVE",
"485 605 CURVE SMOOTH"
);
}
);
};
layerId = "5DA6E103-6A94-47F2-987D-4952DB8EA68E";
paths = (
{
closed = 1;
nodes = (
"506 0 LINE",
"506 307 LINE",
"455 166 LINE",
"666 522 LINE SMOOTH",
"686 556 OFFCURVE",
"715 569 OFFCURVE",
"758 536 CURVE",
"735 515 LINE",
"815 732 LINE",
"832 696 LINE",
"728 778 OFFCURVE",
"595 793 OFFCURVE",
"484 604 CURVE SMOOTH",
"326 335 LINE",
"471 335 LINE",
"254 700 LINE",
"6 700 LINE",
"324 166 LINE",
"270 307 LINE",
"270 0 LINE"
);
}
);
width = 811;
}
);
leftKerningGroup = Y;
leftMetricsKey = Y;
rightKerningGroup = Whook;
unicode = 01B3;
},
